<svg width="40" height="40" viewBox="0 0 40 40" fill="none" xmlns="http://www.w3.org/2000/svg">
<path d="M13.1668 26.8324L4.55898 23.6605C4.32163 23.5729 4.11684 23.4147 3.97219 23.2071C3.82755 22.9995 3.75 22.7526 3.75 22.4996C3.75 22.2466 3.82755 21.9997 3.97219 21.7921C4.11684 21.5845 4.32163 21.4263 4.55898 21.3387L13.1668 18.1668L16.3387 9.55898C16.4263 9.32163 16.5845 9.11684 16.7921 8.97219C16.9997 8.82755 17.2466 8.75 17.4996 8.75C17.7526 8.75 17.9995 8.82755 18.2071 8.97219C18.4147 9.11684 18.5729 9.32163 18.6605 9.55898L21.8324 18.1668L30.4402 21.3387C30.6776 21.4263 30.8824 21.5845 31.027 21.7921C31.1717 21.9997 31.2492 22.2466 31.2492 22.4996C31.2492 22.7526 31.1717 22.9995 31.027 23.2071C30.8824 23.4147 30.6776 23.5729 30.4402 23.6605L21.8324 26.8324L18.6605 35.4402C18.5729 35.6776 18.4147 35.8824 18.2071 36.027C17.9995 36.1717 17.7526 36.2492 17.4996 36.2492C17.2466 36.2492 16.9997 36.1717 16.7921 36.027C16.5845 35.8824 16.4263 35.6776 16.3387 35.4402L13.1668 26.8324Z" stroke="#FF6C6C" stroke-width="3.33333" stroke-linecap="round" stroke-linejoin="round"/>
<path d="M27.5 2.5V10" stroke="#FF6C6C" stroke-width="3.33333" stroke-linecap="round" stroke-linejoin="round"/>
<path d="M35 11.25V16.25" stroke="#FF6C6C" stroke-width="3.33333" stroke-linecap="round" stroke-linejoin="round"/>
<path d="M23.75 6.25H31.25" stroke="#FF6C6C" stroke-width="3.33333" stroke-linecap="round" stroke-linejoin="round"/>
<path d="M32.5 13.75H37.5" stroke="#FF6C6C" stroke-width="3.33333" stroke-linecap="round" stroke-linejoin="round"/>
</svg>
