<svg width="40" height="40" viewBox="0 0 40 40" fill="none" xmlns="http://www.w3.org/2000/svg">
<path d="M20 13.75C21.0355 13.75 21.875 12.9105 21.875 11.875C21.875 10.8395 21.0355 10 20 10C18.9645 10 18.125 10.8395 18.125 11.875C18.125 12.9105 18.9645 13.75 20 13.75Z" fill="#FF6C6C"/>
<path d="M13.125 17.5C14.1605 17.5 15 16.6605 15 15.625C15 14.5895 14.1605 13.75 13.125 13.75C12.0895 13.75 11.25 14.5895 11.25 15.625C11.25 16.6605 12.0895 17.5 13.125 17.5Z" fill="#FF6C6C"/>
<path d="M13.125 26.25C14.1605 26.25 15 25.4105 15 24.375C15 23.3395 14.1605 22.5 13.125 22.5C12.0895 22.5 11.25 23.3395 11.25 24.375C11.25 25.4105 12.0895 26.25 13.125 26.25Z" fill="#FF6C6C"/>
<path d="M26.875 17.5C27.9105 17.5 28.75 16.6605 28.75 15.625C28.75 14.5895 27.9105 13.75 26.875 13.75C25.8395 13.75 25 14.5895 25 15.625C25 16.6605 25.8395 17.5 26.875 17.5Z" fill="#FF6C6C"/>
<path d="M20 30.0008C20 29.0062 20.3951 28.0524 21.0983 27.3491C21.8016 26.6458 22.7554 26.2508 23.75 26.2508H30.9703C31.8197 26.2509 32.644 25.9627 33.3082 25.4333C33.9724 24.9039 34.4372 24.1647 34.6266 23.3367C34.8846 22.1998 35.0099 21.0368 35 19.8711C34.9297 11.6179 28.1 4.91795 19.8438 5.00076C15.8926 5.04192 12.1174 6.64042 9.33801 9.44902C6.55867 12.2576 4.99979 16.0494 5 20.0008C5 26.5336 9.17656 31.4758 15 33.5336C15.5654 33.7335 16.1705 33.7949 16.7645 33.7126C17.3585 33.6303 17.9242 33.4067 18.414 33.0607C18.9037 32.7146 19.3034 32.2562 19.5793 31.7237C19.8553 31.1913 19.9996 30.6005 20 30.0008Z" stroke="#FF6C6C" stroke-width="3.33" stroke-linecap="round" stroke-linejoin="round"/>
</svg>
