<svg width="40" height="40" viewBox="0 0 40 40" fill="none" xmlns="http://www.w3.org/2000/svg">
<path d="M6.66699 3.33398V36.6673L10.0003 35.0007L13.3337 36.6673L16.667 35.0007L20.0003 36.6673L23.3337 35.0007L26.667 36.6673L30.0003 35.0007L33.3337 36.6673V3.33398L30.0003 5.00065L26.667 3.33398L23.3337 5.00065L20.0003 3.33398L16.667 5.00065L13.3337 3.33398L10.0003 5.00065L6.66699 3.33398Z" stroke="#FF6C6C" stroke-width="3.33" stroke-linecap="round" stroke-linejoin="round"/>
<path d="M26.6663 13.334H16.6663C15.7823 13.334 14.9344 13.6852 14.3093 14.3103C13.6842 14.9354 13.333 15.7833 13.333 16.6673C13.333 17.5514 13.6842 18.3992 14.3093 19.0243C14.9344 19.6495 15.7823 20.0007 16.6663 20.0007H23.333C24.2171 20.0007 25.0649 20.3518 25.69 20.977C26.3152 21.6021 26.6663 22.4499 26.6663 23.334C26.6663 24.218 26.3152 25.0659 25.69 25.691C25.0649 26.3161 24.2171 26.6673 23.333 26.6673H13.333" stroke="#FF6C6C" stroke-width="3.33" stroke-linecap="round" stroke-linejoin="round"/>
<path d="M20 29.1673V10.834" stroke="#FF6C6C" stroke-width="3.33" stroke-linecap="round" stroke-linejoin="round"/>
</svg>
