<svg width="40" height="40" viewBox="0 0 40 40" fill="none" xmlns="http://www.w3.org/2000/svg">
<path d="M30.6152 33.1523C30.6004 33.1856 30.5866 33.2159 30.5742 33.2432H30.5605C30.5787 33.2131 30.5963 33.1826 30.6143 33.1523H30.6152ZM20 6.75684C27.2382 6.75688 33.1533 12.7357 33.1533 20C33.1533 22.7883 32.8312 25.2598 32.4111 27.3008C32.4302 27.0082 32.4414 26.7133 32.4414 26.416C32.4414 23.0953 31.633 20.8063 30.7988 18.416L30.7979 18.4131L30.7227 18.208C29.0657 13.9765 23.3616 13.3121 20.752 17.0088C20.3261 17.6114 19.3337 18.2458 17.7676 18.7549C16.2649 19.2433 14.4965 19.5315 12.876 19.6406L12.874 19.6416C9.88913 19.8463 7.55782 22.3438 7.55762 25.334V26.7354C7.55762 26.8918 7.56153 27.0478 7.56738 27.2031C7.15716 25.1812 6.84669 22.7438 6.84668 20C6.84668 12.7356 12.7618 6.75684 20 6.75684Z" stroke="#FF6C6C" stroke-width="3.33"/>
<path d="M25.3047 20.9619C25.9782 22.9085 26.4169 24.3619 26.417 26.416C26.417 30.0988 23.6983 33.243 20 33.2432C16.4864 33.2432 13.5822 30.2977 13.582 26.7363V25.6279C14.9359 25.5227 17.0767 25.2639 19.2393 24.6074C21.3515 23.9662 23.7234 22.8755 25.3047 20.9619Z" stroke="#FF6C6C" stroke-width="3.33"/>
</svg>
