<svg width="40" height="40" viewBox="0 0 40 40" fill="none" xmlns="http://www.w3.org/2000/svg">
<path d="M33.75 7.5H6.25C5.55964 7.5 5 8.05964 5 8.75V31.25C5 31.9404 5.55964 32.5 6.25 32.5H33.75C34.4404 32.5 35 31.9404 35 31.25V8.75C35 8.05964 34.4404 7.5 33.75 7.5Z" stroke="#FF6C6C" stroke-width="3.33" stroke-linecap="round" stroke-linejoin="round"/>
<path d="M24.375 17.5C25.4105 17.5 26.25 16.6605 26.25 15.625C26.25 14.5895 25.4105 13.75 24.375 13.75C23.3395 13.75 22.5 14.5895 22.5 15.625C22.5 16.6605 23.3395 17.5 24.375 17.5Z" fill="#FF6C6C"/>
<path d="M23.0176 25.6252L27.0316 21.6158C27.266 21.3816 27.5839 21.25 27.9152 21.25C28.2466 21.25 28.5644 21.3816 28.7988 21.6158L35.0004 27.8221" stroke="#FF6C6C" stroke-width="3.33" stroke-linecap="round" stroke-linejoin="round"/>
<path d="M5 26.3568L13.4906 17.8647C13.6067 17.7484 13.7446 17.6562 13.8963 17.5933C14.0481 17.5304 14.2107 17.498 14.375 17.498C14.5393 17.498 14.7019 17.5304 14.8537 17.5933C15.0054 17.6562 15.1433 17.7484 15.2594 17.8647L29.8922 32.499" stroke="#FF6C6C" stroke-width="3.33" stroke-linecap="round" stroke-linejoin="round"/>
</svg>
