<svg width="40" height="40" viewBox="0 0 40 40" fill="none" xmlns="http://www.w3.org/2000/svg">
<g clip-path="url(#clip0_62735_13796)">
<path d="M31.25 23.75L25 30L15 27.5L6.25 21.25" stroke="#FF6C6C" stroke-width="3.33" stroke-linecap="round" stroke-linejoin="round"/>
<path d="M11.3564 11.0359L20.0002 8.75L28.6439 11.0359" stroke="#FF6C6C" stroke-width="3.33" stroke-linecap="round" stroke-linejoin="round"/>
<path d="M5.37049 9.44045L1.38299 17.4186C1.2348 17.7149 1.21031 18.0579 1.3149 18.3723C1.4195 18.6867 1.64462 18.9467 1.9408 19.0951L6.25018 21.2498L11.3564 11.0358L7.04861 8.88264C6.90181 8.80902 6.74194 8.76504 6.57814 8.75324C6.41433 8.74143 6.24981 8.76201 6.09397 8.81382C5.93812 8.86562 5.79401 8.94762 5.66988 9.05514C5.54574 9.16267 5.444 9.29359 5.37049 9.44045Z" stroke="#FF6C6C" stroke-width="3.33" stroke-linecap="round" stroke-linejoin="round"/>
<path d="M33.7508 21.2498L38.0602 19.0951C38.3563 18.9467 38.5815 18.6867 38.6861 18.3723C38.7906 18.0579 38.7662 17.7149 38.618 17.4186L34.6305 9.44045C34.557 9.29359 34.4552 9.16267 34.3311 9.05514C34.2069 8.94762 34.0628 8.86562 33.907 8.81382C33.7511 8.76201 33.5866 8.74143 33.4228 8.75324C33.259 8.76504 33.0991 8.80902 32.9523 8.88264L28.6445 11.0358L33.7508 21.2498Z" stroke="#FF6C6C" stroke-width="3.33" stroke-linecap="round" stroke-linejoin="round"/>
<path d="M28.7507 11.25H22.5007L15.3663 18.1703C15.2337 18.3029 15.1326 18.4636 15.0705 18.6405C15.0084 18.8174 14.9869 19.0061 15.0076 19.1925C15.0284 19.3788 15.0907 19.5582 15.1901 19.7171C15.2896 19.8761 15.4235 20.0107 15.582 20.1109C18.3179 21.8594 22.032 21.7391 25.0007 18.75L31.2507 23.75L33.7507 21.25" stroke="#FF6C6C" stroke-width="3.33" stroke-linecap="round" stroke-linejoin="round"/>
<path d="M19.3844 33.75L12.8656 32.1203L8.75 29.1797" stroke="#FF6C6C" stroke-width="3.33" stroke-linecap="round" stroke-linejoin="round"/>
</g>
<defs>
<clipPath id="clip0_62735_13796">
<rect width="40" height="40" fill="white"/>
</clipPath>
</defs>
</svg>
