<svg width="40" height="40" viewBox="0 0 40 40" fill="none" xmlns="http://www.w3.org/2000/svg">
<path d="M33.8891 32.5H6.15313C5.84755 32.4992 5.55473 32.3774 5.33865 32.1613C5.12258 31.9453 5.00082 31.6524 5 31.3469V12.5H33.75C34.0815 12.5 34.3995 12.6317 34.6339 12.8661C34.8683 13.1005 35 13.4185 35 13.75V31.3891C35 31.6837 34.883 31.9663 34.6746 32.1746C34.4663 32.383 34.1837 32.5 33.8891 32.5Z" stroke="#FF6C6C" stroke-width="3.33" stroke-linecap="round" stroke-linejoin="round"/>
<path d="M5 12.5V8.75C5 8.41848 5.1317 8.10054 5.36612 7.86612C5.60054 7.6317 5.91848 7.5 6.25 7.5H14.4828C14.8139 7.50015 15.1314 7.63165 15.3656 7.86563L20 12.5" stroke="#FF6C6C" stroke-width="3.33" stroke-linecap="round" stroke-linejoin="round"/>
</svg>
