<svg width="40" height="40" viewBox="0 0 40 40" fill="none" xmlns="http://www.w3.org/2000/svg">
<g clip-path="url(#clip0_63137_8199)">
<path d="M20.0004 29.5454L28.5504 34.8032C28.7722 34.9379 29.029 35.0038 29.2883 34.9925C29.5475 34.9813 29.7977 34.8935 30.007 34.7401C30.2164 34.5868 30.3756 34.3748 30.4645 34.131C30.5535 33.8872 30.5681 33.6225 30.5066 33.3704L28.1816 23.5595L35.791 16.997C35.985 16.8266 36.1249 16.6032 36.1934 16.3542C36.2619 16.1053 36.2559 15.8417 36.1763 15.5961C36.0967 15.3505 35.9469 15.1336 35.7455 14.9721C35.544 14.8107 35.2996 14.7118 35.0426 14.6876L25.0566 13.8751L21.2098 4.56259C21.1117 4.32234 20.9443 4.11674 20.7289 3.97201C20.5135 3.82729 20.2599 3.75 20.0004 3.75C19.7409 3.75 19.4873 3.82729 19.2719 3.97201C19.0565 4.11674 18.8891 4.32234 18.791 4.56259L14.9441 13.8751L4.95821 14.6876C4.6994 14.7103 4.45303 14.8088 4.24988 14.9707C4.04672 15.1327 3.89579 15.3509 3.81594 15.5981C3.73609 15.8453 3.73086 16.1106 3.8009 16.3608C3.87094 16.611 4.01316 16.835 4.20977 17.0048L11.8191 23.5673L9.49414 33.3704C9.43268 33.6225 9.44734 33.8872 9.53626 34.131C9.62519 34.3748 9.7844 34.5868 9.99376 34.7401C10.2031 34.8935 10.4532 34.9813 10.7125 34.9925C10.9718 35.0038 11.2286 34.9379 11.4504 34.8032L20.0004 29.5454Z" stroke="#FF6C6C" stroke-width="3.33" stroke-linecap="round" stroke-linejoin="round"/>
</g>
<defs>
<clipPath id="clip0_63137_8199">
<rect width="40" height="40" fill="white"/>
</clipPath>
</defs>
</svg>
