<svg width="40" height="40" viewBox="0 0 40 40" fill="none" xmlns="http://www.w3.org/2000/svg">
<path d="M7.5 6.25L32.5 33.75" stroke="#FF6C6C" stroke-width="3.33" stroke-linecap="round" stroke-linejoin="round"/>
<path d="M20 33.75C21.0355 33.75 21.875 32.9105 21.875 31.875C21.875 30.8395 21.0355 30 20 30C18.9645 30 18.125 30.8395 18.125 31.875C18.125 32.9105 18.9645 33.75 20 33.75Z" fill="#FF6C6C"/>
<path d="M11.1875 10.3125C8.48694 11.3001 5.97246 12.7364 3.75 14.5609" stroke="#FF6C6C" stroke-width="3.33" stroke-linecap="round" stroke-linejoin="round"/>
<path d="M36.25 14.561C31.6726 10.7955 25.9272 8.74094 20 8.75003C18.9029 8.74962 17.807 8.81903 16.7188 8.95784" stroke="#FF6C6C" stroke-width="3.33" stroke-linecap="round" stroke-linejoin="round"/>
<path d="M16.8406 16.5254C13.8836 17.0438 11.1027 18.2919 8.75 20.1566" stroke="#FF6C6C" stroke-width="3.33" stroke-linecap="round" stroke-linejoin="round"/>
<path d="M31.2498 20.157C29.0407 18.4043 26.4517 17.1933 23.6904 16.6211" stroke="#FF6C6C" stroke-width="3.33" stroke-linecap="round" stroke-linejoin="round"/>
<path d="M24.1891 24.6079C22.4962 23.8836 20.6444 23.6109 18.8146 23.8166C16.9849 24.0223 15.2398 24.6993 13.75 25.7813" stroke="#FF6C6C" stroke-width="3.33" stroke-linecap="round" stroke-linejoin="round"/>
</svg>
