<svg width="40" height="40" viewBox="0 0 40 40" fill="none" xmlns="http://www.w3.org/2000/svg">
<g clip-path="url(#clip0_62727_1129)">
<path d="M16.875 23.125L25 15" stroke="#FF6C6C" stroke-width="3.33" stroke-linecap="round" stroke-linejoin="round"/>
<path d="M34.9517 6.591C35.012 6.37718 35.0141 6.15116 34.958 5.93621C34.9019 5.72126 34.7895 5.52515 34.6324 5.36807C34.4754 5.21098 34.2792 5.0986 34.0643 5.04249C33.8494 4.98637 33.6233 4.98856 33.4095 5.04881L3.40951 14.1457C3.16458 14.2148 2.94659 14.357 2.78467 14.5534C2.62275 14.7497 2.52462 14.9908 2.50338 15.2444C2.48215 15.498 2.53883 15.7521 2.66585 15.9726C2.79287 16.1931 2.98417 16.3696 3.2142 16.4785L16.8751 23.1254L23.522 36.7848C23.6309 37.0148 23.8074 37.2061 24.0279 37.3331C24.2485 37.4601 24.5025 37.5168 24.7561 37.4956C25.0097 37.4743 25.2508 37.3762 25.4471 37.2143C25.6435 37.0524 25.7857 36.8344 25.8548 36.5894L34.9517 6.591Z" stroke="#FF6C6C" stroke-width="3.33" stroke-linecap="round" stroke-linejoin="round"/>
</g>
<defs>
<clipPath id="clip0_62727_1129">
<rect width="40" height="40" fill="white"/>
</clipPath>
</defs>
</svg>
