<svg width="40" height="40" viewBox="0 0 40 40" fill="none" xmlns="http://www.w3.org/2000/svg">
<path d="M22.0928 6.56055C25.9071 5.67238 29.5545 8.5 29.6846 12.3789C29.5858 12.373 29.4859 12.3678 29.3848 12.3672C29.2676 12.3665 29.1247 12.3394 28.9941 12.2881C28.8545 12.2331 28.8133 12.1839 28.835 12.207L28.8232 12.1953L24.6221 7.79102L23.415 6.52441L22.21 7.79395L20.2793 9.82715C18.7787 11.4076 16.5562 12.3622 14.374 12.3623H14.2939C14.2608 12.3624 14.2163 12.3632 14.1611 12.3633C14.0508 12.3634 13.9025 12.3634 13.7285 12.3633C13.3781 12.363 12.9364 12.3617 12.4863 12.3613C11.6621 12.3607 10.6638 12.3593 10.501 12.3711C10.0308 12.4052 9.56898 12.4781 9.12012 12.5869C8.96463 10.7243 9.15962 8.83259 9.70117 7.06055C11.9712 8.01645 14.5189 8.30964 17.0098 7.74316L17.0186 7.74219L22.0928 6.56055ZM12.4521 22.5381L10.8896 22.4414C9.81966 22.375 8.97291 21.4856 8.97266 20.4004C8.97266 19.3255 9.80186 18.4443 10.8555 18.3613L14.3496 18.3604C17.6491 18.3664 20.8543 17.1822 23.3486 15.1455L24.4844 16.3359V16.3369C25.7413 17.6543 27.4479 18.3077 29.1602 18.3604C30.1463 18.3906 31.0273 19.2674 31.0273 20.4004C31.0272 21.4858 30.1788 22.3757 29.1094 22.4414L27.5469 22.5371V25.4619C27.5469 30.0573 24.0725 33.6016 20.001 33.6025C15.8016 33.5897 12.447 29.9156 12.4521 25.4639V22.5381Z" stroke="#FF6C6C" stroke-width="3.33"/>
</svg>
