<svg width="40" height="40" viewBox="0 0 40 40" fill="none" xmlns="http://www.w3.org/2000/svg">
<path d="M5.25004 22.7344C4.59919 19.2213 5.22366 15.5913 7.01108 12.4977C8.79849 9.40409 11.6314 7.05009 15 5.85938V17.1094L5.25004 22.7344Z" stroke="#FF6C6C" stroke-width="3.33" stroke-linecap="round" stroke-linejoin="round"/>
<path d="M19.9998 20.0656V5C22.6279 5.00039 25.2097 5.69125 27.4867 7.00337C29.7638 8.3155 31.6561 10.2028 32.9743 12.4764C34.2925 14.75 34.9901 17.33 34.9975 19.958C35.0049 22.586 34.3216 25.1699 33.0162 27.4508C31.7108 29.7317 29.8291 31.6296 27.5594 32.9545C25.2897 34.2793 22.7118 34.9846 20.0838 34.9998C17.4558 35.0149 14.8699 34.3393 12.5852 33.0406C10.3004 31.7419 8.39697 29.8658 7.06543 27.6L19.9998 20.0656Z" stroke="#FF6C6C" stroke-width="2.5" stroke-linecap="round" stroke-linejoin="round"/>
</svg>
