<svg width="32" height="32" viewBox="0 0 32 32" fill="none" xmlns="http://www.w3.org/2000/svg">
<g clip-path="url(#clip0_63095_5463)">
<path d="M12 28H20" stroke="#FF6C6C" stroke-width="3.33" stroke-linecap="round" stroke-linejoin="round"/>
<path d="M6.99984 13C6.99984 10.6131 7.94806 8.32387 9.63588 6.63604C11.3237 4.94821 13.6129 4 15.9998 4C18.3868 4 20.676 4.94821 22.3638 6.63604C24.0516 8.32387 24.9998 10.6131 24.9998 13C24.9998 17.4775 26.0373 21.075 26.8623 22.5C26.95 22.6518 26.9962 22.8239 26.9963 22.9991C26.9965 23.1744 26.9506 23.3466 26.8632 23.4985C26.7759 23.6504 26.6501 23.7767 26.4986 23.8647C26.3471 23.9527 26.1751 23.9994 25.9998 24H5.99984C5.82482 23.9989 5.65314 23.952 5.50195 23.8638C5.35077 23.7756 5.22539 23.6492 5.13833 23.4974C5.05127 23.3456 5.00559 23.1735 5.00586 22.9985C5.00613 22.8235 5.05233 22.6516 5.13984 22.5C5.96359 21.075 6.99984 17.4763 6.99984 13Z" stroke="#FF6C6C" stroke-width="3.33" stroke-linecap="round" stroke-linejoin="round"/>
</g>
<defs>
<clipPath id="clip0_63095_5463">
<rect width="32" height="32" fill="white"/>
</clipPath>
</defs>
</svg>
