<svg width="40" height="40" viewBox="0 0 40 40" fill="none" xmlns="http://www.w3.org/2000/svg">
<g clip-path="url(#clip0_62584_13030)">
<path d="M13.125 25C17.6123 25 21.25 21.3623 21.25 16.875C21.25 12.3877 17.6123 8.75 13.125 8.75C8.63769 8.75 5 12.3877 5 16.875C5 21.3623 8.63769 25 13.125 25Z" stroke="#FF6C6C" stroke-width="3.33" stroke-linecap="round" stroke-linejoin="round"/>
<path d="M1.59863 31.2494C2.84721 29.3296 4.5555 27.7521 6.56842 26.6601C8.58134 25.5681 10.8351 24.9961 13.1252 24.9961C15.4153 24.9961 17.669 25.5681 19.682 26.6601C21.6949 27.7521 23.4032 29.3296 24.6518 31.2494" stroke="#FF6C6C" stroke-width="3.33" stroke-linecap="round" stroke-linejoin="round"/>
<path d="M26.875 25C29.1649 24.9987 31.4189 25.5697 33.432 26.6612C35.445 27.7528 37.1533 29.3302 38.4016 31.25" stroke="#FF6C6C" stroke-width="3.33" stroke-linecap="round" stroke-linejoin="round"/>
<path d="M23.8574 9.32812C24.9689 8.88484 26.1645 8.6925 27.3589 8.76488C28.5532 8.83725 29.7169 9.17253 30.7667 9.74677C31.8164 10.321 32.7264 11.12 33.4316 12.0867C34.1368 13.0534 34.6197 14.164 34.8459 15.339C35.0721 16.514 35.036 17.7244 34.7402 18.8838C34.4444 20.0433 33.8961 21.123 33.1345 22.046C32.373 22.9689 31.417 23.7123 30.3349 24.223C29.2527 24.7336 28.0712 24.9989 26.8746 25" stroke="#FF6C6C" stroke-width="3.33" stroke-linecap="round" stroke-linejoin="round"/>
</g>
<defs>
<clipPath id="clip0_62584_13030">
<rect width="40" height="40" fill="white"/>
</clipPath>
</defs>
</svg>
