<svg width="40" height="40" viewBox="0 0 40 40" fill="none" xmlns="http://www.w3.org/2000/svg">
<g clip-path="url(#clip0_63095_5453)">
<path d="M32.5 22.5H7.5C6.80964 22.5 6.25 23.0596 6.25 23.75V31.25C6.25 31.9404 6.80964 32.5 7.5 32.5H32.5C33.1904 32.5 33.75 31.9404 33.75 31.25V23.75C33.75 23.0596 33.1904 22.5 32.5 22.5Z" stroke="#FF6C6C" stroke-width="3.33" stroke-linecap="round" stroke-linejoin="round"/>
<path d="M32.5 7.5H7.5C6.80964 7.5 6.25 8.05964 6.25 8.75V16.25C6.25 16.9404 6.80964 17.5 7.5 17.5H32.5C33.1904 17.5 33.75 16.9404 33.75 16.25V8.75C33.75 8.05964 33.1904 7.5 32.5 7.5Z" stroke="#FF6C6C" stroke-width="3.33" stroke-linecap="round" stroke-linejoin="round"/>
<path d="M28.125 14.375C29.1605 14.375 30 13.5355 30 12.5C30 11.4645 29.1605 10.625 28.125 10.625C27.0895 10.625 26.25 11.4645 26.25 12.5C26.25 13.5355 27.0895 14.375 28.125 14.375Z" fill="#FF6C6C"/>
<path d="M28.125 29.375C29.1605 29.375 30 28.5355 30 27.5C30 26.4645 29.1605 25.625 28.125 25.625C27.0895 25.625 26.25 26.4645 26.25 27.5C26.25 28.5355 27.0895 29.375 28.125 29.375Z" fill="#FF6C6C"/>
</g>
<defs>
<clipPath id="clip0_63095_5453">
<rect width="40" height="40" fill="white"/>
</clipPath>
</defs>
</svg>
