<svg width="40" height="40" viewBox="0 0 40 40" fill="none" xmlns="http://www.w3.org/2000/svg">
<path d="M14.375 21.875C15.4105 21.875 16.25 21.0355 16.25 20C16.25 18.9645 15.4105 18.125 14.375 18.125C13.3395 18.125 12.5 18.9645 12.5 20C12.5 21.0355 13.3395 21.875 14.375 21.875Z" fill="#FF6C6C"/>
<path d="M25.625 21.875C26.6605 21.875 27.5 21.0355 27.5 20C27.5 18.9645 26.6605 18.125 25.625 18.125C24.5895 18.125 23.75 18.9645 23.75 20C23.75 21.0355 24.5895 21.875 25.625 21.875Z" fill="#FF6C6C"/>
<path d="M24.375 26.25C23.062 27.067 21.5464 27.5 20 27.5C18.4536 27.5 16.938 27.067 15.625 26.25" stroke="#FF6C6C" stroke-width="3.33" stroke-linecap="round" stroke-linejoin="round"/>
<path d="M20 35C28.2843 35 35 28.2843 35 20C35 11.7157 28.2843 5 20 5C11.7157 5 5 11.7157 5 20C5 28.2843 11.7157 35 20 35Z" stroke="#FF6C6C" stroke-width="3.33" stroke-linecap="round" stroke-linejoin="round"/>
<path d="M20 5C17.5 8.125 17.5 11.25 17.5 11.25C17.5 11.913 17.7634 12.5489 18.2322 13.0178C18.7011 13.4866 19.337 13.75 20 13.75C20.663 13.75 21.2989 13.4866 21.7678 13.0178C22.2366 12.5489 22.5 11.913 22.5 11.25" stroke="#FF6C6C" stroke-width="3.33" stroke-linecap="round" stroke-linejoin="round"/>
</svg>
