<svg width="40" height="40" viewBox="0 0 40 40" fill="none" xmlns="http://www.w3.org/2000/svg">
<path d="M31.6667 18.334H8.33333C6.49238 18.334 5 19.8264 5 21.6673V33.334C5 35.1749 6.49238 36.6673 8.33333 36.6673H31.6667C33.5076 36.6673 35 35.1749 35 33.334V21.6673C35 19.8264 33.5076 18.334 31.6667 18.334Z" stroke="#FF6C6C" stroke-width="3.33333" stroke-linecap="round" stroke-linejoin="round"/>
<path d="M11.667 18.334V11.6673C11.667 9.45718 12.545 7.33756 14.1078 5.77476C15.6706 4.21196 17.7902 3.33398 20.0003 3.33398C22.2105 3.33398 24.3301 4.21196 25.8929 5.77476C27.4557 7.33756 28.3337 9.45718 28.3337 11.6673V18.334" stroke="#FF6C6C" stroke-width="3.33333" stroke-linecap="round" stroke-linejoin="round"/>
</svg>
