<svg width="40" height="40" viewBox="0 0 40 40" fill="none" xmlns="http://www.w3.org/2000/svg">
<path d="M7.05469 35.9547C6.87262 36.1078 6.65063 36.2059 6.41479 36.2372C6.17894 36.2686 5.93905 36.232 5.72328 36.1318C5.50751 36.0315 5.32484 35.8717 5.19672 35.6713C5.0686 35.4708 5.00035 35.2379 5 35V10C5 9.66848 5.1317 9.35054 5.36612 9.11612C5.60054 8.8817 5.91848 8.75 6.25 8.75H33.75C34.0815 8.75 34.3995 8.8817 34.6339 9.11612C34.8683 9.35054 35 9.66848 35 10V30C35 30.3315 34.8683 30.6495 34.6339 30.8839C34.3995 31.1183 34.0815 31.25 33.75 31.25H12.5L7.05469 35.9547Z" stroke="#FF6C6C" stroke-width="3.33" stroke-linecap="round" stroke-linejoin="round"/>
</svg>
