<svg width="40" height="40" viewBox="0 0 40 40" fill="none" xmlns="http://www.w3.org/2000/svg">
<path d="M11.25 6.23069V33.7682C11.2541 33.9879 11.316 34.2027 11.4296 34.3909C11.5432 34.5791 11.7043 34.734 11.8969 34.84C12.0894 34.946 12.3065 34.9993 12.5262 34.9947C12.7459 34.9901 12.9606 34.9276 13.1484 34.8135L35.6609 21.0448C35.8408 20.9359 35.9895 20.7825 36.0927 20.5994C36.1959 20.4163 36.2501 20.2096 36.2501 19.9994C36.2501 19.7892 36.1959 19.5826 36.0927 19.3995C35.9895 19.2164 35.8408 19.063 35.6609 18.9541L13.1484 5.18538C12.9606 5.07133 12.7459 5.00883 12.5262 5.00419C12.3065 4.99954 12.0894 5.05291 11.8969 5.15892C11.7043 5.26493 11.5432 5.41983 11.4296 5.60799C11.316 5.79616 11.2541 6.01095 11.25 6.23069Z" stroke="#FF6C6C" stroke-width="3.33" stroke-linecap="round" stroke-linejoin="round"/>
</svg>
