<svg width="40" height="40" viewBox="0 0 40 40" fill="none" xmlns="http://www.w3.org/2000/svg">
<path d="M21.5029 6.74316C24.6292 6.74329 27.393 8.31409 29.0508 10.707L28.8545 9.72656L32.4463 12.6475C34.5016 14.3189 35.8329 16.8733 35.833 19.6992V20C35.833 22.5952 34.3765 24.8502 32.25 26L29.5889 27.4385C27.8744 30.8838 24.3184 33.2567 20.2148 33.2568H19.7852C15.6814 33.2568 12.1246 30.884 10.4102 27.4385L7.75 26C5.62346 24.8502 4.16699 22.5952 4.16699 20V19.6992C4.16711 16.8733 5.49837 14.3189 7.55371 12.6475L11.1445 9.72656L10.9473 10.708C12.605 8.31418 15.3701 6.74322 18.4971 6.74316H21.5029Z" stroke="#FF6C6C" stroke-width="3.33"/>
</svg>
