<svg width="40" height="40" viewBox="0 0 40 40" fill="none" xmlns="http://www.w3.org/2000/svg">
<path d="M19.9961 21.1709C22.6168 23.6887 26.1474 25.1572 29.877 25.1572C30.1252 25.1572 30.3731 25.1496 30.6201 25.1367C30.572 28.6417 27.7799 31.5246 24.3066 31.7109L23.7891 31.7393L23.3789 32.0547C22.4376 32.7805 21.2665 33.2109 20 33.2109C18.7335 33.2109 17.5625 32.7805 16.6211 32.0547L16.2109 31.7393L15.6934 31.7109C12.2206 31.5244 9.42748 28.6421 9.37891 25.1377C9.62423 25.1503 9.87006 25.1572 10.1162 25.1572C13.8455 25.1572 17.3755 23.6884 19.9961 21.1709ZM16.0527 12.9326H23.9473C27.5245 12.9326 30.4713 15.7931 30.6152 19.3369C30.3705 19.3582 30.1241 19.3701 29.877 19.3701C26.9356 19.3701 24.1928 17.8272 22.6572 15.3252L22.5127 15.0801L22.4111 14.9141C21.9135 14.1605 21.0913 13.6824 20.1904 13.6221L19.9971 13.6152C19.0214 13.6152 18.1152 14.1067 17.582 14.9141L17.4805 15.0801C15.9768 17.7259 13.1525 19.3701 10.1162 19.3701C9.87118 19.3701 9.62682 19.3589 9.38379 19.3379C9.52721 15.7937 12.4753 12.9328 16.0527 12.9326ZM18.0576 6.78809H21.9424C22.4928 6.78811 23.0142 6.91728 23.4795 7.14453H16.5205C16.9858 6.91724 17.5072 6.78815 18.0576 6.78809Z" stroke="#FF6C6C" stroke-width="3.33"/>
</svg>
