<svg width="40" height="40" viewBox="0 0 40 40" fill="none" xmlns="http://www.w3.org/2000/svg">
<path d="M13.2626 9.31397C14.9225 9.31397 16.2682 7.96831 16.2682 6.30835C16.2682 4.6484 14.9225 3.30273 13.2626 3.30273C11.6026 3.30273 10.257 4.6484 10.257 6.30835C10.257 7.96831 11.6026 9.31397 13.2626 9.31397Z" fill="#FF6C6C"/>
<path d="M26.6198 9.31397C28.2797 9.31397 29.6254 7.96831 29.6254 6.30835C29.6254 4.6484 28.2797 3.30273 26.6198 3.30273C24.9598 3.30273 23.6141 4.6484 23.6141 6.30835C23.6141 7.96831 24.9598 9.31397 26.6198 9.31397Z" fill="#FF6C6C"/>
<path d="M16.936 21.3061V13.4848L17.3835 13.5082C17.8043 13.5416 18.224 13.5783 18.6425 13.6184C18.7794 13.4113 18.9164 13.2009 19.06 12.9872C19.4896 12.3329 19.9781 11.7192 20.5194 11.1538C20.644 11.0269 20.7698 10.9044 20.8967 10.7864C19.8448 10.5827 18.7895 10.4191 17.7175 10.2855C16.5419 10.1486 15.3864 10.0383 14.2042 10.0016C13.9103 9.98157 13.6131 9.98157 13.3159 9.98157C13.1656 9.98157 13.022 9.98157 12.8651 9.98157H12.3875C11.7269 10.0084 11.0694 10.0854 10.4205 10.212C9.02513 10.4551 7.71409 11.048 6.61003 11.9352C5.41513 12.9131 4.62799 14.3017 4.40257 15.8292C4.34888 16.2471 4.34888 16.6702 4.40257 17.0882C4.45817 17.4872 4.5602 17.8783 4.70647 18.2537C4.95276 18.8758 5.26393 19.4702 5.63487 20.027C6.30771 21.0534 7.07465 22.0149 7.92582 22.8991C8.3335 23.3259 8.97303 23.4345 9.49876 23.1662L8.92102 35.2989C8.88428 36.0187 9.42512 36.6378 10.1433 36.6982H10.2568C10.9375 36.7029 11.5127 36.1952 11.5927 35.5193L13.032 23.3399H13.4929L14.9323 35.5193C15.0122 36.1952 15.5875 36.7029 16.2681 36.6982H16.3783C17.0978 36.6396 17.6406 36.0199 17.6039 35.2989L16.936 21.3061ZM9.58893 20.6883C9.0571 19.9973 8.57286 19.2709 8.13955 18.5142C7.90754 18.1068 7.71418 17.6785 7.56181 17.2351C7.50804 17.0773 7.47322 16.9136 7.45828 16.7476C7.45644 16.5994 7.47097 16.4516 7.50169 16.3067C7.66191 15.5677 8.08278 14.911 8.68724 14.4566C8.96451 14.2418 9.26741 14.0624 9.58893 13.9223V20.6883Z" fill="#FF6C6C"/>
<path d="M35.6377 21.1328C35.3972 18.8418 35.0499 16.434 33.7942 14.093C33.1363 12.8413 32.1579 11.7868 30.9589 11.0372C30.3316 10.6614 29.6502 10.3844 28.9385 10.2157C28.2516 10.052 27.5473 9.9735 26.8412 9.98194C26.1246 9.98536 25.412 10.0887 24.7239 10.2892C24.0024 10.503 23.3242 10.8421 22.7202 11.291C22.1629 11.7176 21.6614 12.2124 21.2274 12.7638C20.8473 13.2446 20.4929 13.7451 20.1654 14.2633C19.6331 15.1496 19.0288 15.9907 18.3587 16.778L18.2786 16.8681V20.4348C19.0837 20.0321 19.8262 19.5147 20.4827 18.8986C21.3474 18.0339 22.1237 17.0853 22.8003 16.0666L22.954 15.8529V21.3064L22.2861 35.2993C22.2492 36.0179 22.7882 36.6365 23.505 36.6986H23.6152C24.2958 36.7032 24.871 36.1955 24.951 35.5197L26.3904 23.3402H26.8479L28.2906 35.5197C28.3706 36.1955 28.9458 36.7032 29.6264 36.6986H29.74C30.4582 36.6382 30.999 36.019 30.9623 35.2993L30.2944 21.3064V14.7175C30.5644 15.0143 30.8039 15.3376 31.009 15.6826C31.5084 16.5431 31.903 17.4602 32.1846 18.4144C32.5185 19.4162 32.7389 20.4615 32.9827 21.5369V21.5636C33.1245 22.2876 33.8264 22.7596 34.5504 22.6178C35.2438 22.4821 35.7115 21.8298 35.6176 21.1294L35.6377 21.1328Z" fill="#FF6C6C"/>
</svg>
