<svg width="40" height="40" viewBox="0 0 40 40" fill="none" xmlns="http://www.w3.org/2000/svg">
<path d="M30 33.75L30 6.25C30 4.86929 28.8807 3.75 27.5 3.75L12.5 3.75C11.1193 3.75 10 4.86929 10 6.25L10 33.75C10 35.1307 11.1193 36.25 12.5 36.25H27.5C28.8807 36.25 30 35.1307 30 33.75Z" stroke="#FF6C6C" stroke-width="3.33" stroke-linecap="round" stroke-linejoin="round"/>
<path d="M20 11.25C21.0355 11.25 21.875 10.4105 21.875 9.375C21.875 8.33947 21.0355 7.5 20 7.5C18.9645 7.5 18.125 8.33947 18.125 9.375C18.125 10.4105 18.9645 11.25 20 11.25Z" fill="#FF6C6C"/>
</svg>
