<svg width="40" height="40" viewBox="0 0 40 40" fill="none" xmlns="http://www.w3.org/2000/svg">
<g clip-path="url(#clip0_63122_8994)">
<path d="M20 11.25C21.7259 11.25 23.125 9.85089 23.125 8.125C23.125 6.39911 21.7259 5 20 5C18.2741 5 16.875 6.39911 16.875 8.125C16.875 9.85089 18.2741 11.25 20 11.25Z" stroke="#FF6C6C" stroke-width="3.33" stroke-linecap="round" stroke-linejoin="round"/>
<path d="M34.375 15.625C36.1009 15.625 37.5 14.2259 37.5 12.5C37.5 10.7741 36.1009 9.375 34.375 9.375C32.6491 9.375 31.25 10.7741 31.25 12.5C31.25 14.2259 32.6491 15.625 34.375 15.625Z" stroke="#FF6C6C" stroke-width="3.33" stroke-linecap="round" stroke-linejoin="round"/>
<path d="M5.625 15.625C7.35089 15.625 8.75 14.2259 8.75 12.5C8.75 10.7741 7.35089 9.375 5.625 9.375C3.89911 9.375 2.5 10.7741 2.5 12.5C2.5 14.2259 3.89911 15.625 5.625 15.625Z" stroke="#FF6C6C" stroke-width="3.33" stroke-linecap="round" stroke-linejoin="round"/>
<path d="M18.7535 10.9922L13.7504 22.5L7.5957 14.925" stroke="#FF6C6C" stroke-width="3.33" stroke-linecap="round" stroke-linejoin="round"/>
<path d="M32.4049 14.925L26.2502 22.5L21.2471 10.9922" stroke="#FF6C6C" stroke-width="3.33" stroke-linecap="round" stroke-linejoin="round"/>
<path d="M6.13867 15.582L8.57617 30.2055C8.62497 30.4972 8.77562 30.7621 9.00134 30.9532C9.22706 31.1443 9.51323 31.2492 9.80898 31.2492H30.1902C30.486 31.2492 30.7722 31.1443 30.9979 30.9532C31.2236 30.7621 31.3742 30.4972 31.423 30.2055L33.8605 15.582" stroke="#FF6C6C" stroke-width="3.33" stroke-linecap="round" stroke-linejoin="round"/>
</g>
<defs>
<clipPath id="clip0_63122_8994">
<rect width="40" height="40" fill="white"/>
</clipPath>
</defs>
</svg>
