<svg width="40" height="40" viewBox="0 0 40 40" fill="none" xmlns="http://www.w3.org/2000/svg">
<path d="M3.33301 15.8323C3.33304 13.9776 3.89566 12.1666 4.94656 10.6384C5.99746 9.11017 7.4872 7.93669 9.21902 7.27293C10.9508 6.60916 12.8433 6.48633 14.6464 6.92067C16.4495 7.355 18.0784 8.32606 19.318 9.70559C19.4053 9.79895 19.5109 9.87338 19.6281 9.92426C19.7454 9.97514 19.8719 10.0014 19.9997 10.0014C20.1275 10.0014 20.254 9.97514 20.3712 9.92426C20.4885 9.87338 20.594 9.79895 20.6813 9.70559C21.9171 8.31709 23.5464 7.33787 25.3524 6.89826C27.1584 6.45865 29.0555 6.57951 30.7911 7.24473C32.5268 7.90996 34.0186 9.08801 35.0682 10.6221C36.1178 12.1562 36.6752 13.9735 36.6663 15.8323C36.6663 19.6489 34.1663 22.4989 31.6663 24.9989L22.513 33.8539C22.2025 34.2106 21.8196 34.4971 21.3898 34.6944C20.9599 34.8917 20.4931 34.9953 20.0202 34.9983C19.5472 35.0013 19.0791 34.9037 18.6468 34.7118C18.2146 34.52 17.8281 34.2383 17.513 33.8856L8.33301 24.9989C5.83301 22.4989 3.33301 19.6656 3.33301 15.8323Z" stroke="#FF6C6C" stroke-width="3.33333" stroke-linecap="round" stroke-linejoin="round"/>
</svg>
