<svg width="40" height="40" viewBox="0 0 40 40" fill="none" xmlns="http://www.w3.org/2000/svg">
<path d="M12.4886 32.9864C15.6394 34.81 19.3459 35.4254 22.917 34.718C26.4881 34.0106 29.6801 32.0286 31.8978 29.1416C34.1155 26.2546 35.2076 22.6596 34.9705 19.0268C34.7333 15.3941 33.1831 11.9715 30.6089 9.39732C28.0347 6.82311 24.6122 5.27292 20.9794 5.03578C17.3467 4.79864 13.7516 5.89073 10.8646 8.10845C7.9776 10.3262 5.99563 13.5181 5.28823 17.0892C4.58084 20.6603 5.1963 24.3668 7.01987 27.5176L5.06518 33.3536C4.99173 33.5738 4.98107 33.8102 5.0344 34.0361C5.08772 34.2621 5.20292 34.4687 5.36709 34.6329C5.53126 34.7971 5.73791 34.9123 5.96387 34.9656C6.18983 35.0189 6.42618 35.0083 6.64643 34.9348L12.4886 32.9864Z" stroke="#FF6C6C" stroke-width="3.33" stroke-linecap="round" stroke-linejoin="round"/>
</svg>
