<svg width="40" height="40" viewBox="0 0 40 40" fill="none" xmlns="http://www.w3.org/2000/svg">
<path d="M20 26.25C23.4518 26.25 26.25 23.4518 26.25 20C26.25 16.5482 23.4518 13.75 20 13.75C16.5482 13.75 13.75 16.5482 13.75 20C13.75 23.4518 16.5482 26.25 20 26.25Z" stroke="#FF6C6C" stroke-width="3.33" stroke-linecap="round" stroke-linejoin="round"/>
<path d="M6.47383 27.827C5.78316 26.6373 5.25403 25.361 4.90039 24.0316L7.52227 20.7504C7.49258 20.2487 7.49258 19.7458 7.52227 19.2441L4.90195 15.9629C5.25498 14.6333 5.78304 13.3565 6.47227 12.166L10.6457 11.6973C10.979 11.3218 11.3343 10.9665 11.7098 10.6332L12.1785 6.46133C13.3673 5.77538 14.642 5.25048 15.9691 4.90039L19.2504 7.52227C19.752 7.49258 20.255 7.49258 20.7566 7.52227L24.0379 4.90195C25.3675 5.25498 26.6442 5.78304 27.8348 6.47227L28.3035 10.6457C28.679 10.979 29.0343 11.3343 29.3676 11.7098L33.5395 12.1785C34.2301 13.3681 34.7593 14.6445 35.1129 15.9738L32.491 19.2551C32.5207 19.7567 32.5207 20.2597 32.491 20.7613L35.1113 24.0426C34.7608 25.3718 34.2353 26.6485 33.5488 27.8395L29.3754 28.3082C29.0421 28.6837 28.6868 29.039 28.3113 29.3723L27.8426 33.5441C26.6529 34.2348 25.3766 34.7639 24.0473 35.1176L20.766 32.4957C20.2644 32.5254 19.7614 32.5254 19.2598 32.4957L15.9785 35.116C14.6493 34.7655 13.3726 34.24 12.1816 33.5535L11.7129 29.3801C11.3374 29.0468 10.9821 28.6915 10.6488 28.316L6.47383 27.827Z" stroke="#FF6C6C" stroke-width="3.33" stroke-linecap="round" stroke-linejoin="round"/>
</svg>
