<svg width="669" height="49" viewBox="0 0 669 49" fill="none" xmlns="http://www.w3.org/2000/svg">
<path d="M19.8475 4.99047H3.78594V22.1993H18.2414C18.5473 22.1993 18.8532 22.3523 19.1592 22.6582C19.5416 22.8876 19.7328 23.2318 19.7328 23.6907V24.4938C19.7328 25.1822 19.5416 25.6411 19.1592 25.8705C18.8532 26.1 18.5473 26.2147 18.2414 26.2147H3.78594V45.6033C3.78594 45.9857 3.67122 46.3681 3.44177 46.7505C3.21231 47.0565 2.8299 47.2095 2.29451 47.2095H1.49143C0.497144 47.2095 0 46.6741 0 45.6033V2.58123C0 2.12233 0.114725 1.73991 0.344176 1.43398C0.573627 1.05156 0.956046 0.860352 1.49143 0.860352H19.8475C20.8418 0.860352 21.3389 1.39574 21.3389 2.46651V3.38431C21.3389 3.9197 21.1477 4.34036 20.7653 4.64629C20.4594 4.87574 20.1534 4.99047 19.8475 4.99047Z" fill="black"/>
<path d="M71.4589 47.2095H63.6575C60.7512 47.2095 58.4949 46.3299 56.8887 44.5708C55.2826 42.7352 54.4795 40.0965 54.4795 36.6547V11.4151C54.4795 8.20278 55.2826 5.64058 56.8887 3.72849C58.4949 1.8164 60.7512 0.860352 63.6575 0.860352H71.4589C74.3652 0.860352 76.6598 1.8164 78.3424 3.72849C80.025 5.64058 80.8664 8.20278 80.8664 11.4151V36.6547C80.8664 40.0965 80.025 42.7352 78.3424 44.5708C76.7362 46.3299 74.4417 47.2095 71.4589 47.2095ZM76.9657 11.4151C76.9657 7.13201 75.1301 4.99047 71.4589 4.99047H63.6575C60.0628 4.99047 58.2654 7.13201 58.2654 11.4151V36.54C58.2654 40.8996 60.0628 43.0793 63.6575 43.0793H71.4589C75.1301 43.0793 76.9657 40.8996 76.9657 36.54V11.4151Z" fill="black"/>
<path d="M138.328 47.2095H137.066C136.301 47.2095 135.804 46.9035 135.574 46.2916L128.232 28.6239H118.021V45.6033C118.021 46.6741 117.448 47.2095 116.3 47.2095H115.612C115.23 47.2095 114.847 47.133 114.465 46.98C114.159 46.7505 114.006 46.2916 114.006 45.6033V2.46651C114.006 1.39574 114.541 0.860352 115.612 0.860352H129.379C132.362 0.860352 134.656 1.77816 136.263 3.61376C137.945 5.37289 138.787 7.97333 138.787 11.4151V18.0692C138.787 20.5931 138.251 22.6964 137.18 24.3791C136.186 25.9852 134.503 27.3237 132.132 28.3945L139.36 45.0297C139.437 45.3356 139.475 45.7945 139.475 46.4064C139.551 46.9418 139.169 47.2095 138.328 47.2095ZM135.001 11.4151C135.001 7.05553 133.127 4.87574 129.379 4.87574H118.021V24.4938H129.379C133.127 24.4938 135.001 22.3523 135.001 18.0692V11.4151Z" fill="black"/>
<path d="M192.358 47.2095H174.002C173.084 47.2095 172.625 46.6741 172.625 45.6033V2.58123C172.625 1.43398 173.084 0.860352 174.002 0.860352H192.358C193.352 0.860352 193.849 1.39574 193.849 2.46651V3.38431C193.849 3.9197 193.658 4.34036 193.276 4.64629C192.97 4.87574 192.664 4.99047 192.358 4.99047H176.296V21.5109H190.866C191.172 21.5109 191.478 21.6639 191.784 21.9698C192.167 22.1993 192.358 22.62 192.358 23.2318V24.0349C192.358 25.1057 191.861 25.6411 190.866 25.6411H176.296V43.0793H192.358C193.352 43.0793 193.849 43.6147 193.849 44.6855V45.6033C193.849 46.1387 193.658 46.5593 193.276 46.8653C192.97 47.0947 192.664 47.2095 192.358 47.2095Z" fill="black"/>
<path d="M243.969 45.8327C243.816 46.2152 243.624 46.5593 243.395 46.8653C243.166 47.0947 242.86 47.2095 242.477 47.2095H240.871C240.183 47.2095 239.724 46.9035 239.494 46.2916C239.494 46.1387 239.456 46.0622 239.38 46.0622C239.38 45.9857 239.38 45.9092 239.38 45.8327L227.104 2.69596C226.951 2.31354 226.951 1.93112 227.104 1.5487C227.333 1.0898 227.754 0.860352 228.366 0.860352H229.398C229.857 0.860352 230.163 1.01332 230.316 1.31925C230.469 1.5487 230.622 1.85464 230.775 2.23706L241.674 39.6376L252.344 2.46651L252.688 1.77815V1.5487L253.032 1.20453C253.185 0.975077 253.453 0.860352 253.835 0.860352H254.982C255.594 0.860352 255.977 1.0898 256.13 1.5487C256.283 1.93112 256.283 2.31354 256.13 2.69596L243.969 45.8327Z" fill="black"/>
<path d="M309.117 47.2095H290.76C289.843 47.2095 289.384 46.6741 289.384 45.6033V2.58123C289.384 1.43398 289.843 0.860352 290.76 0.860352H309.117C310.111 0.860352 310.608 1.39574 310.608 2.46651V3.38431C310.608 3.9197 310.417 4.34036 310.034 4.64629C309.728 4.87574 309.423 4.99047 309.117 4.99047H293.055V21.5109H307.625C307.931 21.5109 308.237 21.6639 308.543 21.9698C308.925 22.1993 309.117 22.62 309.117 23.2318V24.0349C309.117 25.1057 308.619 25.6411 307.625 25.6411H293.055V43.0793H309.117C310.111 43.0793 310.608 43.6147 310.608 44.6855V45.6033C310.608 46.1387 310.417 46.5593 310.034 46.8653C309.728 47.0947 309.423 47.2095 309.117 47.2095Z" fill="black"/>
<path d="M368.07 47.2095H366.808C366.043 47.2095 365.546 46.9035 365.316 46.2916L357.974 28.6239H347.763V45.6033C347.763 46.6741 347.19 47.2095 346.043 47.2095H345.354C344.972 47.2095 344.589 47.133 344.207 46.98C343.901 46.7505 343.748 46.2916 343.748 45.6033V2.46651C343.748 1.39574 344.283 0.860352 345.354 0.860352H359.121C362.104 0.860352 364.399 1.77816 366.005 3.61376C367.687 5.37289 368.529 7.97333 368.529 11.4151V18.0692C368.529 20.5931 367.993 22.6964 366.923 24.3791C365.928 25.9852 364.246 27.3237 361.875 28.3945L369.102 45.0297C369.179 45.3356 369.217 45.7945 369.217 46.4064C369.294 46.9418 368.911 47.2095 368.07 47.2095ZM364.743 11.4151C364.743 7.05553 362.869 4.87574 359.121 4.87574H347.763V24.4938H359.121C362.869 24.4938 364.743 22.3523 364.743 18.0692V11.4151Z" fill="black"/>
<path d="M432.769 48.07L430.704 45.546C429.175 47.1522 427.645 47.9553 426.115 47.9553H408.907C407.3 47.9553 405.809 47.2669 404.432 45.8902C403.056 44.437 402.367 42.4867 402.367 40.0392V26.3869C402.367 25.3926 402.444 24.5513 402.597 23.8629C402.826 23.0981 403.17 22.3715 403.629 21.6831C404.165 20.9948 404.853 20.3064 405.694 19.6181C406.612 18.8532 407.798 17.9737 409.251 16.9794C407.186 16.597 405.809 15.9851 405.121 15.1438C404.432 14.226 404.088 13.4994 404.088 12.964V5.62155C404.088 3.86242 404.509 2.48572 405.35 1.49143C406.191 0.497143 407.836 0 410.283 0H419.92C421.832 0 423.171 0.305934 423.936 0.917802C424.7 1.45319 425.121 2.79165 425.198 4.93319L425.427 14.7996C425.427 16.2528 424.624 17.5912 423.018 18.815C421.412 19.9622 419.155 20.5359 416.249 20.5359C418.008 22.5244 419.805 24.6277 421.641 26.8458C423.477 29.0638 425.733 31.8937 428.41 35.3355V28.6814H432.655V40.6128L438.506 48.07H432.769ZM420.953 6.88353C420.953 6.04221 420.8 5.3921 420.494 4.93319C420.264 4.39781 419.614 4.13012 418.543 4.13012H410.742C409.824 4.13012 409.174 4.43605 408.792 5.04792C408.486 5.58331 408.333 6.27166 408.333 7.11298V13.0787C408.333 14.3024 408.601 15.1055 409.136 15.4879C409.748 15.7939 410.436 15.9468 411.201 15.9468H418.543C419.614 15.9468 420.264 15.6027 420.494 14.9143C420.8 14.1495 420.953 13.4611 420.953 12.8493V6.88353ZM410.513 20.7653C409.06 21.1477 408.027 21.9126 407.415 23.0598C406.88 24.1306 406.612 25.5455 406.612 27.3047V40.0392C406.612 40.1922 406.612 40.4599 406.612 40.8423C406.689 41.2247 406.841 41.6454 407.071 42.1043C407.3 42.4867 407.645 42.8691 408.103 43.2515C408.639 43.5574 409.365 43.7104 410.283 43.7104H424.739C425.351 43.7104 425.886 43.5957 426.345 43.3662C426.88 43.1368 427.416 42.6779 427.951 41.9895C424.968 38.2418 422.062 34.6853 419.232 31.3201C416.402 27.9548 413.496 24.4365 410.513 20.7653Z" fill="black"/>
<path d="M491.378 47.2095H473.022C472.104 47.2095 471.646 46.6741 471.646 45.6033V2.58123C471.646 1.43398 472.104 0.860352 473.022 0.860352H491.378C492.373 0.860352 492.87 1.39574 492.87 2.46651V3.38431C492.87 3.9197 492.679 4.34036 492.296 4.64629C491.99 4.87574 491.684 4.99047 491.378 4.99047H475.317V21.5109H489.887C490.193 21.5109 490.499 21.6639 490.805 21.9698C491.187 22.1993 491.378 22.62 491.378 23.2318V24.0349C491.378 25.1057 490.881 25.6411 489.887 25.6411H475.317V43.0793H491.378C492.373 43.0793 492.87 43.6147 492.87 44.6855V45.6033C492.87 46.1387 492.679 46.5593 492.296 46.8653C491.99 47.0947 491.684 47.2095 491.378 47.2095Z" fill="black"/>
<path d="M542.989 45.8327C542.836 46.2152 542.645 46.5593 542.416 46.8653C542.186 47.0947 541.88 47.2095 541.498 47.2095H539.892C539.203 47.2095 538.744 46.9035 538.515 46.2916C538.515 46.1387 538.477 46.0622 538.4 46.0622C538.4 45.9857 538.4 45.9092 538.4 45.8327L526.124 2.69596C525.972 2.31354 525.972 1.93112 526.124 1.5487C526.354 1.0898 526.775 0.860352 527.386 0.860352H528.419C528.878 0.860352 529.184 1.01332 529.337 1.31925C529.49 1.5487 529.643 1.85464 529.796 2.23706L540.695 39.6376L551.364 2.46651L551.708 1.77815V1.5487L552.052 1.20453C552.205 0.975077 552.473 0.860352 552.856 0.860352H554.003C554.615 0.860352 554.997 1.0898 555.15 1.5487C555.303 1.93112 555.303 2.31354 555.15 2.69596L542.989 45.8327Z" fill="black"/>
<path d="M608.138 47.2095H589.782C588.864 47.2095 588.405 46.6741 588.405 45.6033V2.58123C588.405 1.43398 588.864 0.860352 589.782 0.860352H608.138C609.132 0.860352 609.629 1.39574 609.629 2.46651V3.38431C609.629 3.9197 609.438 4.34036 609.056 4.64629C608.75 4.87574 608.444 4.99047 608.138 4.99047H592.076V21.5109H606.647C606.953 21.5109 607.258 21.6639 607.564 21.9698C607.947 22.1993 608.138 22.62 608.138 23.2318V24.0349C608.138 25.1057 607.641 25.6411 606.647 25.6411H592.076V43.0793H608.138C609.132 43.0793 609.629 43.6147 609.629 44.6855V45.6033C609.629 46.1387 609.438 46.5593 609.056 46.8653C608.75 47.0947 608.444 47.2095 608.138 47.2095Z" fill="black"/>
<path d="M667.091 47.2095H665.829C665.065 47.2095 664.567 46.9035 664.338 46.2916L656.995 28.6239H646.785V45.6033C646.785 46.6741 646.211 47.2095 645.064 47.2095H644.376C643.993 47.2095 643.611 47.133 643.228 46.98C642.922 46.7505 642.77 46.2916 642.77 45.6033V2.46651C642.77 1.39574 643.305 0.860352 644.376 0.860352H658.143C661.126 0.860352 663.42 1.77816 665.026 3.61376C666.709 5.37289 667.55 7.97333 667.55 11.4151V18.0692C667.55 20.5931 667.015 22.6964 665.944 24.3791C664.95 25.9852 663.267 27.3237 660.896 28.3945L668.124 45.0297C668.2 45.3356 668.239 45.7945 668.239 46.4064C668.315 46.9418 667.933 47.2095 667.091 47.2095ZM663.764 11.4151C663.764 7.05553 661.89 4.87574 658.143 4.87574H646.785V24.4938H658.143C661.89 24.4938 663.764 22.3523 663.764 18.0692V11.4151Z" fill="black"/>
</svg>
