<svg width="40" height="40" viewBox="0 0 40 40" fill="none" xmlns="http://www.w3.org/2000/svg">
<g clip-path="url(#clip0_63212_8587)">
<path d="M28.75 5H11.25C10.587 5 9.95107 5.26339 9.48223 5.73223C9.01339 6.20107 8.75 6.83696 8.75 7.5V35C8.75011 35.2231 8.80992 35.4421 8.92322 35.6342C9.03651 35.8264 9.19917 35.9847 9.39431 36.0928C9.58945 36.2009 9.80997 36.2548 10.033 36.2489C10.256 36.2431 10.4733 36.1776 10.6625 36.0594L20 30.2234L29.3391 36.0594C29.5282 36.1772 29.7454 36.2423 29.9682 36.248C30.1909 36.2537 30.4112 36.1997 30.6061 36.0916C30.801 35.9836 30.9634 35.8254 31.0766 35.6335C31.1899 35.4416 31.2497 35.2228 31.25 35V7.5C31.25 6.83696 30.9866 6.20107 30.5178 5.73223C30.0489 5.26339 29.413 5 28.75 5Z" fill="#FF6C6C"/>
</g>
<defs>
<clipPath id="clip0_63212_8587">
<rect width="40" height="40" fill="white"/>
</clipPath>
</defs>
</svg>
