<svg width="40" height="40" viewBox="0 0 40 40" fill="none" xmlns="http://www.w3.org/2000/svg">
<g clip-path="url(#clip0_62697_2034)">
<path d="M30 11.25V28.75C30 29.413 29.7366 30.0489 29.2678 30.5178C28.7989 30.9866 28.163 31.25 27.5 31.25H5C4.33696 31.25 3.70107 30.9866 3.23223 30.5178C2.76339 30.0489 2.5 29.413 2.5 28.75V11.25C2.5 10.587 2.76339 9.95107 3.23223 9.48223C3.70107 9.01339 4.33696 8.75 5 8.75H27.5C28.163 8.75 28.7989 9.01339 29.2678 9.48223C29.7366 9.95107 30 10.587 30 11.25ZM39.0625 11.2891C38.8862 11.2459 38.7027 11.2406 38.5241 11.2734C38.3456 11.3063 38.176 11.3766 38.0266 11.4797L32.7781 14.9781C32.6925 15.0352 32.6223 15.1126 32.5738 15.2034C32.5253 15.2942 32.4999 15.3955 32.5 15.4984V24.5016C32.4999 24.6045 32.5253 24.7058 32.5738 24.7966C32.6223 24.8874 32.6925 24.9648 32.7781 25.0219L38.0563 28.5406C38.2538 28.6724 38.4848 28.7452 38.7222 28.7505C38.9597 28.7557 39.1937 28.6932 39.3969 28.5703C39.5849 28.4508 39.7391 28.285 39.8447 28.0889C39.9503 27.8927 40.0037 27.6727 40 27.45V12.5C40.0001 12.2228 39.9081 11.9534 39.7384 11.7342C39.5687 11.5149 39.3309 11.3584 39.0625 11.2891Z" fill="#FF6C6C"/>
</g>
<defs>
<clipPath id="clip0_62697_2034">
<rect width="40" height="40" fill="white"/>
</clipPath>
</defs>
</svg>
