<svg width="40" height="40" viewBox="0 0 40 40" fill="none" xmlns="http://www.w3.org/2000/svg">
<g clip-path="url(#clip0_62967_3149)">
<path d="M27.5 2.5H12.5C11.5054 2.5 10.5516 2.89509 9.84835 3.59835C9.14509 4.30161 8.75 5.25544 8.75 6.25V33.75C8.75 34.7446 9.14509 35.6984 9.84835 36.4016C10.5516 37.1049 11.5054 37.5 12.5 37.5H27.5C28.4946 37.5 29.4484 37.1049 30.1517 36.4016C30.8549 35.6984 31.25 34.7446 31.25 33.75V6.25C31.25 5.25544 30.8549 4.30161 30.1517 3.59835C29.4484 2.89509 28.4946 2.5 27.5 2.5ZM20 11.25C19.6292 11.25 19.2666 11.14 18.9583 10.934C18.65 10.728 18.4096 10.4351 18.2677 10.0925C18.1258 9.74992 18.0887 9.37292 18.161 9.00921C18.2334 8.64549 18.412 8.3114 18.6742 8.04917C18.9364 7.78695 19.2705 7.60837 19.6342 7.53603C19.9979 7.46368 20.3749 7.50081 20.7175 7.64273C21.0601 7.78464 21.353 8.02496 21.559 8.33331C21.765 8.64165 21.875 9.00416 21.875 9.375C21.875 9.87228 21.6775 10.3492 21.3258 10.7008C20.9742 11.0525 20.4973 11.25 20 11.25Z" fill="#FF6C6C"/>
</g>
<defs>
<clipPath id="clip0_62967_3149">
<rect width="40" height="40" fill="white"/>
</clipPath>
</defs>
</svg>
