<svg width="40" height="40" viewBox="0 0 40 40" fill="none" xmlns="http://www.w3.org/2000/svg">
<g clip-path="url(#clip0_62781_2582)">
<path d="M37.5 20.0008C37.501 20.4252 37.3922 20.8427 37.1841 21.2126C36.976 21.5825 36.6758 21.8922 36.3125 22.1117L13.8 35.8836C13.4204 36.116 12.9857 36.2429 12.5407 36.2511C12.0958 36.2594 11.6566 36.1487 11.2688 35.9305C10.8845 35.7157 10.5645 35.4024 10.3415 35.0229C10.1185 34.6433 10.0006 34.2113 10 33.7711V6.23047C10.0006 5.79029 10.1185 5.35822 10.3415 4.9787C10.5645 4.59918 10.8845 4.28591 11.2688 4.07109C11.6566 3.85289 12.0958 3.74219 12.5407 3.75043C12.9857 3.75867 13.4204 3.88555 13.8 4.11797L36.3125 17.8898C36.6758 18.1093 36.976 18.4191 37.1841 18.789C37.3922 19.1589 37.501 19.5764 37.5 20.0008Z" fill="#FF6C6C"/>
</g>
<defs>
<clipPath id="clip0_62781_2582">
<rect width="40" height="40" fill="white"/>
</clipPath>
</defs>
</svg>
