<svg width="40" height="40" viewBox="0 0 40 40" fill="none" xmlns="http://www.w3.org/2000/svg">
<g clip-path="url(#clip0_62642_13047)">
<path d="M33.75 6.25H6.25C5.58696 6.25 4.95107 6.51339 4.48223 6.98223C4.01339 7.45107 3.75 8.08696 3.75 8.75V31.25C3.75 31.913 4.01339 32.5489 4.48223 33.0178C4.95107 33.4866 5.58696 33.75 6.25 33.75H33.75C34.413 33.75 35.0489 33.4866 35.5178 33.0178C35.9866 32.5489 36.25 31.913 36.25 31.25V8.75C36.25 8.08696 35.9866 7.45107 35.5178 6.98223C35.0489 6.51339 34.413 6.25 33.75 6.25ZM32.1344 13.3844L17.1344 28.3844C17.0183 28.5006 16.8804 28.5928 16.7287 28.6557C16.5769 28.7186 16.4143 28.751 16.25 28.751C16.0857 28.751 15.9231 28.7186 15.7713 28.6557C15.6196 28.5928 15.4817 28.5006 15.3656 28.3844L9.11562 22.1344C8.88107 21.8998 8.7493 21.5817 8.7493 21.25C8.7493 20.9183 8.88107 20.6002 9.11562 20.3656C9.35018 20.1311 9.66829 19.9993 10 19.9993C10.3317 19.9993 10.6498 20.1311 10.8844 20.3656L16.25 25.7328L30.3656 11.6156C30.6002 11.3811 30.9183 11.2493 31.25 11.2493C31.5817 11.2493 31.8998 11.3811 32.1344 11.6156C32.3689 11.8502 32.5007 12.1683 32.5007 12.5C32.5007 12.8317 32.3689 13.1498 32.1344 13.3844Z" fill="#FF6C6C"/>
</g>
<defs>
<clipPath id="clip0_62642_13047">
<rect width="40" height="40" fill="white"/>
</clipPath>
</defs>
</svg>
