<svg width="40" height="40" viewBox="0 0 40 40" fill="none" xmlns="http://www.w3.org/2000/svg">
<g clip-path="url(#clip0_62535_626)">
<path d="M32.5 12.5H27.5V8.75C27.5 6.76088 26.7098 4.85322 25.3033 3.4467C23.8968 2.04018 21.9891 1.25 20 1.25C18.0109 1.25 16.1032 2.04018 14.6967 3.4467C13.2902 4.85322 12.5 6.76088 12.5 8.75V12.5H7.5C6.83696 12.5 6.20107 12.7634 5.73223 13.2322C5.26339 13.7011 5 14.337 5 15V32.5C5 33.163 5.26339 33.7989 5.73223 34.2678C6.20107 34.7366 6.83696 35 7.5 35H32.5C33.163 35 33.7989 34.7366 34.2678 34.2678C34.7366 33.7989 35 33.163 35 32.5V15C35 14.337 34.7366 13.7011 34.2678 13.2322C33.7989 12.7634 33.163 12.5 32.5 12.5ZM15 8.75C15 7.42392 15.5268 6.15215 16.4645 5.21447C17.4021 4.27678 18.6739 3.75 20 3.75C21.3261 3.75 22.5979 4.27678 23.5355 5.21447C24.4732 6.15215 25 7.42392 25 8.75V12.5H15V8.75Z" fill="#FF6C6C"/>
</g>
<defs>
<clipPath id="clip0_62535_626">
<rect width="40" height="40" fill="white"/>
</clipPath>
</defs>
</svg>
