<svg width="40" height="40" viewBox="0 0 40 40" fill="none" xmlns="http://www.w3.org/2000/svg">
<g clip-path="url(#clip0_63230_9447)">
<path d="M20 3.75C16.7861 3.75 13.6443 4.70305 10.972 6.48862C8.29969 8.27419 6.21689 10.8121 4.98696 13.7814C3.75704 16.7507 3.43524 20.018 4.06225 23.1702C4.68926 26.3224 6.23692 29.2179 8.50952 31.4905C10.7821 33.7631 13.6776 35.3107 16.8298 35.9378C19.982 36.5648 23.2493 36.243 26.2186 35.013C29.1879 33.7831 31.7258 31.7003 33.5114 29.028C35.297 26.3557 36.25 23.2139 36.25 20C36.2455 15.6916 34.5319 11.561 31.4855 8.51454C28.439 5.46806 24.3084 3.75455 20 3.75ZM14.375 15C14.7458 15 15.1084 15.11 15.4167 15.316C15.725 15.522 15.9654 15.8149 16.1073 16.1575C16.2492 16.5001 16.2863 16.8771 16.214 17.2408C16.1416 17.6045 15.9631 17.9386 15.7008 18.2008C15.4386 18.463 15.1045 18.6416 14.7408 18.714C14.3771 18.7863 14.0001 18.7492 13.6575 18.6073C13.3149 18.4654 13.022 18.225 12.816 17.9167C12.61 17.6084 12.5 17.2458 12.5 16.875C12.5 16.3777 12.6976 15.9008 13.0492 15.5492C13.4008 15.1975 13.8777 15 14.375 15ZM27.3313 24.375C25.7234 27.1547 23.0516 28.75 20 28.75C16.9484 28.75 14.2766 27.1562 12.6688 24.375C12.5783 24.2327 12.5176 24.0736 12.4902 23.9073C12.4629 23.7409 12.4694 23.5708 12.5095 23.407C12.5497 23.2433 12.6225 23.0893 12.7236 22.9545C12.8248 22.8196 12.9521 22.7066 13.0981 22.6222C13.2441 22.5378 13.4056 22.4839 13.5729 22.4635H26.4271C26.5944 22.4839 26.756 22.5378 26.9019 22.6222C27.0479 22.7066 27.1753 22.8196 27.2764 22.9545C27.3775 23.0893 27.4504 23.2433 27.4905 23.407C27.5306 23.5708 27.5371 23.7409 27.5098 23.9073C27.4824 24.0736 27.4217 24.2327 27.3313 24.375ZM25.625 18.75C25.2542 18.75 24.8917 18.64 24.5833 18.434C24.275 18.228 24.0346 17.9351 23.8927 17.5925C23.7508 17.2499 23.7137 16.8729 23.786 16.5092C23.8584 16.1455 24.037 15.8114 24.2992 15.5492C24.5614 15.287 24.8955 15.1084 25.2592 15.036C25.6229 14.9637 25.9999 15.0008 26.3425 15.1427C26.6851 15.2846 26.978 15.525 27.184 15.8333C27.39 16.1416 27.5 16.5042 27.5 16.875C27.5 17.3723 27.3025 17.8492 26.9508 18.2008C26.5992 18.5525 26.1223 18.75 25.625 18.75Z" fill="#FF6C6C"/>
</g>
<defs>
<clipPath id="clip0_63230_9447">
<rect width="40" height="40" fill="white"/>
</clipPath>
</defs>
</svg>
