<svg width="40" height="40" viewBox="0 0 40 40" fill="none" xmlns="http://www.w3.org/2000/svg">
<g clip-path="url(#clip0_62721_1894)">
<path d="M35.5172 11.4633L28.5359 4.48048C28.3038 4.24827 28.0282 4.06408 27.7248 3.9384C27.4215 3.81273 27.0963 3.74805 26.768 3.74805C26.4396 3.74805 26.1145 3.81273 25.8111 3.9384C25.5078 4.06408 25.2322 4.24827 25 4.48048L5.73282 23.7492C5.49967 23.9805 5.31481 24.2559 5.18901 24.5593C5.06321 24.8626 4.99896 25.188 5.00001 25.5164V32.4992C5.00001 33.1623 5.2634 33.7982 5.73225 34.267C6.20109 34.7358 6.83697 34.9992 7.50001 34.9992H14.4828C14.8113 35.0003 15.1366 34.936 15.44 34.8102C15.7434 34.6844 16.0187 34.4996 16.25 34.2664L35.5172 14.9992C35.7494 14.7671 35.9336 14.4915 36.0593 14.1881C36.185 13.8848 36.2496 13.5596 36.2496 13.2313C36.2496 12.9029 36.185 12.5778 36.0593 12.2744C35.9336 11.9711 35.7494 11.6954 35.5172 11.4633ZM30 16.9805L23.0172 9.99923L26.7672 6.24923L33.75 13.2305L30 16.9805Z" fill="#FF6C6C"/>
</g>
<defs>
<clipPath id="clip0_62721_1894">
<rect width="40" height="40" fill="white"/>
</clipPath>
</defs>
</svg>
