<svg width="40" height="40" viewBox="0 0 40 40" fill="none" xmlns="http://www.w3.org/2000/svg">
<g clip-path="url(#clip0_63211_9685)">
<path d="M34.6564 27.4906C33.7892 25.9969 32.5001 21.7703 32.5001 16.25C32.5001 12.9348 31.1832 9.75537 28.839 7.41117C26.4948 5.06696 23.3153 3.75 20.0001 3.75C16.6849 3.75 13.5055 5.06696 11.1613 7.41117C8.8171 9.75537 7.50014 12.9348 7.50014 16.25C7.50014 21.7719 6.20952 25.9969 5.34233 27.4906C5.12088 27.8704 5.00348 28.3018 5.00197 28.7414C5.00046 29.181 5.11489 29.6133 5.33373 29.9945C5.55257 30.3758 5.86808 30.6926 6.24843 30.913C6.62878 31.1334 7.06054 31.2497 7.50014 31.25H13.8767C14.1651 32.6612 14.9321 33.9294 16.0478 34.8403C17.1636 35.7511 18.5598 36.2486 20.0001 36.2486C21.4405 36.2486 22.8366 35.7511 23.9524 34.8403C25.0682 33.9294 25.8352 32.6612 26.1236 31.25H32.5001C32.9396 31.2494 33.3712 31.133 33.7513 30.9124C34.1314 30.6919 34.4467 30.3751 34.6654 29.9938C34.884 29.6126 34.9983 29.1805 34.9968 28.741C34.9952 28.3016 34.8778 27.8703 34.6564 27.4906ZM20.0001 33.75C19.2249 33.7498 18.4687 33.5092 17.8358 33.0615C17.2028 32.6138 16.7242 31.9809 16.4658 31.25H23.5345C23.2761 31.9809 22.7975 32.6138 22.1645 33.0615C21.5316 33.5092 20.7754 33.7498 20.0001 33.75Z" fill="#FF6C6C"/>
</g>
<defs>
<clipPath id="clip0_63211_9685">
<rect width="40" height="40" fill="white"/>
</clipPath>
</defs>
</svg>
