<svg width="40" height="40" viewBox="0 0 40 40" fill="none" xmlns="http://www.w3.org/2000/svg">
<g clip-path="url(#clip0_62687_813)">
<path d="M36 34.248C36.1397 34.4337 36.2249 34.6547 36.246 34.8861C36.2671 35.1176 36.2233 35.3503 36.1194 35.5582C36.0155 35.7661 35.8557 35.941 35.658 36.0631C35.4603 36.1852 35.2324 36.2498 35 36.2496H5C4.76786 36.2496 4.54031 36.1849 4.34284 36.0629C4.14537 35.9408 3.98578 35.7662 3.88197 35.5586C3.77815 35.3509 3.7342 35.1185 3.75505 34.8873C3.7759 34.6561 3.86072 34.4353 4 34.2496C5.10685 32.7656 6.58285 31.5972 8.28125 30.8605C7.35028 30.0108 6.69796 28.8995 6.40992 27.6724C6.12188 26.4454 6.21158 25.1599 6.66724 23.9847C7.1229 22.8095 7.92323 21.7996 8.96318 21.0874C10.0031 20.3752 11.2341 19.9941 12.4945 19.9941C13.755 19.9941 14.9859 20.3752 16.0259 21.0874C17.0658 21.7996 17.8662 22.8095 18.3218 23.9847C18.7775 25.1599 18.8672 26.4454 18.5791 27.6724C18.2911 28.8995 17.6388 30.0108 16.7078 30.8605C17.9332 31.3901 19.0467 32.1479 19.9891 33.0933C20.9315 32.1479 22.045 31.3901 23.2703 30.8605C22.3393 30.0108 21.687 28.8995 21.399 27.6724C21.1109 26.4454 21.2006 25.1599 21.6563 23.9847C22.112 22.8095 22.9123 21.7996 23.9522 21.0874C24.9922 20.3752 26.2232 19.9941 27.4836 19.9941C28.744 19.9941 29.975 20.3752 31.0149 21.0874C32.0549 21.7996 32.8552 22.8095 33.3109 23.9847C33.7665 25.1599 33.8562 26.4454 33.5682 27.6724C33.2802 28.8995 32.6278 30.0108 31.6969 30.8605C33.4032 31.5933 34.8871 32.7614 36 34.248ZM4.25 19.7496C4.38132 19.8481 4.53076 19.9197 4.68977 19.9605C4.84879 20.0012 5.01427 20.0102 5.17678 19.987C5.33928 19.9638 5.49562 19.9088 5.63687 19.8252C5.77812 19.7415 5.90151 19.6309 6 19.4996C6.75682 18.4905 7.73819 17.6714 8.86639 17.1073C9.99459 16.5432 11.2386 16.2496 12.5 16.2496C13.7614 16.2496 15.0054 16.5432 16.1336 17.1073C17.2618 17.6714 18.2432 18.4905 19 19.4996C19.1164 19.6548 19.2674 19.7808 19.441 19.8676C19.6146 19.9544 19.8059 19.9996 20 19.9996C20.1941 19.9996 20.3854 19.9544 20.559 19.8676C20.7326 19.7808 20.8836 19.6548 21 19.4996C21.7568 18.4905 22.7382 17.6714 23.8664 17.1073C24.9946 16.5432 26.2386 16.2496 27.5 16.2496C28.7614 16.2496 30.0054 16.5432 31.1336 17.1073C32.2618 17.6714 33.2432 18.4905 34 19.4996C34.0986 19.6309 34.2221 19.7415 34.3634 19.8251C34.5048 19.9087 34.6612 19.9636 34.8238 19.9868C34.9863 20.0099 35.1519 20.0008 35.3109 19.96C35.47 19.9191 35.6195 19.8474 35.7508 19.7488C35.8821 19.6502 35.9927 19.5267 36.0763 19.3853C36.1599 19.244 36.2148 19.0876 36.238 18.925C36.2611 18.7624 36.252 18.5969 36.2112 18.4378C36.1704 18.2788 36.0986 18.1293 36 17.998C34.8931 16.5145 33.4171 15.3466 31.7188 14.6105C32.6497 13.7608 33.302 12.6495 33.5901 11.4224C33.8781 10.1954 33.7884 8.90987 33.3328 7.73469C32.8771 6.55951 32.0768 5.54955 31.0368 4.83739C29.9969 4.12523 28.7659 3.74414 27.5055 3.74414C26.245 3.74414 25.0141 4.12523 23.9741 4.83739C22.9342 5.54955 22.1338 6.55951 21.6782 7.73469C21.2225 8.90987 21.1328 10.1954 21.4209 11.4224C21.7089 12.6495 22.3612 13.7608 23.2922 14.6105C22.0668 15.1401 20.9533 15.8979 20.0109 16.8433C19.0685 15.8979 17.955 15.1401 16.7297 14.6105C17.6607 13.7608 18.313 12.6495 18.601 11.4224C18.8891 10.1954 18.7994 8.90987 18.3437 7.73469C17.888 6.55951 17.0877 5.54955 16.0478 4.83739C15.0078 4.12523 13.7768 3.74414 12.5164 3.74414C11.256 3.74414 10.025 4.12523 8.98505 4.83739C7.9451 5.54955 7.14477 6.55951 6.68911 7.73469C6.23345 8.90987 6.14376 10.1954 6.4318 11.4224C6.71984 12.6495 7.37215 13.7608 8.30313 14.6105C6.59675 15.3439 5.1129 16.5126 4 17.9996C3.90151 18.1309 3.82985 18.2803 3.78911 18.4393C3.74837 18.5984 3.73935 18.7638 3.76256 18.9263C3.78578 19.0888 3.84077 19.2452 3.92441 19.3864C4.00804 19.5277 4.11868 19.6511 4.25 19.7496Z" fill="#FF6C6C"/>
</g>
<defs>
<clipPath id="clip0_62687_813">
<rect width="40" height="40" fill="white"/>
</clipPath>
</defs>
</svg>
