<svg width="40" height="40" viewBox="0 0 40 40" fill="none" xmlns="http://www.w3.org/2000/svg">
<g clip-path="url(#clip0_62714_22459)">
<path d="M32.4966 22.5C32.4998 23.0097 32.3449 23.5078 32.0533 23.9258C31.7618 24.3439 31.3478 24.6613 30.8685 24.8344L22.8091 27.8125L19.8403 35.8781C19.6645 36.3557 19.3465 36.7679 18.929 37.0591C18.5116 37.3502 18.0149 37.5064 17.506 37.5064C16.997 37.5064 16.5003 37.3502 16.0829 37.0591C15.6655 36.7679 15.3474 36.3557 15.1716 35.8781L12.1841 27.8125L4.11846 24.8438C3.64085 24.6679 3.22866 24.3499 2.9375 23.9324C2.64634 23.515 2.49023 23.0183 2.49023 22.5094C2.49023 22.0004 2.64634 21.5037 2.9375 21.0863C3.22866 20.6689 3.64085 20.3508 4.11846 20.175L12.1841 17.1875L15.1528 9.12188C15.3286 8.64426 15.6467 8.23207 16.0641 7.94092C16.4816 7.64976 16.9783 7.49365 17.4872 7.49365C17.9962 7.49365 18.4928 7.64976 18.9103 7.94092C19.3277 8.23207 19.6458 8.64426 19.8216 9.12188L22.8091 17.1875L30.8747 20.1562C31.3544 20.3309 31.7681 20.6502 32.0586 21.07C32.3491 21.4898 32.5022 21.9895 32.4966 22.5ZM23.7466 7.5H26.2466V10C26.2466 10.3315 26.3783 10.6495 26.6127 10.8839C26.8471 11.1183 27.1651 11.25 27.4966 11.25C27.8281 11.25 28.146 11.1183 28.3805 10.8839C28.6149 10.6495 28.7466 10.3315 28.7466 10V7.5H31.2466C31.5781 7.5 31.896 7.3683 32.1305 7.13388C32.3649 6.89946 32.4966 6.58152 32.4966 6.25C32.4966 5.91848 32.3649 5.60054 32.1305 5.36612C31.896 5.1317 31.5781 5 31.2466 5H28.7466V2.5C28.7466 2.16848 28.6149 1.85054 28.3805 1.61612C28.146 1.3817 27.8281 1.25 27.4966 1.25C27.1651 1.25 26.8471 1.3817 26.6127 1.61612C26.3783 1.85054 26.2466 2.16848 26.2466 2.5V5H23.7466C23.4151 5 23.0971 5.1317 22.8627 5.36612C22.6283 5.60054 22.4966 5.91848 22.4966 6.25C22.4966 6.58152 22.6283 6.89946 22.8627 7.13388C23.0971 7.3683 23.4151 7.5 23.7466 7.5ZM37.4966 12.5H36.2466V11.25C36.2466 10.9185 36.1149 10.6005 35.8805 10.3661C35.646 10.1317 35.3281 10 34.9966 10C34.6651 10 34.3471 10.1317 34.1127 10.3661C33.8783 10.6005 33.7466 10.9185 33.7466 11.25V12.5H32.4966C32.1651 12.5 31.8471 12.6317 31.6127 12.8661C31.3783 13.1005 31.2466 13.4185 31.2466 13.75C31.2466 14.0815 31.3783 14.3995 31.6127 14.6339C31.8471 14.8683 32.1651 15 32.4966 15H33.7466V16.25C33.7466 16.5815 33.8783 16.8995 34.1127 17.1339C34.3471 17.3683 34.6651 17.5 34.9966 17.5C35.3281 17.5 35.646 17.3683 35.8805 17.1339C36.1149 16.8995 36.2466 16.5815 36.2466 16.25V15H37.4966C37.8281 15 38.146 14.8683 38.3805 14.6339C38.6149 14.3995 38.7466 14.0815 38.7466 13.75C38.7466 13.4185 38.6149 13.1005 38.3805 12.8661C38.146 12.6317 37.8281 12.5 37.4966 12.5Z" fill="#FF6C6C"/>
</g>
<defs>
<clipPath id="clip0_62714_22459">
<rect width="40" height="40" fill="white"/>
</clipPath>
</defs>
</svg>
