<svg width="40" height="40" viewBox="0 0 40 40" fill="none" xmlns="http://www.w3.org/2000/svg">
<path d="M38.5028 15.8848L34.7642 8.40475C34.6264 8.12943 34.4358 7.88394 34.2032 7.6823C33.9706 7.48066 33.7006 7.32681 33.4085 7.22954C33.1164 7.13227 32.808 7.09349 32.501 7.11542C32.1939 7.13734 31.8942 7.21953 31.6189 7.3573L27.9755 9.17825L20.3006 7.14781C20.1037 7.09656 19.8969 7.09656 19.7 7.14781L12.025 9.17825L8.38169 7.3573C8.10639 7.21953 7.80666 7.13734 7.4996 7.11542C7.19254 7.09349 6.88416 7.13227 6.59209 7.22954C6.30002 7.32681 6.02997 7.48066 5.79736 7.6823C5.56475 7.88394 5.37414 8.12943 5.23642 8.40475L1.49783 15.8834C1.36006 16.1587 1.27787 16.4584 1.25595 16.7655C1.23403 17.0725 1.27281 17.3809 1.37008 17.673C1.46734 17.965 1.62119 18.2351 1.82283 18.4677C2.02448 18.7003 2.26997 18.8909 2.54528 19.0286L6.50068 21.0078L14.6297 26.8134C14.7495 26.8987 14.8842 26.9608 15.0268 26.9966L24.4025 29.3405C24.5988 29.3897 24.8046 29.3873 24.9997 29.3334C25.1948 29.2795 25.3727 29.1759 25.5159 29.0329L31.3757 23.173L33.5849 20.9639L37.4553 19.0286C38.0109 18.7505 38.4334 18.2631 38.6298 17.6736C38.8262 17.0841 38.7805 16.4407 38.5028 15.8848ZM30.4616 20.7734L25.4206 16.736C25.1948 16.5551 24.9101 16.4642 24.6212 16.4807C24.3324 16.4972 24.0598 16.62 23.8561 16.8253C21.247 19.4535 18.339 19.1209 16.4844 17.949L22.8189 11.7961H27.4789L31.4651 19.767L30.4616 20.7734ZM24.3278 26.9057L15.8134 24.7772L8.60583 19.6293L12.7077 11.4255L20.0003 9.49321L21.436 9.87264L14.8436 16.2716L14.8319 16.2848C14.5838 16.5329 14.3945 16.8336 14.2781 17.1647C14.1617 17.4958 14.1211 17.8488 14.1593 18.1976C14.1976 18.5465 14.3137 18.8823 14.4991 19.1803C14.6844 19.4783 14.9344 19.7308 15.2304 19.9193C18.2423 21.8428 21.8769 21.5308 24.7394 19.1869L28.7901 22.4405L24.3278 26.9057ZM20.5599 32.0038C20.4966 32.2571 20.3505 32.482 20.1448 32.6428C19.9391 32.8037 19.6857 32.8912 19.4246 32.8916C19.3283 32.8914 19.2323 32.8796 19.1389 32.8564L13.0285 31.3285C12.8858 31.2932 12.751 31.2311 12.6315 31.1453L8.77137 28.3883C8.53402 28.2019 8.3777 27.9312 8.33496 27.6325C8.29222 27.3337 8.36636 27.03 8.54194 26.7846C8.71752 26.5392 8.981 26.3709 9.27753 26.3149C9.57405 26.2589 9.88076 26.3194 10.1338 26.4838L13.8123 29.112L19.7073 30.5828C20.0088 30.6582 20.268 30.8503 20.4278 31.1168C20.5877 31.3832 20.6352 31.7023 20.5599 32.0038Z" fill="#FF6C6C"/>
</svg>
