<svg width="40" height="40" viewBox="0 0 40 40" fill="none" xmlns="http://www.w3.org/2000/svg">
<g clip-path="url(#clip0_62616_13290)">
<path d="M25.6985 30.5671C25.8215 30.7557 25.8912 30.974 25.9004 31.199C25.9096 31.424 25.8578 31.6472 25.7506 31.8452C25.6433 32.0432 25.4846 32.2086 25.2912 32.3238C25.0977 32.439 24.8768 32.4999 24.6516 32.4999H1.59848C1.37332 32.4999 1.15234 32.439 0.958902 32.3238C0.765462 32.2086 0.606739 32.0432 0.499503 31.8452C0.392266 31.6472 0.340499 31.424 0.34967 31.199C0.358841 30.974 0.42861 30.7557 0.551605 30.5671C2.31115 27.8587 4.89925 25.7918 7.92973 24.6749C6.25441 23.5596 4.9825 21.9347 4.30207 20.0406C3.62164 18.1465 3.56883 16.0837 4.15143 14.1572C4.73404 12.2308 5.92114 10.543 7.53719 9.34338C9.15323 8.14378 11.1124 7.49609 13.125 7.49609C15.1377 7.49609 17.0969 8.14378 18.7129 9.34338C20.3289 10.543 21.516 12.2308 22.0987 14.1572C22.6813 16.0837 22.6284 18.1465 21.948 20.0406C21.2676 21.9347 19.9957 23.5596 18.3204 24.6749C21.3508 25.7918 23.9389 27.8587 25.6985 30.5671ZM39.4344 30.5436C37.6744 27.8467 35.0921 25.7887 32.0704 24.6749C34.0481 23.3426 35.4439 21.3068 35.9736 18.9817C36.5032 16.6566 36.1269 14.2171 34.9213 12.1596C33.7157 10.1022 31.7713 8.58152 29.484 7.90713C27.1967 7.23274 24.7384 7.45533 22.6094 8.52959C22.528 8.57162 22.4568 8.63104 22.4009 8.70363C22.345 8.77623 22.3058 8.86022 22.286 8.94967C22.2661 9.03912 22.2662 9.13183 22.2862 9.22125C22.3062 9.31066 22.3456 9.39459 22.4016 9.46709C23.9847 11.4418 24.8938 13.8715 24.9959 16.4004C25.098 18.9293 24.3876 21.4244 22.9688 23.5202C22.8771 23.6572 22.8432 23.8248 22.8745 23.9867C22.9058 24.1485 22.9998 24.2914 23.136 24.3843C24.9858 25.6753 26.5694 27.3109 27.8 29.2015C28.2964 29.9615 28.4991 30.8763 28.3704 31.7749C28.3559 31.8643 28.361 31.9558 28.3853 32.043C28.4097 32.1302 28.4527 32.2111 28.5114 32.28C28.5701 32.349 28.6431 32.4044 28.7253 32.4423C28.8075 32.4803 28.897 32.4999 28.9875 32.4999H38.4094C38.6847 32.5 38.9522 32.4092 39.1706 32.2417C39.389 32.0741 39.546 31.8392 39.6172 31.5733C39.6607 31.3985 39.6669 31.2164 39.6354 31.039C39.6039 30.8616 39.5354 30.6929 39.4344 30.5436Z" fill="#FF6C6C"/>
</g>
<defs>
<clipPath id="clip0_62616_13290">
<rect width="40" height="40" fill="white"/>
</clipPath>
</defs>
</svg>
