<svg width="40" height="40" viewBox="0 0 40 40" fill="none" xmlns="http://www.w3.org/2000/svg">
<g clip-path="url(#clip0_62782_2571)">
<path d="M35 15V32.5C35 33.163 34.7366 33.7989 34.2678 34.2678C33.7989 34.7366 33.163 35 32.5 35H7.5C6.83696 35 6.20107 34.7366 5.73223 34.2678C5.26339 33.7989 5 33.163 5 32.5V15C5 14.337 5.26339 13.7011 5.73223 13.2322C6.20107 12.7634 6.83696 12.5 7.5 12.5H12.5V8.75C12.5021 6.76151 13.2929 4.85506 14.699 3.44898C16.1051 2.04291 18.0115 1.25207 20 1.25C23.625 1.25 26.7687 3.77344 27.475 7.25156C27.5373 7.575 27.4693 7.90993 27.286 8.18357C27.1027 8.45721 26.8188 8.64744 26.496 8.71291C26.1732 8.77837 25.8376 8.71379 25.5621 8.53319C25.2867 8.35259 25.0937 8.07057 25.025 7.74844C24.5625 5.46875 22.4016 3.75 20 3.75C18.6739 3.75 17.4021 4.27678 16.4645 5.21447C15.5268 6.15215 15 7.42392 15 8.75V12.5H32.5C33.163 12.5 33.7989 12.7634 34.2678 13.2322C34.7366 13.7011 35 14.337 35 15Z" fill="#FF6C6C"/>
</g>
<defs>
<clipPath id="clip0_62782_2571">
<rect width="40" height="40" fill="white"/>
</clipPath>
</defs>
</svg>
