<svg width="40" height="40" viewBox="0 0 40 40" fill="none" xmlns="http://www.w3.org/2000/svg">
<path d="M18.9284 15.9023C19.1467 15.518 19.5548 15.2806 19.9967 15.2806C20.4388 15.2806 20.8467 15.518 21.0651 15.9023C22.8641 19.0682 26.2408 21.0349 29.8771 21.0349C30.6936 21.0349 31.5033 20.937 32.2884 20.7454V19.6082C32.2884 15.0207 28.5349 11.2672 23.9473 11.2672H16.053C11.4654 11.2672 7.71194 15.0207 7.71194 19.6082V20.7468C8.49494 20.9372 9.30269 21.0349 10.1164 21.0349C13.7528 21.0349 17.1294 19.0682 18.9284 15.9023Z" fill="#FF6C6C"/>
<path d="M15.6046 33.3737C16.8245 34.3142 18.3498 34.8755 20.0001 34.8755C21.6505 34.8755 23.1759 34.3142 24.3957 33.3737C28.777 33.1387 32.2884 29.4821 32.2884 25.0449V23.2603C31.4969 23.4139 30.6895 23.4926 29.8772 23.4926C26.0015 23.4926 22.3637 21.6954 19.9967 18.7021C17.6298 21.6954 13.9921 23.4926 10.1164 23.4926C9.30684 23.4926 8.50123 23.4154 7.71191 23.2629V25.0449C7.71191 29.4821 11.2234 33.1387 15.6046 33.3737Z" fill="#FF6C6C"/>
<path d="M23.9473 8.80952C25.0143 8.80952 26.0455 8.96582 27.0197 9.2555C26.532 6.89943 24.4407 5.12305 21.9423 5.12305H18.058C15.5596 5.12305 13.4684 6.89943 12.9806 9.2555C13.9548 8.96582 14.986 8.80952 16.0531 8.80952H23.9473Z" fill="#FF6C6C"/>
</svg>
