<svg width="40" height="40" viewBox="0 0 40 40" fill="none" xmlns="http://www.w3.org/2000/svg">
<g clip-path="url(#clip0_62739_1378)">
<path d="M31.3703 8.42032C28.3448 5.42436 24.2578 3.74564 20 3.75001H19.8328C15.5521 3.79405 11.4617 5.52553 8.45025 8.56823C5.43885 11.6109 3.74977 15.7191 3.75 20C3.75 26.7188 7.90313 32.3531 14.5875 34.7141C15.3414 34.9799 16.1481 35.061 16.9398 34.9507C17.7316 34.8404 18.4854 34.5419 19.138 34.0802C19.7905 33.6185 20.3229 33.007 20.6904 32.297C21.0579 31.5871 21.2498 30.7994 21.25 30C21.25 29.337 21.5134 28.7011 21.9822 28.2322C22.4511 27.7634 23.087 27.5 23.75 27.5H30.9703C32.1045 27.5055 33.2065 27.1229 34.0932 26.4158C34.98 25.7086 35.5982 24.7195 35.8453 23.6125C36.1247 22.3824 36.2605 21.1239 36.25 19.8625C36.2341 17.7273 35.7946 15.6165 34.957 13.6523C34.1193 11.6882 32.9002 9.90987 31.3703 8.42032ZM13.125 26.25C12.7542 26.25 12.3916 26.14 12.0833 25.934C11.775 25.728 11.5346 25.4352 11.3927 25.0925C11.2508 24.7499 11.2137 24.3729 11.286 24.0092C11.3584 23.6455 11.537 23.3114 11.7992 23.0492C12.0614 22.787 12.3955 22.6084 12.7592 22.536C13.1229 22.4637 13.4999 22.5008 13.8425 22.6427C14.1851 22.7846 14.478 23.025 14.684 23.3333C14.89 23.6417 15 24.0042 15 24.375C15 24.8723 14.8025 25.3492 14.4508 25.7008C14.0992 26.0525 13.6223 26.25 13.125 26.25ZM13.125 17.5C12.7542 17.5 12.3916 17.39 12.0833 17.184C11.775 16.978 11.5346 16.6852 11.3927 16.3425C11.2508 15.9999 11.2137 15.6229 11.286 15.2592C11.3584 14.8955 11.537 14.5614 11.7992 14.2992C12.0614 14.037 12.3955 13.8584 12.7592 13.786C13.1229 13.7137 13.4999 13.7508 13.8425 13.8927C14.1851 14.0346 14.478 14.275 14.684 14.5833C14.89 14.8917 15 15.2542 15 15.625C15 16.1223 14.8025 16.5992 14.4508 16.9508C14.0992 17.3025 13.6223 17.5 13.125 17.5ZM20 13.75C19.6292 13.75 19.2666 13.64 18.9583 13.434C18.65 13.228 18.4096 12.9352 18.2677 12.5925C18.1258 12.2499 18.0887 11.8729 18.161 11.5092C18.2334 11.1455 18.412 10.8114 18.6742 10.5492C18.9364 10.287 19.2705 10.1084 19.6342 10.036C19.9979 9.96369 20.3749 10.0008 20.7175 10.1427C21.0601 10.2846 21.353 10.525 21.559 10.8333C21.765 11.1417 21.875 11.5042 21.875 11.875C21.875 12.3723 21.6775 12.8492 21.3258 13.2008C20.9742 13.5525 20.4973 13.75 20 13.75ZM26.875 17.5C26.5042 17.5 26.1416 17.39 25.8333 17.184C25.525 16.978 25.2846 16.6852 25.1427 16.3425C25.0008 15.9999 24.9637 15.6229 25.036 15.2592C25.1084 14.8955 25.287 14.5614 25.5492 14.2992C25.8114 14.037 26.1455 13.8584 26.5092 13.786C26.8729 13.7137 27.2499 13.7508 27.5925 13.8927C27.9351 14.0346 28.228 14.275 28.434 14.5833C28.64 14.8917 28.75 15.2542 28.75 15.625C28.75 16.1223 28.5525 16.5992 28.2008 16.9508C27.8492 17.3025 27.3723 17.5 26.875 17.5Z" fill="#FF6C6C"/>
</g>
<defs>
<clipPath id="clip0_62739_1378">
<rect width="40" height="40" fill="white"/>
</clipPath>
</defs>
</svg>
