<svg width="40" height="40" viewBox="0 0 40 40" fill="none" xmlns="http://www.w3.org/2000/svg">
<g clip-path="url(#clip0_62616_13289)">
<path d="M20.9621 3.76648C20.8528 3.76075 20.7438 3.78386 20.6462 3.8335C20.5486 3.88313 20.4657 3.95755 20.4059 4.04929C18.7965 6.48211 18.7496 8.71804 18.7496 8.75085C18.7504 8.93687 18.7926 9.12038 18.8733 9.288C18.9539 9.45562 19.071 9.60312 19.2159 9.71974C19.3609 9.83637 19.53 9.91918 19.711 9.96213C19.892 10.0051 20.0803 10.0071 20.2621 9.96804C20.546 9.90005 20.7983 9.73761 20.9778 9.50736C21.1572 9.27712 21.2531 8.99274 21.2496 8.70086C21.2556 8.52988 21.2966 8.36195 21.3701 8.20746C21.4436 8.05298 21.5481 7.91522 21.6769 7.80273C21.8058 7.69024 21.9565 7.60541 22.1195 7.55348C22.2825 7.50155 22.4544 7.48364 22.6246 7.50086C22.9383 7.53728 23.2273 7.6891 23.4352 7.92679C23.6432 8.16448 23.7552 8.47103 23.7496 8.78679C23.744 9.78135 23.3436 10.733 22.6364 11.4323C21.9291 12.1316 20.9731 12.5213 19.9785 12.5157C18.984 12.5101 18.0324 12.1097 17.3331 11.4024C16.6338 10.6952 16.244 9.73917 16.2496 8.74461C16.2496 8.64617 16.2637 7.06023 17.0996 4.99461C17.142 4.8889 17.1546 4.77364 17.1362 4.66127C17.1178 4.5489 17.0691 4.44369 16.9953 4.357C16.9215 4.27031 16.8254 4.20544 16.7173 4.16938C16.6093 4.13332 16.4935 4.12746 16.3824 4.15242C12.6994 4.99842 9.42557 7.09971 7.12256 10.0958C4.81954 13.0919 3.63091 16.796 3.76056 20.5727C4.06213 29.1759 11.1293 36.0946 19.7371 36.2352C23.9834 36.3003 28.0864 34.7004 31.1678 31.7782C34.2493 28.856 36.0643 24.8435 36.2244 20.5998C36.3846 16.3561 34.877 12.2183 32.0245 9.07214C29.172 5.92602 25.2012 4.02158 20.9621 3.76648ZM12.4996 19.9868C12.4996 19.616 12.6096 19.2534 12.8156 18.9451C13.0217 18.6368 13.3145 18.3964 13.6571 18.2545C13.9997 18.1126 14.3767 18.0755 14.7404 18.1478C15.1041 18.2202 15.4382 18.3987 15.7005 18.661C15.9627 18.9232 16.1413 19.2573 16.2136 19.621C16.2859 19.9847 16.2488 20.3617 16.1069 20.7043C15.965 21.0469 15.7247 21.3398 15.4163 21.5458C15.108 21.7518 14.7455 21.8618 14.3746 21.8618C13.8773 21.8618 13.4004 21.6642 13.0488 21.3126C12.6972 20.961 12.4996 20.4841 12.4996 19.9868ZM25.0418 28.5446C23.5291 29.4876 21.7822 29.9875 19.9996 29.9875C18.217 29.9875 16.4702 29.4876 14.9574 28.5446C14.6769 28.3677 14.4781 28.0865 14.4049 27.763C14.3316 27.4395 14.3899 27.1002 14.5668 26.8196C14.7438 26.5391 15.0249 26.3403 15.3484 26.267C15.6719 26.1938 16.0113 26.252 16.2918 26.429C17.4051 27.1199 18.6893 27.4861 19.9996 27.4861C21.3099 27.4861 22.5941 27.1199 23.7074 26.429C23.8464 26.3414 24.0012 26.282 24.163 26.2542C24.3249 26.2264 24.4907 26.2308 24.6508 26.267C24.811 26.3033 24.9625 26.3708 25.0966 26.4656C25.2307 26.5604 25.3448 26.6807 25.4324 26.8196C25.5201 26.9585 25.5795 27.1133 25.6072 27.2752C25.635 27.4371 25.6307 27.6028 25.5944 27.763C25.5581 27.9232 25.4906 28.0747 25.3958 28.2088C25.301 28.3429 25.1807 28.457 25.0418 28.5446ZM25.6246 21.8618C25.2538 21.8618 24.8913 21.7518 24.5829 21.5458C24.2746 21.3398 24.0343 21.0469 23.8924 20.7043C23.7504 20.3617 23.7133 19.9847 23.7857 19.621C23.858 19.2573 24.0366 18.9232 24.2988 18.661C24.561 18.3987 24.8951 18.2202 25.2588 18.1478C25.6225 18.0755 25.9995 18.1126 26.3422 18.2545C26.6848 18.3964 26.9776 18.6368 27.1836 18.9451C27.3897 19.2534 27.4996 19.616 27.4996 19.9868C27.4996 20.4841 27.3021 20.961 26.9505 21.3126C26.5988 21.6642 26.1219 21.8618 25.6246 21.8618Z" fill="#FF6C6C"/>
</g>
<defs>
<clipPath id="clip0_62616_13289">
<rect width="40" height="40" fill="white"/>
</clipPath>
</defs>
</svg>
