<svg width="40" height="40" viewBox="0 0 40 40" fill="none" xmlns="http://www.w3.org/2000/svg">
<g clip-path="url(#clip0_62535_625)">
<path d="M35 7.5H5C4.66848 7.5 4.35054 7.6317 4.11612 7.86612C3.8817 8.10054 3.75 8.41848 3.75 8.75V30C3.75 30.663 4.01339 31.2989 4.48223 31.7678C4.95107 32.2366 5.58696 32.5 6.25 32.5H33.75C34.413 32.5 35.0489 32.2366 35.5178 31.7678C35.9866 31.2989 36.25 30.663 36.25 30V8.75C36.25 8.41848 36.1183 8.10054 35.8839 7.86612C35.6495 7.6317 35.3315 7.5 35 7.5ZM33.75 30H6.25V11.5922L19.1547 23.4219C19.3853 23.6336 19.687 23.751 20 23.751C20.313 23.751 20.6147 23.6336 20.8453 23.4219L33.75 11.5922V30Z" fill="#FF6C6C"/>
</g>
<defs>
<clipPath id="clip0_62535_625">
<rect width="40" height="40" fill="white"/>
</clipPath>
</defs>
</svg>
