<svg width="40" height="40" viewBox="0 0 40 40" fill="none" xmlns="http://www.w3.org/2000/svg">
<g clip-path="url(#clip0_62687_1002)">
<path d="M20 3.75C16.7861 3.75 13.6443 4.70305 10.972 6.48862C8.29969 8.27419 6.21689 10.8121 4.98696 13.7814C3.75704 16.7507 3.43524 20.018 4.06225 23.1702C4.68926 26.3224 6.23692 29.2179 8.50952 31.4905C10.7821 33.7631 13.6776 35.3107 16.8298 35.9378C19.982 36.5648 23.2493 36.243 26.2186 35.013C29.1879 33.7831 31.7258 31.7003 33.5114 29.028C35.297 26.3557 36.25 23.2139 36.25 20C36.2455 15.6916 34.5319 11.561 31.4855 8.51454C28.439 5.46806 24.3084 3.75455 20 3.75ZM20 31.25C17.5232 31.2504 15.1155 30.4334 13.1504 28.9257C11.1853 27.418 9.77266 25.304 9.13164 22.9116C8.49062 20.5192 8.65704 17.9821 9.60509 15.6939C10.5531 13.4057 12.2298 11.4943 14.375 10.2562C14.6613 10.1008 14.9971 10.0632 15.3107 10.1516C15.6243 10.24 15.8909 10.4474 16.0539 10.7295C16.2169 11.0117 16.2632 11.3463 16.1831 11.6621C16.103 11.9779 15.9028 12.25 15.625 12.4203C13.9569 13.3834 12.6532 14.87 11.9161 16.6496C11.1789 18.4291 11.0496 20.4022 11.5482 22.2627C12.0467 24.1232 13.1452 25.7673 14.6733 26.9399C16.2015 28.1125 18.0738 28.748 20 28.748C21.9262 28.748 23.7985 28.1125 25.3267 26.9399C26.8548 25.7673 27.9533 24.1232 28.4519 22.2627C28.9504 20.4022 28.8211 18.4291 28.084 16.6496C27.3468 14.87 26.0431 13.3834 24.375 12.4203C24.0973 12.25 23.897 11.9779 23.8169 11.6621C23.7368 11.3463 23.7831 11.0117 23.9461 10.7295C24.1091 10.4474 24.3758 10.24 24.6894 10.1516C25.003 10.0632 25.3387 10.1008 25.625 10.2562C27.7702 11.4943 29.4469 13.4057 30.3949 15.6939C31.343 17.9821 31.5094 20.5192 30.8684 22.9116C30.2274 25.304 28.8147 27.418 26.8496 28.9257C24.8845 30.4334 22.4768 31.2504 20 31.25Z" fill="#FF6C6C"/>
</g>
<defs>
<clipPath id="clip0_62687_1002">
<rect width="40" height="40" fill="white"/>
</clipPath>
</defs>
</svg>
