<svg width="40" height="40" viewBox="0 0 40 40" fill="none" xmlns="http://www.w3.org/2000/svg">
<g clip-path="url(#clip0_62985_3864)">
<path d="M27.5002 36.2501C27.5002 36.5816 27.3685 36.8995 27.1341 37.134C26.8997 37.3684 26.5817 37.5001 26.2502 37.5001H13.7502C13.4187 37.5001 13.1007 37.3684 12.8663 37.134C12.6319 36.8995 12.5002 36.5816 12.5002 36.2501C12.5002 35.9186 12.6319 35.6006 12.8663 35.3662C13.1007 35.1318 13.4187 35.0001 13.7502 35.0001H26.2502C26.5817 35.0001 26.8997 35.1318 27.1341 35.3662C27.3685 35.6006 27.5002 35.9186 27.5002 36.2501ZM33.7502 16.2501C33.7556 18.3339 33.2848 20.3914 32.3739 22.2656C31.4629 24.1397 30.1359 25.781 28.494 27.0641C28.1869 27.2995 27.9378 27.6019 27.7656 27.9482C27.5933 28.2946 27.5026 28.6758 27.5002 29.0626V30.0001C27.5002 30.6631 27.2368 31.299 26.768 31.7679C26.2991 32.2367 25.6632 32.5001 25.0002 32.5001H15.0002C14.3372 32.5001 13.7013 32.2367 13.2324 31.7679C12.7636 31.299 12.5002 30.6631 12.5002 30.0001V29.0626C12.4999 28.6804 12.4121 28.3033 12.2433 27.9604C12.0746 27.6175 11.8294 27.3178 11.5268 27.0845C9.88896 25.8089 8.56278 24.1775 7.64861 22.3137C6.73444 20.4499 6.25624 18.4026 6.2502 16.3266C6.20958 8.87977 12.2283 2.67821 19.669 2.50008C21.5023 2.4559 23.326 2.77892 25.0326 3.45011C26.7393 4.12131 28.2944 5.12712 29.6065 6.40835C30.9186 7.68958 31.9612 9.22034 32.6728 10.9105C33.3844 12.6007 33.7507 14.4162 33.7502 16.2501ZM28.733 14.7907C28.4089 12.9802 27.5378 11.3125 26.2371 10.0121C24.9365 8.7117 23.2686 7.84101 21.458 7.51727C21.2961 7.48998 21.1304 7.49485 20.9704 7.53159C20.8104 7.56833 20.6592 7.63623 20.5254 7.73141C20.3916 7.82659 20.2779 7.94719 20.1908 8.08631C20.1036 8.22544 20.0447 8.38038 20.0174 8.54227C19.9901 8.70417 19.995 8.86985 20.0317 9.02987C20.0684 9.18988 20.1363 9.34109 20.2315 9.47487C20.3267 9.60864 20.4473 9.72236 20.5864 9.80953C20.7256 9.8967 20.8805 9.95561 21.0424 9.9829C23.6315 10.4188 25.8283 12.6157 26.2674 15.2095C26.3169 15.5006 26.4678 15.7648 26.6934 15.9553C26.9191 16.1458 27.2049 16.2502 27.5002 16.2501C27.5709 16.2497 27.6414 16.2439 27.7111 16.2329C28.0379 16.1771 28.3291 15.9939 28.5207 15.7234C28.7123 15.4529 28.7887 15.1175 28.733 14.7907Z" fill="#FF6C6C"/>
</g>
<defs>
<clipPath id="clip0_62985_3864">
<rect width="40" height="40" fill="white"/>
</clipPath>
</defs>
</svg>
