<svg width="40" height="40" viewBox="0 0 40 40" fill="none" xmlns="http://www.w3.org/2000/svg">
<g clip-path="url(#clip0_62780_2559)">
<path d="M20 3.75C16.7861 3.75 13.6443 4.70305 10.972 6.48862C8.29969 8.27419 6.21689 10.8121 4.98696 13.7814C3.75704 16.7507 3.43524 20.018 4.06225 23.1702C4.68926 26.3224 6.23692 29.2179 8.50952 31.4905C10.7821 33.7631 13.6776 35.3107 16.8298 35.9378C19.982 36.5648 23.2493 36.243 26.2186 35.013C29.1879 33.7831 31.7258 31.7003 33.5114 29.028C35.297 26.3557 36.25 23.2139 36.25 20C36.2455 15.6916 34.5319 11.561 31.4855 8.51454C28.439 5.46806 24.3084 3.75455 20 3.75ZM20 30C19.6292 30 19.2667 29.89 18.9583 29.684C18.65 29.478 18.4096 29.1851 18.2677 28.8425C18.1258 28.4999 18.0887 28.1229 18.161 27.7592C18.2334 27.3955 18.412 27.0614 18.6742 26.7992C18.9364 26.537 19.2705 26.3584 19.6342 26.286C19.9979 26.2137 20.3749 26.2508 20.7175 26.3927C21.0601 26.5346 21.353 26.775 21.559 27.0833C21.765 27.3916 21.875 27.7542 21.875 28.125C21.875 28.6223 21.6775 29.0992 21.3258 29.4508C20.9742 29.8025 20.4973 30 20 30ZM21.25 22.3875V22.5C21.25 22.8315 21.1183 23.1495 20.8839 23.3839C20.6495 23.6183 20.3315 23.75 20 23.75C19.6685 23.75 19.3505 23.6183 19.1161 23.3839C18.8817 23.1495 18.75 22.8315 18.75 22.5V21.25C18.75 20.9185 18.8817 20.6005 19.1161 20.3661C19.3505 20.1317 19.6685 20 20 20C22.0672 20 23.75 18.5938 23.75 16.875C23.75 15.1562 22.0672 13.75 20 13.75C17.9328 13.75 16.25 15.1562 16.25 16.875V17.5C16.25 17.8315 16.1183 18.1495 15.8839 18.3839C15.6495 18.6183 15.3315 18.75 15 18.75C14.6685 18.75 14.3505 18.6183 14.1161 18.3839C13.8817 18.1495 13.75 17.8315 13.75 17.5V16.875C13.75 13.7734 16.5531 11.25 20 11.25C23.4469 11.25 26.25 13.7734 26.25 16.875C26.25 19.5906 24.1 21.8641 21.25 22.3875Z" fill="#FF6C6C"/>
</g>
<defs>
<clipPath id="clip0_62780_2559">
<rect width="40" height="40" fill="white"/>
</clipPath>
</defs>
</svg>
