<svg width="40" height="40" viewBox="0 0 40 40" fill="none" xmlns="http://www.w3.org/2000/svg">
<g clip-path="url(#clip0_63122_8995)">
<path d="M38.7502 12.4996C38.7508 11.8144 38.5904 11.1386 38.282 10.5267C37.9736 9.91479 37.5258 9.38389 36.9746 8.97675C36.4235 8.56962 35.7844 8.29764 35.1089 8.18273C34.4333 8.06782 33.7403 8.11318 33.0855 8.31518C32.4307 8.51717 31.8325 8.87014 31.3392 9.34564C30.8458 9.82115 30.471 10.4059 30.245 11.0528C30.019 11.6997 29.9481 12.3906 30.038 13.0699C30.1279 13.7492 30.3761 14.3979 30.7627 14.9637L26.5767 20.1199L22.8127 11.4683C23.4992 10.8906 23.9914 10.1157 24.2227 9.2487C24.4539 8.38174 24.413 7.46463 24.1055 6.62169C23.798 5.77875 23.2387 5.05075 22.5035 4.53637C21.7683 4.02198 20.8928 3.74609 19.9955 3.74609C19.0982 3.74609 18.2226 4.02198 17.4874 4.53637C16.7522 5.05075 16.193 5.77875 15.8854 6.62169C15.5779 7.46463 15.537 8.38174 15.7683 9.2487C15.9996 10.1157 16.4918 10.8906 17.1783 11.4683L13.4236 20.1152L9.23767 14.959C9.77539 14.1711 10.0409 13.229 9.99367 12.2763C9.94648 11.3236 9.58919 10.4124 8.97624 9.68146C8.36328 8.95057 7.52824 8.44003 6.5983 8.22761C5.66835 8.01518 4.69446 8.11251 3.82494 8.50478C2.95543 8.89704 2.23794 9.56273 1.78176 10.4005C1.32557 11.2382 1.15569 12.2021 1.29797 13.1453C1.44026 14.0886 1.88693 14.9594 2.56994 15.6253C3.25295 16.2912 4.13488 16.7157 5.08142 16.834L7.34392 30.4105C7.44118 30.9942 7.74234 31.5245 8.19381 31.907C8.64528 32.2895 9.21781 32.4995 9.80954 32.4996H30.1908C30.7825 32.4995 31.3551 32.2895 31.8065 31.907C32.258 31.5245 32.5592 30.9942 32.6564 30.4105L34.9174 16.8402C35.9754 16.7081 36.9488 16.194 37.6546 15.3947C38.3604 14.5955 38.75 13.5659 38.7502 12.4996ZM20.0002 6.24959C20.371 6.24959 20.7335 6.35956 21.0419 6.56559C21.3502 6.77162 21.5905 7.06445 21.7324 7.40706C21.8744 7.74967 21.9115 8.12667 21.8391 8.49039C21.7668 8.8541 21.5882 9.1882 21.326 9.45042C21.0638 9.71264 20.7297 9.89122 20.366 9.96357C20.0022 10.0359 19.6252 9.99878 19.2826 9.85687C18.94 9.71495 18.6472 9.47463 18.4412 9.16629C18.2351 8.85795 18.1252 8.49543 18.1252 8.12459C18.1252 7.62731 18.3227 7.1504 18.6743 6.79877C19.026 6.44714 19.5029 6.24959 20.0002 6.24959ZM3.75017 12.4996C3.75017 12.1288 3.86013 11.7662 4.06616 11.4579C4.27219 11.1496 4.56502 10.9092 4.90764 10.7673C5.25025 10.6254 5.62725 10.5883 5.99096 10.6606C6.35468 10.733 6.68877 10.9115 6.95099 11.1738C7.21322 11.436 7.39179 11.7701 7.46414 12.1338C7.53649 12.4975 7.49936 12.8745 7.35744 13.2171C7.21553 13.5597 6.9752 13.8526 6.66686 14.0586C6.35852 14.2646 5.99601 14.3746 5.62517 14.3746C5.12789 14.3746 4.65097 14.177 4.29934 13.8254C3.94771 13.4738 3.75017 12.9969 3.75017 12.4996ZM34.3752 14.3746C34.0043 14.3746 33.6418 14.2646 33.3335 14.0586C33.0251 13.8526 32.7848 13.5597 32.6429 13.2171C32.501 12.8745 32.4638 12.4975 32.5362 12.1338C32.6085 11.7701 32.7871 11.436 33.0493 11.1738C33.3116 10.9115 33.6457 10.733 34.0094 10.6606C34.3731 10.5883 34.7501 10.6254 35.0927 10.7673C35.4353 10.9092 35.7281 11.1496 35.9342 11.4579C36.1402 11.7662 36.2502 12.1288 36.2502 12.4996C36.2502 12.9969 36.0526 13.4738 35.701 13.8254C35.3494 14.177 34.8724 14.3746 34.3752 14.3746Z" fill="#FF6C6C"/>
</g>
<defs>
<clipPath id="clip0_63122_8995">
<rect width="40" height="40" fill="white"/>
</clipPath>
</defs>
</svg>
