<svg width="40" height="40" viewBox="0 0 40 40" fill="none" xmlns="http://www.w3.org/2000/svg">
<g clip-path="url(#clip0_63095_5454)">
<path d="M32.5 6.25H7.5C6.83696 6.25 6.20107 6.51339 5.73223 6.98223C5.26339 7.45107 5 8.08696 5 8.75V16.25C5 16.913 5.26339 17.5489 5.73223 18.0178C6.20107 18.4866 6.83696 18.75 7.5 18.75H32.5C33.163 18.75 33.7989 18.4866 34.2678 18.0178C34.7366 17.5489 35 16.913 35 16.25V8.75C35 8.08696 34.7366 7.45107 34.2678 6.98223C33.7989 6.51339 33.163 6.25 32.5 6.25ZM28.125 14.375C27.7542 14.375 27.3916 14.265 27.0833 14.059C26.775 13.853 26.5346 13.5601 26.3927 13.2175C26.2508 12.8749 26.2137 12.4979 26.286 12.1342C26.3584 11.7705 26.537 11.4364 26.7992 11.1742C27.0614 10.912 27.3955 10.7334 27.7592 10.661C28.1229 10.5887 28.4999 10.6258 28.8425 10.7677C29.1851 10.9096 29.478 11.15 29.684 11.4583C29.89 11.7666 30 12.1292 30 12.5C30 12.9973 29.8025 13.4742 29.4508 13.8258C29.0992 14.1775 28.6223 14.375 28.125 14.375Z" fill="#FF6C6C"/>
<path d="M32.5 21.25H7.5C6.83696 21.25 6.20107 21.5134 5.73223 21.9822C5.26339 22.4511 5 23.087 5 23.75V31.25C5 31.913 5.26339 32.5489 5.73223 33.0178C6.20107 33.4866 6.83696 33.75 7.5 33.75H32.5C33.163 33.75 33.7989 33.4866 34.2678 33.0178C34.7366 32.5489 35 31.913 35 31.25V23.75C35 23.087 34.7366 22.4511 34.2678 21.9822C33.7989 21.5134 33.163 21.25 32.5 21.25ZM28.125 29.375C27.7542 29.375 27.3916 29.265 27.0833 29.059C26.775 28.853 26.5346 28.5601 26.3927 28.2175C26.2508 27.8749 26.2137 27.4979 26.286 27.1342C26.3584 26.7705 26.537 26.4364 26.7992 26.1742C27.0614 25.912 27.3955 25.7334 27.7592 25.661C28.1229 25.5887 28.4999 25.6258 28.8425 25.7677C29.1851 25.9096 29.478 26.15 29.684 26.4583C29.89 26.7666 30 27.1292 30 27.5C30 27.9973 29.8025 28.4742 29.4508 28.8258C29.0992 29.1775 28.6223 29.375 28.125 29.375Z" fill="#FF6C6C"/>
</g>
<defs>
<clipPath id="clip0_63095_5454">
<rect width="40" height="40" fill="white"/>
</clipPath>
</defs>
</svg>
