<svg width="40" height="40" viewBox="0 0 40 40" fill="none" xmlns="http://www.w3.org/2000/svg">
<g clip-path="url(#clip0_63133_6622)">
<path d="M24.375 20C24.375 20.8653 24.1184 21.7112 23.6377 22.4306C23.1569 23.1501 22.4737 23.7108 21.6742 24.042C20.8748 24.3731 19.9951 24.4597 19.1465 24.2909C18.2978 24.1221 17.5183 23.7054 16.9064 23.0936C16.2946 22.4817 15.8779 21.7022 15.7091 20.8535C15.5403 20.0049 15.6269 19.1252 15.958 18.3258C16.2892 17.5263 16.8499 16.8431 17.5694 16.3623C18.2888 15.8816 19.1347 15.625 20 15.625C21.1603 15.625 22.2731 16.0859 23.0936 16.9064C23.9141 17.7269 24.375 18.8397 24.375 20ZM7.5 15.625C6.63471 15.625 5.78885 15.8816 5.06938 16.3623C4.34992 16.8431 3.78916 17.5263 3.45803 18.3258C3.1269 19.1252 3.04026 20.0049 3.20907 20.8535C3.37788 21.7022 3.79456 22.4817 4.40641 23.0936C5.01826 23.7054 5.79782 24.1221 6.64648 24.2909C7.49515 24.4597 8.37482 24.3731 9.17424 24.042C9.97367 23.7108 10.657 23.1501 11.1377 22.4306C11.6184 21.7112 11.875 20.8653 11.875 20C11.875 18.8397 11.4141 17.7269 10.5936 16.9064C9.77312 16.0859 8.66032 15.625 7.5 15.625ZM32.5 15.625C31.6347 15.625 30.7888 15.8816 30.0694 16.3623C29.3499 16.8431 28.7892 17.5263 28.458 18.3258C28.1269 19.1252 28.0403 20.0049 28.2091 20.8535C28.3779 21.7022 28.7946 22.4817 29.4064 23.0936C30.0183 23.7054 30.7978 24.1221 31.6465 24.2909C32.4951 24.4597 33.3748 24.3731 34.1742 24.042C34.9737 23.7108 35.6569 23.1501 36.1377 22.4306C36.6184 21.7112 36.875 20.8653 36.875 20C36.875 19.4255 36.7618 18.8566 36.542 18.3258C36.3221 17.795 35.9999 17.3127 35.5936 16.9064C35.1873 16.5002 34.705 16.1779 34.1742 15.958C33.6434 15.7382 33.0745 15.625 32.5 15.625Z" fill="#FF6C6C"/>
</g>
<defs>
<clipPath id="clip0_63133_6622">
<rect width="40" height="40" fill="white"/>
</clipPath>
</defs>
</svg>
