<svg width="40" height="40" viewBox="0 0 40 40" fill="none" xmlns="http://www.w3.org/2000/svg">
<g clip-path="url(#clip0_62631_13846)">
<path d="M36.0825 34.3753C35.9728 34.5654 35.8149 34.7232 35.6249 34.8329C35.4348 34.9427 35.2192 35.0004 34.9997 35.0003H4.9997C4.78038 35.0001 4.56499 34.9422 4.37514 34.8324C4.1853 34.7226 4.02768 34.5648 3.91812 34.3748C3.80857 34.1848 3.75092 33.9693 3.75098 33.75C3.75103 33.5307 3.80879 33.3153 3.91845 33.1253C6.29813 29.0113 9.96532 26.0613 14.245 24.6628C12.1281 23.4026 10.4834 21.4823 9.56343 19.1969C8.64349 16.9115 8.4992 14.3872 9.15273 12.0118C9.80625 9.63646 11.2214 7.54127 13.181 6.04804C15.1405 4.55481 17.5361 3.74609 19.9997 3.74609C22.4633 3.74609 24.8589 4.55481 26.8184 6.04804C28.7779 7.54127 30.1931 9.63646 30.8467 12.0118C31.5002 14.3872 31.3559 16.9115 30.436 19.1969C29.516 21.4823 27.8713 23.4026 25.7544 24.6628C30.0341 26.0613 33.7013 29.0113 36.0809 33.1253C36.1909 33.3152 36.2489 33.5307 36.2492 33.7501C36.2495 33.9696 36.192 34.1852 36.0825 34.3753Z" fill="#FF6C6C"/>
</g>
<defs>
<clipPath id="clip0_62631_13846">
<rect width="40" height="40" fill="white"/>
</clipPath>
</defs>
</svg>
