<svg width="40" height="40" viewBox="0 0 40 40" fill="none" xmlns="http://www.w3.org/2000/svg">
<g clip-path="url(#clip0_62725_1183)">
<path d="M37.5 8.75V31.25C37.5 31.5815 37.3683 31.8995 37.1339 32.1339C36.8995 32.3683 36.5815 32.5 36.25 32.5H25C24.0071 32.5 23.0547 32.8938 22.3517 33.595C21.6487 34.2963 21.2525 35.2477 21.25 36.2406C21.255 36.4958 21.1807 36.7463 21.0375 36.9576C20.8942 37.1689 20.689 37.3305 20.45 37.4203C20.2603 37.4935 20.0556 37.5193 19.8537 37.4955C19.6517 37.4717 19.4587 37.399 19.2912 37.2837C19.1237 37.1684 18.9869 37.014 18.8926 36.8339C18.7983 36.6538 18.7493 36.4533 18.75 36.25C18.75 35.2554 18.3549 34.3016 17.6517 33.5983C16.9484 32.8951 15.9946 32.5 15 32.5H3.75C3.41848 32.5 3.10054 32.3683 2.86612 32.1339C2.6317 31.8995 2.5 31.5815 2.5 31.25V8.75C2.5 8.41848 2.6317 8.10054 2.86612 7.86612C3.10054 7.6317 3.41848 7.5 3.75 7.5H13.75C15.0761 7.5 16.3479 8.02678 17.2855 8.96447C18.2232 9.90215 18.75 11.1739 18.75 12.5V26.2078C18.7457 26.5304 18.8636 26.8427 19.0802 27.0818C19.2967 27.321 19.5958 27.4693 19.9172 27.4969C20.0882 27.5082 20.2597 27.4843 20.421 27.4266C20.5824 27.3689 20.7301 27.2786 20.8551 27.1614C20.9801 27.0442 21.0797 26.9025 21.1476 26.7452C21.2155 26.5878 21.2504 26.4182 21.25 26.2469V12.5C21.25 11.1739 21.7768 9.90215 22.7145 8.96447C23.6521 8.02678 24.9239 7.5 26.25 7.5H36.25C36.5815 7.5 36.8995 7.6317 37.1339 7.86612C37.3683 8.10054 37.5 8.41848 37.5 8.75Z" fill="#FF6C6C"/>
</g>
<defs>
<clipPath id="clip0_62725_1183">
<rect width="40" height="40" fill="white"/>
</clipPath>
</defs>
</svg>
