<svg width="40" height="40" viewBox="0 0 40 40" fill="none" xmlns="http://www.w3.org/2000/svg">
<g clip-path="url(#clip0_62789_3350)">
<path d="M15.6252 18.1922C15.8153 18.0825 15.9731 17.9246 16.0828 17.7345C16.1925 17.5445 16.2503 17.3288 16.2502 17.1094V5.85938C16.2491 5.66009 16.2004 5.46395 16.108 5.28733C16.0157 5.11071 15.8825 4.95872 15.7195 4.84405C15.5565 4.72937 15.3685 4.65533 15.1711 4.6281C14.9736 4.60086 14.7726 4.62123 14.5846 4.6875C10.9361 5.97877 7.86791 8.52913 5.93151 11.8801C3.9951 15.2311 3.31751 19.1629 4.02054 22.9688C4.05698 23.1656 4.14015 23.3507 4.26305 23.5087C4.38595 23.6667 4.54499 23.7928 4.72679 23.8766C4.89063 23.9532 5.06936 23.9927 5.25023 23.9922C5.46962 23.9923 5.68518 23.9346 5.87523 23.825L15.6252 18.1922ZM13.7502 7.75312V16.3875L6.26898 20.7047C6.25023 20.4688 6.25023 20.2313 6.25023 20C6.25245 17.4662 6.95381 14.9821 8.27709 12.8213C9.60038 10.6605 11.4943 8.90674 13.7502 7.75312ZM36.2502 20C36.2515 23.5674 35.0788 27.0361 32.913 29.8708C30.7473 32.7056 27.7089 34.7489 24.2667 35.6855C20.8245 36.6222 17.1697 36.4 13.8662 35.0534C10.5627 33.7068 7.7942 31.3106 5.98773 28.2344C5.90352 28.0923 5.8483 27.9349 5.82527 27.7714C5.80224 27.6078 5.81185 27.4413 5.85355 27.2815C5.89525 27.1217 5.9682 26.9717 6.06821 26.8402C6.16821 26.7088 6.29327 26.5985 6.43617 26.5156L18.7502 19.3484V5C18.7502 4.66848 18.8819 4.35054 19.1163 4.11612C19.3508 3.8817 19.6687 3.75 20.0002 3.75C22.836 3.75145 25.622 4.49458 28.0817 5.90563C30.5415 7.31668 32.5894 9.34657 34.0221 11.7938C34.0393 11.8188 34.0549 11.8438 34.0705 11.8703C34.0862 11.8969 34.1018 11.9281 34.1159 11.9562C35.5179 14.4049 36.2538 17.1783 36.2502 20Z" fill="#FF6C6C"/>
</g>
<defs>
<clipPath id="clip0_62789_3350">
<rect width="40" height="40" fill="white"/>
</clipPath>
</defs>
</svg>
