<svg width="40" height="40" viewBox="0 0 40 40" fill="none" xmlns="http://www.w3.org/2000/svg">
<g clip-path="url(#clip0_62697_1732)">
<path d="M33.75 6.25H6.25C5.58696 6.25 4.95107 6.51339 4.48223 6.98223C4.01339 7.45107 3.75 8.08696 3.75 8.75V31.25C3.75 31.913 4.01339 32.5489 4.48223 33.0178C4.95107 33.4866 5.58696 33.75 6.25 33.75H33.75C34.413 33.75 35.0489 33.4866 35.5178 33.0178C35.9866 32.5489 36.25 31.913 36.25 31.25V8.75C36.25 8.08696 35.9866 7.45107 35.5178 6.98223C35.0489 6.51339 34.413 6.25 33.75 6.25ZM24.375 13.75C24.7458 13.75 25.1084 13.86 25.4167 14.066C25.725 14.272 25.9654 14.5649 26.1073 14.9075C26.2492 15.2501 26.2863 15.6271 26.214 15.9908C26.1416 16.3545 25.963 16.6886 25.7008 16.9508C25.4386 17.213 25.1045 17.3916 24.7408 17.464C24.3771 17.5363 24.0001 17.4992 23.6575 17.3573C23.3149 17.2154 23.022 16.975 22.816 16.6667C22.61 16.3584 22.5 15.9958 22.5 15.625C22.5 15.1277 22.6975 14.6508 23.0492 14.2992C23.4008 13.9475 23.8777 13.75 24.375 13.75ZM33.75 31.25H6.25V25.1078L13.4906 17.8656C13.6067 17.7494 13.7446 17.6572 13.8963 17.5943C14.0481 17.5314 14.2107 17.499 14.375 17.499C14.5393 17.499 14.7019 17.5314 14.8537 17.5943C15.0054 17.6572 15.1433 17.7494 15.2594 17.8656L25.7812 28.3844C26.0158 28.6189 26.3339 28.7507 26.6656 28.7507C26.9973 28.7507 27.3155 28.6189 27.55 28.3844C27.7846 28.1498 27.9163 27.8317 27.9163 27.5C27.9163 27.1683 27.7846 26.8502 27.55 26.6156L24.7906 23.8578L27.0312 21.6156C27.2656 21.3814 27.5835 21.2498 27.9148 21.2498C28.2462 21.2498 28.564 21.3814 28.7984 21.6156L33.75 26.5734V31.25Z" fill="#FF6C6C"/>
</g>
<defs>
<clipPath id="clip0_62697_1732">
<rect width="40" height="40" fill="white"/>
</clipPath>
</defs>
</svg>
