<svg width="40" height="40" viewBox="0 0 40 40" fill="none" xmlns="http://www.w3.org/2000/svg">
<g clip-path="url(#clip0_62697_1733)">
<path d="M36.25 10V30C36.25 30.663 35.9866 31.2989 35.5178 31.7678C35.049 32.2366 34.4131 32.5 33.75 32.5H12.9688L7.87504 36.9L7.86098 36.9109C7.41103 37.2924 6.83995 37.5013 6.25004 37.5C5.88329 37.4994 5.52113 37.4183 5.18911 37.2625C4.75724 37.0635 4.39185 36.7442 4.13664 36.343C3.88143 35.9418 3.74722 35.4755 3.75004 35V10C3.75004 9.33696 4.01344 8.70107 4.48228 8.23223C4.95112 7.76339 5.587 7.5 6.25004 7.5H33.75C34.4131 7.5 35.049 7.76339 35.5178 8.23223C35.9866 8.70107 36.25 9.33696 36.25 10Z" fill="#FF6C6C"/>
</g>
<defs>
<clipPath id="clip0_62697_1733">
<rect width="40" height="40" fill="white"/>
</clipPath>
</defs>
</svg>
