<svg width="40" height="40" viewBox="0 0 40 40" fill="none" xmlns="http://www.w3.org/2000/svg">
<g clip-path="url(#clip0_62687_1343)">
<path d="M33.4249 32.9096C33.5376 33.0307 33.6251 33.1729 33.6825 33.3281C33.7398 33.4832 33.7658 33.6482 33.7589 33.8135C33.752 33.9788 33.7123 34.141 33.6422 34.2909C33.5722 34.4407 33.473 34.5751 33.3506 34.6864C33.2282 34.7976 33.0849 34.8835 32.9291 34.9389C32.7733 34.9944 32.608 35.0184 32.4428 35.0095C32.2776 35.0006 32.1159 34.959 31.9669 34.8872C31.8179 34.8153 31.6846 34.7146 31.5749 34.5909L26.3139 28.8096L21.9233 34.1033C21.6886 34.3854 21.3945 34.612 21.062 34.7671C20.7294 34.9221 20.3668 35.0017 19.9999 35.0002C19.6326 35.0012 19.2697 34.9208 18.9371 34.7649C18.6046 34.6091 18.3107 34.3815 18.0764 34.0987L1.82018 14.5002C1.60622 14.2446 1.44679 13.9479 1.35167 13.6285C1.25655 13.309 1.22775 12.9734 1.26705 12.6424C1.30615 12.3106 1.41166 11.99 1.57729 11.6998C1.74292 11.4096 1.96528 11.1558 2.23112 10.9533C3.80643 9.75755 5.49832 8.72367 7.28112 7.86741L6.6108 7.12991C6.38414 6.88815 6.25969 6.56814 6.26348 6.23677C6.26726 5.90539 6.39899 5.5883 6.63111 5.35179C6.75145 5.23545 6.89393 5.14446 7.05009 5.08422C7.20626 5.02398 7.37293 4.99572 7.54022 5.00111C7.70752 5.0065 7.87203 5.04544 8.02399 5.11561C8.17595 5.18578 8.31227 5.28575 8.42486 5.4096L33.4249 32.9096ZM38.7374 12.6424C38.6983 12.3106 38.5928 11.99 38.4271 11.6998C38.2615 11.4096 38.0391 11.1558 37.7733 10.9533C32.6652 7.06753 26.418 4.97506 19.9999 5.00022C17.766 4.99837 15.5391 5.24733 13.3608 5.74241C13.2553 5.76815 13.1583 5.82094 13.0794 5.89559C13.0005 5.97024 12.9424 6.06417 12.9108 6.16811C12.8793 6.27205 12.8754 6.38242 12.8995 6.48834C12.9236 6.59425 12.9749 6.69205 13.0483 6.7721L29.0624 24.3862C29.1226 24.4513 29.1959 24.5029 29.2776 24.5375C29.3593 24.5722 29.4474 24.589 29.5361 24.5869C29.6247 24.5848 29.712 24.5639 29.7919 24.5255C29.8719 24.4872 29.9428 24.4322 29.9999 24.3643L38.1796 14.5002C38.3935 14.2446 38.5529 13.9479 38.6481 13.6285C38.7432 13.309 38.772 12.9734 38.7327 12.6424H38.7374Z" fill="#FF6C6C"/>
</g>
<defs>
<clipPath id="clip0_62687_1343">
<rect width="40" height="40" fill="white"/>
</clipPath>
</defs>
</svg>
