<svg width="40" height="40" viewBox="0 0 40 40" fill="none" xmlns="http://www.w3.org/2000/svg">
<path d="M10.787 24.1033V25.4623C10.781 30.7037 14.7554 35.2547 19.9993 35.2687C25.0877 35.2687 29.2117 30.8782 29.2117 25.4623V24.1033C31.1535 23.9839 32.6919 22.3715 32.6919 20.4001C32.6919 18.4278 31.1562 16.7557 29.2117 16.696C27.8812 16.6551 26.6079 16.1506 25.6888 15.1872L23.423 12.8115C21.1157 15.2414 17.7846 16.703 14.35 16.696H10.787C8.84523 16.8162 7.30762 18.4278 7.30762 20.4001C7.30771 22.3715 8.84523 23.983 10.787 24.1033Z" fill="#FF6C6C"/>
<path d="M10.6211 14.0322C10.7845 14.0203 14.1771 14.0312 14.3737 14.0271C17.0121 14.0271 19.6712 12.8856 21.4865 10.9737L23.4175 8.94008L27.6188 13.3449C27.9942 13.7461 28.7013 14.0279 29.3743 14.0321C30.0736 14.0363 30.738 14.2313 31.356 14.4801V12.5929C31.356 7.53279 26.6437 3.79106 21.7152 4.93867L16.6409 6.12008C13.9366 6.73516 11.1218 6.17337 8.80243 4.7305C7.38429 7.87352 7.03485 11.5137 7.78845 14.9C8.62736 14.4054 9.59037 14.107 10.6211 14.0322Z" fill="#FF6C6C"/>
</svg>
