<svg width="40" height="40" viewBox="0 0 40 40" fill="none" xmlns="http://www.w3.org/2000/svg">
<g clip-path="url(#clip0_63230_9702)">
<path d="M26.25 17.4996C26.25 19.2302 25.7369 20.9219 24.7754 22.3609C23.8139 23.7998 22.4474 24.9213 20.8485 25.5836C19.2497 26.2458 17.4903 26.4191 15.793 26.0815C14.0957 25.7439 12.5366 24.9105 11.3129 23.6868C10.0892 22.4631 9.2558 20.904 8.91818 19.2067C8.58056 17.5093 8.75384 15.75 9.4161 14.1511C10.0784 12.5523 11.1999 11.1857 12.6388 10.2243C14.0777 9.2628 15.7695 8.74962 17.5 8.74962C19.8207 8.74962 22.0463 9.67149 23.6872 11.3124C25.3282 12.9534 26.25 15.179 26.25 17.4996ZM35.8844 35.884C35.7683 36.0002 35.6305 36.0924 35.4787 36.1553C35.327 36.2182 35.1643 36.2506 35 36.2506C34.8358 36.2506 34.6731 36.2182 34.5214 36.1553C34.3696 36.0924 34.2318 36.0002 34.1157 35.884L26.2938 28.0606C23.5737 30.3235 20.0858 31.4508 16.5558 31.2078C13.0257 30.9648 9.72523 29.3703 7.34081 26.7559C4.95639 24.1416 3.67161 20.7087 3.75371 17.1712C3.8358 13.6338 5.27845 10.2641 7.78158 7.76322C10.2847 5.26231 13.6556 3.82263 17.1931 3.74366C20.7307 3.66469 24.1624 4.95251 26.7747 7.33924C29.3869 9.72597 30.9785 13.0279 31.2184 16.5581C31.4582 20.0884 30.3279 23.5752 28.0625 26.2934L35.8844 34.1152C36.0006 34.2313 36.0928 34.3692 36.1557 34.5209C36.2187 34.6727 36.251 34.8354 36.251 34.9996C36.251 35.1639 36.2187 35.3265 36.1557 35.4783C36.0928 35.63 36.0006 35.7679 35.8844 35.884ZM17.5 28.7496C19.7251 28.7496 21.9002 28.0898 23.7502 26.8537C25.6003 25.6175 27.0422 23.8605 27.8937 21.8048C28.7452 19.7491 28.968 17.4871 28.5339 15.3049C28.0998 13.1226 27.0283 11.118 25.455 9.54467C23.8817 7.97133 21.8771 6.89987 19.6948 6.46579C17.5125 6.0317 15.2505 6.25449 13.1949 7.10598C11.1392 7.95746 9.38218 9.3994 8.14602 11.2495C6.90985 13.0995 6.25005 15.2746 6.25005 17.4996C6.25336 20.4823 7.43968 23.3419 9.54875 25.4509C11.6578 27.56 14.5174 28.7463 17.5 28.7496Z" fill="#FF6C6C"/>
</g>
<defs>
<clipPath id="clip0_63230_9702">
<rect width="40" height="40" fill="white"/>
</clipPath>
</defs>
</svg>
