<svg width="40" height="40" viewBox="0 0 40 40" fill="none" xmlns="http://www.w3.org/2000/svg">
<path d="M19.9999 5.0918C11.8291 5.0918 5.18164 11.8291 5.18164 19.9999C5.18164 28.305 7.90219 33.9319 8.01795 34.1634C8.24687 34.6199 8.71252 34.908 9.22299 34.908H12.9475C10.6844 32.931 9.22299 29.9694 9.22299 26.7355V25.3344C9.22299 23.219 10.8766 21.447 12.9881 21.3023C16.4269 21.0708 20.6248 20.0735 22.1114 17.9701C23.991 15.3059 28.1297 15.8412 29.2271 18.9646C30.0586 21.347 30.7769 23.4019 30.7769 26.4158C30.7769 29.8283 29.3219 32.8881 27.0394 34.908H30.7769C31.2873 34.908 31.753 34.6199 31.9819 34.1634C32.0977 33.9319 34.8182 28.305 34.8182 19.9999C34.8182 11.8291 28.1707 5.0918 19.9999 5.0918Z" fill="#FF6C6C"/>
<path d="M28.0823 26.4164C28.0823 23.8602 27.4653 22.0935 26.6839 19.8571C26.3285 18.8443 24.9566 18.6114 24.312 19.5242C21.8256 23.0446 15.6939 23.8208 13.1733 23.9905C12.4655 24.0391 11.917 24.6259 11.917 25.335V26.7361C11.917 31.1931 15.5426 34.9086 19.9997 34.9086C24.7624 34.9086 28.0823 30.8671 28.0823 26.4164Z" fill="#FF6C6C"/>
</svg>
