<svg width="40" height="40" viewBox="0 0 40 40" fill="none" xmlns="http://www.w3.org/2000/svg">
<g clip-path="url(#clip0_62725_1184)">
<path d="M36.25 19.9992C36.2506 22.8047 35.5249 25.5626 34.1434 28.0044C32.7619 30.4462 30.7718 32.4888 28.3667 33.9333C25.9616 35.3778 23.2236 36.175 20.419 36.2473C17.6144 36.3197 14.8388 35.6647 12.3625 34.3461L7.04219 36.1195C6.6017 36.2664 6.129 36.2877 5.67707 36.1811C5.22515 36.0744 4.81185 35.844 4.48352 35.5157C4.15518 35.1873 3.92477 34.774 3.81812 34.3221C3.71147 33.8702 3.73279 33.3975 3.87969 32.957L5.65312 27.6367C4.49398 25.4574 3.84656 23.0426 3.76 20.5757C3.67343 18.1088 4.15001 15.6546 5.15355 13.3994C6.15708 11.1442 7.66121 9.14723 9.55175 7.56012C11.4423 5.973 13.6695 4.83744 16.0645 4.23962C18.4594 3.64181 20.9591 3.59745 23.3737 4.10993C25.7883 4.6224 28.0545 5.67823 30.0001 7.19727C31.9458 8.71632 33.5198 10.6587 34.6027 12.8768C35.6856 15.095 36.249 17.5308 36.25 19.9992Z" fill="#FF6C6C"/>
</g>
<defs>
<clipPath id="clip0_62725_1184">
<rect width="40" height="40" fill="white"/>
</clipPath>
</defs>
</svg>
