<svg width="40" height="40" viewBox="0 0 40 40" fill="none" xmlns="http://www.w3.org/2000/svg">
<g clip-path="url(#clip0_63230_9444)">
<path d="M33.75 15.0004C33.7514 12.6832 33.1671 10.4032 32.0515 8.37226C30.9359 6.34131 29.3251 4.62524 27.3688 3.38343C25.4125 2.14162 23.174 1.41436 20.8614 1.2692C18.5488 1.12404 16.2369 1.56568 14.1407 2.55311C12.0444 3.54054 10.2317 5.04172 8.87088 6.91723C7.51006 8.79274 6.6453 10.9817 6.35691 13.2809C6.06852 15.5801 6.36586 17.9148 7.2213 20.0683C8.07675 22.2218 9.46255 24.1242 11.25 25.5988V37.5004C11.2498 37.7135 11.3042 37.9232 11.4079 38.1095C11.5117 38.2957 11.6613 38.4523 11.8426 38.5644C12.0239 38.6765 12.2309 38.7404 12.4439 38.75C12.6569 38.7596 12.8687 38.7145 13.0594 38.6191L20 35.1566L26.9422 38.6269C27.1162 38.7102 27.3071 38.7524 27.5 38.7504C27.8315 38.7504 28.1495 38.6187 28.3839 38.3842C28.6183 38.1498 28.75 37.8319 28.75 37.5004V25.5988C30.314 24.3107 31.5734 22.6924 32.4378 20.86C33.3023 19.0275 33.7504 17.0265 33.75 15.0004ZM8.75 15.0004C8.75 12.7753 9.4098 10.6002 10.646 8.75019C11.8821 6.90013 13.6391 5.45819 15.6948 4.60671C17.7505 3.75522 20.0125 3.53243 22.1948 3.96652C24.3771 4.4006 26.3816 5.47206 27.955 7.0454C29.5283 8.61874 30.5998 10.6233 31.0338 12.8056C31.4679 14.9879 31.2451 17.2499 30.3936 19.3055C29.5422 21.3612 28.1002 23.1182 26.2502 24.3544C24.4001 25.5906 22.225 26.2504 20 26.2504C17.0173 26.247 14.1578 25.0607 12.0487 22.9517C9.93964 20.8426 8.75331 17.983 8.75 15.0004ZM11.25 15.0004C11.25 13.2698 11.7632 11.578 12.7246 10.1391C13.6861 8.70018 15.0527 7.57867 16.6515 6.91641C18.2504 6.25414 20.0097 6.08086 21.707 6.41848C23.4044 6.7561 24.9635 7.58946 26.1872 8.81317C27.4109 10.0369 28.2443 11.596 28.5819 13.2933C28.9195 14.9906 28.7462 16.75 28.084 18.3488C27.4217 19.9477 26.3002 21.3143 24.8612 22.2757C23.4223 23.2372 21.7306 23.7504 20 23.7504C17.6801 23.7479 15.456 22.8252 13.8156 21.1848C12.1752 19.5444 11.2525 17.3202 11.25 15.0004Z" fill="#FF6C6C"/>
</g>
<defs>
<clipPath id="clip0_63230_9444">
<rect width="40" height="40" fill="white"/>
</clipPath>
</defs>
</svg>
