<svg width="40" height="40" viewBox="0 0 40 40" fill="none" xmlns="http://www.w3.org/2000/svg">
<g clip-path="url(#clip0_62727_1128)">
<path d="M36.1561 6.92717C36.1561 6.92717 36.1561 6.94279 36.1561 6.95061L27.0624 36.9412C26.9247 37.4283 26.6414 37.8617 26.2504 38.1832C25.8594 38.5046 25.3794 38.6988 24.8749 38.7397C24.803 38.7459 24.7311 38.749 24.6592 38.749C24.1864 38.7505 23.7231 38.6167 23.3238 38.3634C22.9246 38.11 22.6062 37.7478 22.4061 37.3194L16.7186 25.6475C16.6617 25.5305 16.6427 25.3987 16.6643 25.2704C16.6859 25.1421 16.7469 25.0238 16.8389 24.9319L25.8889 15.8819C26.1135 15.6455 26.2368 15.3308 26.2326 15.0049C26.2284 14.6789 26.0971 14.3675 25.8666 14.137C25.6361 13.9065 25.3247 13.7752 24.9987 13.771C24.6728 13.7668 24.3581 13.8901 24.1217 14.1147L15.0671 23.1647C14.9751 23.2567 14.8568 23.3178 14.7285 23.3393C14.6002 23.3609 14.4684 23.3419 14.3514 23.285L2.66862 17.599C2.21178 17.3799 1.83232 17.0271 1.58052 16.5873C1.32873 16.1476 1.21649 15.6418 1.25868 15.1369C1.30087 14.6319 1.4955 14.1517 1.81678 13.7599C2.13805 13.3681 2.5708 13.0831 3.05768 12.9428L33.0483 3.84904H33.0717C33.4988 3.72908 33.95 3.72487 34.3792 3.83686C34.8083 3.94884 35.2 4.17299 35.5139 4.4863C35.8279 4.79961 36.0528 5.1908 36.1657 5.61974C36.2785 6.04868 36.2752 6.49992 36.1561 6.92717Z" fill="#FF6C6C"/>
</g>
<defs>
<clipPath id="clip0_62727_1128">
<rect width="40" height="40" fill="white"/>
</clipPath>
</defs>
</svg>
