<svg width="40" height="40" viewBox="0 0 40 40" fill="none" xmlns="http://www.w3.org/2000/svg">
<g clip-path="url(#clip0_63137_8200)">
<path d="M36.6077 17.9455L29.5765 24.0127L31.7187 33.0861C31.8368 33.5787 31.8064 34.0952 31.6312 34.5705C31.456 35.0457 31.1438 35.4584 30.7342 35.7564C30.3245 36.0543 29.8358 36.2242 29.3297 36.2445C28.8235 36.2648 28.3227 36.1347 27.8905 35.8705L19.9999 31.0142L12.1046 35.8705C11.6724 36.1331 11.1723 36.262 10.667 36.241C10.1617 36.2199 9.67401 36.0498 9.26522 35.7521C8.85643 35.4544 8.54487 35.0424 8.36975 34.568C8.19464 34.0936 8.16381 33.578 8.28115 33.0861L10.4312 24.0127L3.3999 17.9455C3.01756 17.615 2.74104 17.1793 2.60488 16.6926C2.46872 16.2059 2.47895 15.6899 2.6343 15.209C2.78965 14.7281 3.08324 14.3037 3.47839 13.9886C3.87354 13.6736 4.35274 13.482 4.85615 13.4377L14.0749 12.6939L17.6312 4.08767C17.8236 3.61864 18.1513 3.21744 18.5724 2.93508C18.9935 2.65272 19.489 2.50195 19.996 2.50195C20.503 2.50195 20.9985 2.65272 21.4196 2.93508C21.8407 3.21744 22.1683 3.61864 22.3608 4.08767L25.9155 12.6939L35.1343 13.4377C35.6387 13.4803 36.1193 13.6709 36.5159 13.9855C36.9125 14.3001 37.2074 14.7247 37.3637 15.2062C37.52 15.6877 37.5308 16.2046 37.3946 16.6921C37.2585 17.1797 36.9815 17.6162 36.5983 17.947L36.6077 17.9455Z" fill="#FF6C6C"/>
</g>
<defs>
<clipPath id="clip0_63137_8200">
<rect width="40" height="40" fill="white"/>
</clipPath>
</defs>
</svg>
