<svg width="4152" height="80" viewBox="0 0 4152 80" fill="none" xmlns="http://www.w3.org/2000/svg">
<rect width="4152" height="80" fill="#F9EEEE"/>
<path d="M56.6663 31.666L41.6813 41.211C41.1728 41.5064 40.5952 41.6619 40.0072 41.6619C39.4191 41.6619 38.8415 41.5064 38.333 41.211L23.333 31.666" stroke="#FF6C6C" stroke-width="3.33333" stroke-linecap="round" stroke-linejoin="round"/>
<path d="M53.333 26.666H26.6663C24.8254 26.666 23.333 28.1584 23.333 29.9993V49.9993C23.333 51.8403 24.8254 53.3327 26.6663 53.3327H53.333C55.174 53.3327 56.6663 51.8403 56.6663 49.9993V29.9993C56.6663 28.1584 55.174 26.666 53.333 26.666Z" stroke="#FF6C6C" stroke-width="3.33333" stroke-linecap="round" stroke-linejoin="round"/>
<path d="M111.667 38.334H88.3333C86.4924 38.334 85 39.8264 85 41.6673V53.334C85 55.1749 86.4924 56.6673 88.3333 56.6673H111.667C113.508 56.6673 115 55.1749 115 53.334V41.6673C115 39.8264 113.508 38.334 111.667 38.334Z" stroke="#FF6C6C" stroke-width="3.33333" stroke-linecap="round" stroke-linejoin="round"/>
<path d="M91.667 38.334V31.6673C91.667 29.4572 92.545 27.3376 94.1078 25.7748C95.6706 24.212 97.7902 23.334 100 23.334C102.21 23.334 104.33 24.212 105.893 25.7748C107.456 27.3376 108.334 29.4572 108.334 31.6673V38.334" stroke="#FF6C6C" stroke-width="3.33333" stroke-linecap="round" stroke-linejoin="round"/>
<path d="M143.333 35.8323C143.333 33.9776 143.896 32.1666 144.947 30.6384C145.997 29.1102 147.487 27.9367 149.219 27.2729C150.951 26.6092 152.843 26.4863 154.646 26.9207C156.449 27.355 158.078 28.3261 159.318 29.7056C159.405 29.799 159.511 29.8734 159.628 29.9243C159.745 29.9751 159.872 30.0014 160 30.0014C160.127 30.0014 160.254 29.9751 160.371 29.9243C160.488 29.8734 160.594 29.799 160.681 29.7056C161.917 28.3171 163.546 27.3379 165.352 26.8983C167.158 26.4587 169.055 26.5795 170.791 27.2447C172.527 27.91 174.019 29.088 175.068 30.6221C176.118 32.1562 176.675 33.9735 176.666 35.8323C176.666 39.6489 174.166 42.4989 171.666 44.9989L162.513 53.8539C162.202 54.2106 161.82 54.4971 161.39 54.6944C160.96 54.8917 160.493 54.9953 160.02 54.9983C159.547 55.0013 159.079 54.9037 158.647 54.7118C158.215 54.52 157.828 54.2383 157.513 53.8856L148.333 44.9989C145.833 42.4989 143.333 39.6656 143.333 35.8323Z" stroke="#FF6C6C" stroke-width="3.33333" stroke-linecap="round" stroke-linejoin="round"/>
<path d="M214.375 41.875C215.411 41.875 216.25 41.0355 216.25 40C216.25 38.9645 215.411 38.125 214.375 38.125C213.339 38.125 212.5 38.9645 212.5 40C212.5 41.0355 213.339 41.875 214.375 41.875Z" fill="#FF6C6C"/>
<path d="M225.625 41.875C226.661 41.875 227.5 41.0355 227.5 40C227.5 38.9645 226.661 38.125 225.625 38.125C224.589 38.125 223.75 38.9645 223.75 40C223.75 41.0355 224.589 41.875 225.625 41.875Z" fill="#FF6C6C"/>
<path d="M224.375 46.25C223.062 47.067 221.546 47.5 220 47.5C218.454 47.5 216.938 47.067 215.625 46.25" stroke="#FF6C6C" stroke-width="3.33" stroke-linecap="round" stroke-linejoin="round"/>
<path d="M220 55C228.284 55 235 48.2843 235 40C235 31.7157 228.284 25 220 25C211.716 25 205 31.7157 205 40C205 48.2843 211.716 55 220 55Z" stroke="#FF6C6C" stroke-width="3.33" stroke-linecap="round" stroke-linejoin="round"/>
<path d="M220 25C217.5 28.125 217.5 31.25 217.5 31.25C217.5 31.913 217.763 32.5489 218.232 33.0178C218.701 33.4866 219.337 33.75 220 33.75C220.663 33.75 221.299 33.4866 221.768 33.0178C222.237 32.5489 222.5 31.913 222.5 31.25" stroke="#FF6C6C" stroke-width="3.33" stroke-linecap="round" stroke-linejoin="round"/>
<path d="M280 55C288.284 55 295 48.2843 295 40C295 31.7157 288.284 25 280 25C271.716 25 265 31.7157 265 40C265 48.2843 271.716 55 280 55Z" stroke="#FF6C6C" stroke-width="3.33333" stroke-linecap="round" stroke-linejoin="round"/>
<path d="M274.375 38.75C275.411 38.75 276.25 37.9105 276.25 36.875C276.25 35.8395 275.411 35 274.375 35C273.339 35 272.5 35.8395 272.5 36.875C272.5 37.9105 273.339 38.75 274.375 38.75Z" fill="#FF6C6C"/>
<path d="M285.625 38.75C286.661 38.75 287.5 37.9105 287.5 36.875C287.5 35.8395 286.661 35 285.625 35C284.589 35 283.75 35.8395 283.75 36.875C283.75 37.9105 284.589 38.75 285.625 38.75Z" fill="#FF6C6C"/>
<path d="M286.25 43.75C284.953 45.9922 282.777 47.5 280 47.5C277.223 47.5 275.047 45.9922 273.75 43.75" stroke="#FF6C6C" stroke-width="3.33333" stroke-linecap="round" stroke-linejoin="round"/>
<path d="M340 45C345.523 45 350 40.5228 350 35C350 29.4772 345.523 25 340 25C334.477 25 330 29.4772 330 35C330 40.5228 334.477 45 340 45Z" stroke="#FF6C6C" stroke-width="3.33" stroke-linecap="round" stroke-linejoin="round"/>
<path d="M325 53.75C328.027 48.5203 333.523 45 340 45C346.477 45 351.973 48.5203 355 53.75" stroke="#FF6C6C" stroke-width="3.33" stroke-linecap="round" stroke-linejoin="round"/>
<g clip-path="url(#clip0_62535_405)">
<path d="M393.125 45C397.612 45 401.25 41.3623 401.25 36.875C401.25 32.3877 397.612 28.75 393.125 28.75C388.638 28.75 385 32.3877 385 36.875C385 41.3623 388.638 45 393.125 45Z" stroke="#FF6C6C" stroke-width="3.33" stroke-linecap="round" stroke-linejoin="round"/>
<path d="M381.599 51.2494C382.847 49.3296 384.556 47.7521 386.568 46.6601C388.581 45.5681 390.835 44.9961 393.125 44.9961C395.415 44.9961 397.669 45.5681 399.682 46.6601C401.695 47.7521 403.403 49.3296 404.652 51.2494" stroke="#FF6C6C" stroke-width="3.33" stroke-linecap="round" stroke-linejoin="round"/>
<path d="M406.875 45C409.165 44.9987 411.419 45.5697 413.432 46.6612C415.445 47.7528 417.153 49.3302 418.402 51.25" stroke="#FF6C6C" stroke-width="3.33" stroke-linecap="round" stroke-linejoin="round"/>
<path d="M403.857 29.3281C404.969 28.8848 406.164 28.6925 407.359 28.7649C408.553 28.8372 409.717 29.1725 410.767 29.7468C411.816 30.321 412.726 31.12 413.432 32.0867C414.137 33.0534 414.62 34.164 414.846 35.339C415.072 36.514 415.036 37.7244 414.74 38.8838C414.444 40.0433 413.896 41.123 413.135 42.046C412.373 42.9689 411.417 43.7123 410.335 44.223C409.253 44.7336 408.071 44.9989 406.875 45" stroke="#FF6C6C" stroke-width="3.33" stroke-linecap="round" stroke-linejoin="round"/>
</g>
<path d="M470 38.75C471.456 38.7489 472.891 39.0873 474.193 39.7383C475.495 40.3892 476.628 41.3349 477.5 42.5" stroke="#FF6C6C" stroke-width="3.33" stroke-linecap="round" stroke-linejoin="round"/>
<path d="M442.5 42.5C443.372 41.3349 444.505 40.3892 445.807 39.7383C447.109 39.0873 448.544 38.7489 450 38.75" stroke="#FF6C6C" stroke-width="3.33" stroke-linecap="round" stroke-linejoin="round"/>
<path d="M460 48.75C463.452 48.75 466.25 45.9518 466.25 42.5C466.25 39.0482 463.452 36.25 460 36.25C456.548 36.25 453.75 39.0482 453.75 42.5C453.75 45.9518 456.548 48.75 460 48.75Z" stroke="#FF6C6C" stroke-width="3.33" stroke-linecap="round" stroke-linejoin="round"/>
<path d="M451.25 53.75C452.147 52.2273 453.427 50.9651 454.961 50.0882C456.496 49.2112 458.233 48.75 460 48.75C461.767 48.75 463.504 49.2112 465.039 50.0882C466.573 50.9651 467.853 52.2273 468.75 53.75" stroke="#FF6C6C" stroke-width="3.33" stroke-linecap="round" stroke-linejoin="round"/>
<path d="M465.156 32.5C465.39 31.5946 465.873 30.773 466.55 30.1283C467.228 29.4836 468.072 29.0418 468.988 28.853C469.904 28.6642 470.854 28.736 471.731 29.0602C472.608 29.3844 473.377 29.9481 473.95 30.6871C474.522 31.4262 474.876 32.3111 474.972 33.2413C475.067 34.1715 474.899 35.1098 474.488 35.9495C474.076 36.7892 473.438 37.4968 472.645 37.9918C471.851 38.4869 470.935 38.7495 470 38.75" stroke="#FF6C6C" stroke-width="3.33" stroke-linecap="round" stroke-linejoin="round"/>
<path d="M449.999 38.75C449.064 38.7495 448.148 38.4869 447.355 37.9918C446.562 37.4968 445.923 36.7892 445.512 35.9495C445.1 35.1098 444.933 34.1715 445.028 33.2413C445.123 32.3111 445.477 31.4262 446.05 30.6871C446.623 29.9481 447.391 29.3844 448.268 29.0602C449.145 28.736 450.096 28.6642 451.012 28.853C451.927 29.0418 452.772 29.4836 453.449 30.1283C454.126 30.773 454.609 31.5946 454.843 32.5" stroke="#FF6C6C" stroke-width="3.33" stroke-linecap="round" stroke-linejoin="round"/>
<path d="M513.167 46.8324L504.559 43.6605C504.322 43.5729 504.117 43.4147 503.972 43.2071C503.828 42.9995 503.75 42.7526 503.75 42.4996C503.75 42.2466 503.828 41.9997 503.972 41.7921C504.117 41.5845 504.322 41.4263 504.559 41.3387L513.167 38.1668L516.339 29.559C516.426 29.3216 516.585 29.1168 516.792 28.9722C517 28.8275 517.247 28.75 517.5 28.75C517.753 28.75 518 28.8275 518.207 28.9722C518.415 29.1168 518.573 29.3216 518.661 29.559L521.832 38.1668L530.44 41.3387C530.678 41.4263 530.882 41.5845 531.027 41.7921C531.172 41.9997 531.249 42.2466 531.249 42.4996C531.249 42.7526 531.172 42.9995 531.027 43.2071C530.882 43.4147 530.678 43.5729 530.44 43.6605L521.832 46.8324L518.661 55.4402C518.573 55.6776 518.415 55.8824 518.207 56.027C518 56.1717 517.753 56.2492 517.5 56.2492C517.247 56.2492 517 56.1717 516.792 56.027C516.585 55.8824 516.426 55.6776 516.339 55.4402L513.167 46.8324Z" stroke="#FF6C6C" stroke-width="3.33333" stroke-linecap="round" stroke-linejoin="round"/>
<path d="M527.5 22.5V30" stroke="#FF6C6C" stroke-width="3.33333" stroke-linecap="round" stroke-linejoin="round"/>
<path d="M535 31.25V36.25" stroke="#FF6C6C" stroke-width="3.33333" stroke-linecap="round" stroke-linejoin="round"/>
<path d="M523.75 26.25H531.25" stroke="#FF6C6C" stroke-width="3.33333" stroke-linecap="round" stroke-linejoin="round"/>
<path d="M532.5 33.75H537.5" stroke="#FF6C6C" stroke-width="3.33333" stroke-linecap="round" stroke-linejoin="round"/>
<path d="M580 42.5V25" stroke="#FF6C6C" stroke-width="3.33" stroke-linecap="round" stroke-linejoin="round"/>
<path d="M593.75 42.5V52.5H566.25V42.5" stroke="#FF6C6C" stroke-width="3.33" stroke-linecap="round" stroke-linejoin="round"/>
<path d="M573.75 31.25L580 25L586.25 31.25" stroke="#FF6C6C" stroke-width="3.33" stroke-linecap="round" stroke-linejoin="round"/>
<path d="M652.5 26.252H627.5C626.81 26.252 626.25 26.8116 626.25 27.502V52.502C626.25 53.1923 626.81 53.752 627.5 53.752H652.5C653.19 53.752 653.75 53.1923 653.75 52.502V27.502C653.75 26.8116 653.19 26.252 652.5 26.252Z" stroke="#FF6C6C" stroke-width="3.325" stroke-linecap="round" stroke-linejoin="round"/>
<path d="M647.5 23.75V28.75" stroke="#FF6C6C" stroke-width="3.325" stroke-linecap="round" stroke-linejoin="round"/>
<path d="M632.5 23.75V28.75" stroke="#FF6C6C" stroke-width="3.325" stroke-linecap="round" stroke-linejoin="round"/>
<path d="M626.25 33.75H653.75" stroke="#FF6C6C" stroke-width="3.325" stroke-linecap="round" stroke-linejoin="round"/>
<path d="M640 42.5C641.036 42.5 641.875 41.6605 641.875 40.625C641.875 39.5895 641.036 38.75 640 38.75C638.964 38.75 638.125 39.5895 638.125 40.625C638.125 41.6605 638.964 42.5 640 42.5Z" fill="#FF6C6C"/>
<path d="M646.875 42.5C647.911 42.5 648.75 41.6605 648.75 40.625C648.75 39.5895 647.911 38.75 646.875 38.75C645.839 38.75 645 39.5895 645 40.625C645 41.6605 645.839 42.5 646.875 42.5Z" fill="#FF6C6C"/>
<path d="M633.125 48.75C634.161 48.75 635 47.9105 635 46.875C635 45.8395 634.161 45 633.125 45C632.089 45 631.25 45.8395 631.25 46.875C631.25 47.9105 632.089 48.75 633.125 48.75Z" fill="#FF6C6C"/>
<path d="M640 48.75C641.036 48.75 641.875 47.9105 641.875 46.875C641.875 45.8395 641.036 45 640 45C638.964 45 638.125 45.8395 638.125 46.875C638.125 47.9105 638.964 48.75 640 48.75Z" fill="#FF6C6C"/>
<path d="M646.875 48.75C647.911 48.75 648.75 47.9105 648.75 46.875C648.75 45.8395 647.911 45 646.875 45C645.839 45 645 45.8395 645 46.875C645 47.9105 645.839 48.75 646.875 48.75Z" fill="#FF6C6C"/>
<path d="M715 28.75H685C684.31 28.75 683.75 29.3096 683.75 30V50C683.75 50.6904 684.31 51.25 685 51.25H715C715.69 51.25 716.25 50.6904 716.25 50V30C716.25 29.3096 715.69 28.75 715 28.75Z" stroke="#FF6C6C" stroke-width="3.33" stroke-linecap="round" stroke-linejoin="round"/>
<path d="M706.25 46.25H711.25" stroke="#FF6C6C" stroke-width="3.33" stroke-linecap="round" stroke-linejoin="round"/>
<path d="M698.75 46.25H701.25" stroke="#FF6C6C" stroke-width="3.33" stroke-linecap="round" stroke-linejoin="round"/>
<path d="M683.75 35H716.25" stroke="#FF6C6C" stroke-width="3.33" stroke-linecap="round" stroke-linejoin="round"/>
<path d="M746.25 42.5L755 51.25L775 31.25" stroke="#FF6C6C" stroke-width="3.33" stroke-linecap="round" stroke-linejoin="round"/>
<path d="M813.75 41.25L817.5 45L826.25 36.25" stroke="#FF6C6C" stroke-width="3.33" stroke-linecap="round" stroke-linejoin="round"/>
<path d="M820 55C828.284 55 835 48.2843 835 40C835 31.7157 828.284 25 820 25C811.716 25 805 31.7157 805 40C805 48.2843 811.716 55 820 55Z" stroke="#FF6C6C" stroke-width="3.33" stroke-linecap="round" stroke-linejoin="round"/>
<path d="M890 38.75C891.456 38.7489 892.891 39.0873 894.193 39.7383C895.495 40.3892 896.628 41.3349 897.5 42.5" stroke="#FF6C6C" stroke-width="3.33" stroke-linecap="round" stroke-linejoin="round"/>
<path d="M862.5 42.5C863.372 41.3349 864.505 40.3892 865.807 39.7383C867.109 39.0873 868.544 38.7489 870 38.75" stroke="#FF6C6C" stroke-width="3.33" stroke-linecap="round" stroke-linejoin="round"/>
<path d="M880 48.75C883.452 48.75 886.25 45.9518 886.25 42.5C886.25 39.0482 883.452 36.25 880 36.25C876.548 36.25 873.75 39.0482 873.75 42.5C873.75 45.9518 876.548 48.75 880 48.75Z" stroke="#FF6C6C" stroke-width="3.33" stroke-linecap="round" stroke-linejoin="round"/>
<path d="M871.25 53.75C872.147 52.2273 873.427 50.9651 874.961 50.0882C876.496 49.2112 878.233 48.75 880 48.75C881.767 48.75 883.504 49.2112 885.039 50.0882C886.573 50.9651 887.853 52.2273 888.75 53.75" stroke="#FF6C6C" stroke-width="3.33" stroke-linecap="round" stroke-linejoin="round"/>
<path d="M885.156 32.5C885.39 31.5946 885.873 30.773 886.55 30.1283C887.228 29.4836 888.072 29.0418 888.988 28.853C889.904 28.6642 890.854 28.736 891.731 29.0602C892.608 29.3844 893.377 29.9481 893.95 30.6871C894.522 31.4262 894.876 32.3111 894.972 33.2413C895.067 34.1715 894.899 35.1098 894.488 35.9495C894.076 36.7892 893.438 37.4968 892.645 37.9918C891.851 38.4869 890.935 38.7495 890 38.75" stroke="#FF6C6C" stroke-width="3.33" stroke-linecap="round" stroke-linejoin="round"/>
<path d="M870 38.75C869.065 38.7495 868.149 38.4869 867.356 37.9918C866.563 37.4968 865.924 36.7892 865.513 35.9495C865.101 35.1098 864.934 34.1715 865.029 33.2413C865.124 32.3111 865.478 31.4262 866.051 30.6871C866.624 29.9481 867.392 29.3844 868.269 29.0602C869.146 28.736 870.097 28.6642 871.013 28.853C871.928 29.0418 872.773 29.4836 873.45 30.1283C874.127 30.773 874.61 31.5946 874.844 32.5" stroke="#FF6C6C" stroke-width="3.33" stroke-linecap="round" stroke-linejoin="round"/>
<path d="M932.5 51.25C935.261 51.25 937.5 49.0114 937.5 46.25C937.5 43.4886 935.261 41.25 932.5 41.25C929.739 41.25 927.5 43.4886 927.5 46.25C927.5 49.0114 929.739 51.25 932.5 51.25Z" stroke="#FF6C6C" stroke-width="3.33" stroke-linecap="round" stroke-linejoin="round"/>
<path d="M932.5 35C935.261 35 937.5 32.7614 937.5 30C937.5 27.2386 935.261 25 932.5 25C929.739 25 927.5 27.2386 927.5 30C927.5 32.7614 929.739 35 932.5 35Z" stroke="#FF6C6C" stroke-width="3.33" stroke-linecap="round" stroke-linejoin="round"/>
<path d="M947.5 51.25C950.261 51.25 952.5 49.0114 952.5 46.25C952.5 43.4886 950.261 41.25 947.5 41.25C944.739 41.25 942.5 43.4886 942.5 46.25C942.5 49.0114 944.739 51.25 947.5 51.25Z" stroke="#FF6C6C" stroke-width="3.33" stroke-linecap="round" stroke-linejoin="round"/>
<path d="M925 55C925.873 53.8357 927.006 52.8906 928.307 52.2397C929.609 51.5889 931.045 51.25 932.5 51.25C933.955 51.25 935.391 51.5889 936.693 52.2397C937.994 52.8906 939.127 53.8357 940 55C940.873 53.8357 942.006 52.8906 943.307 52.2397C944.609 51.5889 946.045 51.25 947.5 51.25C948.955 51.25 950.391 51.5889 951.693 52.2397C952.994 52.8906 954.127 53.8357 955 55" stroke="#FF6C6C" stroke-width="3.33" stroke-linecap="round" stroke-linejoin="round"/>
<path d="M947.5 35C950.261 35 952.5 32.7614 952.5 30C952.5 27.2386 950.261 25 947.5 25C944.739 25 942.5 27.2386 942.5 30C942.5 32.7614 944.739 35 947.5 35Z" stroke="#FF6C6C" stroke-width="3.33" stroke-linecap="round" stroke-linejoin="round"/>
<path d="M925 38.75C925.873 37.5857 927.006 36.6406 928.307 35.9897C929.609 35.3389 931.045 35 932.5 35C933.955 35 935.391 35.3389 936.693 35.9897C937.994 36.6406 939.127 37.5857 940 38.75C940.873 37.5857 942.006 36.6406 943.307 35.9897C944.609 35.3389 946.045 35 947.5 35C948.955 35 950.391 35.3389 951.693 35.9897C952.994 36.6406 954.127 37.5857 955 38.75" stroke="#FF6C6C" stroke-width="3.33" stroke-linecap="round" stroke-linejoin="round"/>
<g clip-path="url(#clip1_62535_405)">
<path d="M1006.25 26.25C1008.87 27.4704 1011.08 29.4129 1012.63 31.8488C1014.18 34.2847 1015 37.1127 1015 40C1015 43.9782 1013.42 47.7936 1010.61 50.6066C1007.79 53.4196 1003.98 55 1000 55C996.022 55 992.206 53.4196 989.393 50.6066C986.58 47.7936 985 43.9782 985 40C984.997 37.1127 985.819 34.2847 987.37 31.8488C988.92 29.4129 991.133 27.4704 993.75 26.25" stroke="#FF6C6C" stroke-width="3.33" stroke-linecap="round" stroke-linejoin="round"/>
</g>
<path d="M1047.5 26.25L1072.5 53.75" stroke="#FF6C6C" stroke-width="3.33" stroke-linecap="round" stroke-linejoin="round"/>
<path d="M1060 53.75C1061.04 53.75 1061.88 52.9105 1061.88 51.875C1061.88 50.8395 1061.04 50 1060 50C1058.96 50 1058.12 50.8395 1058.12 51.875C1058.12 52.9105 1058.96 53.75 1060 53.75Z" fill="#FF6C6C"/>
<path d="M1051.19 30.3125C1048.49 31.3001 1045.97 32.7364 1043.75 34.5609" stroke="#FF6C6C" stroke-width="3.33" stroke-linecap="round" stroke-linejoin="round"/>
<path d="M1076.25 34.561C1071.67 30.7955 1065.93 28.7409 1060 28.75C1058.9 28.7496 1057.81 28.819 1056.72 28.9578" stroke="#FF6C6C" stroke-width="3.33" stroke-linecap="round" stroke-linejoin="round"/>
<path d="M1056.84 36.5254C1053.88 37.0438 1051.1 38.2919 1048.75 40.1566" stroke="#FF6C6C" stroke-width="3.33" stroke-linecap="round" stroke-linejoin="round"/>
<path d="M1071.25 40.157C1069.04 38.4043 1066.45 37.1933 1063.69 36.6211" stroke="#FF6C6C" stroke-width="3.33" stroke-linecap="round" stroke-linejoin="round"/>
<path d="M1064.19 44.6079C1062.5 43.8836 1060.64 43.6109 1058.81 43.8166C1056.98 44.0223 1055.24 44.6993 1053.75 45.7813" stroke="#FF6C6C" stroke-width="3.33" stroke-linecap="round" stroke-linejoin="round"/>
<path d="M1120 55C1128.28 55 1135 48.2843 1135 40C1135 31.7157 1128.28 25 1120 25C1111.72 25 1105 31.7157 1105 40C1105 48.2843 1111.72 55 1120 55Z" stroke="#FF6C6C" stroke-width="3.33" stroke-miterlimit="10"/>
<path d="M1120 41.25V32.5" stroke="#FF6C6C" stroke-width="3.33" stroke-linecap="round" stroke-linejoin="round"/>
<path d="M1120 48.75C1121.04 48.75 1121.88 47.9105 1121.88 46.875C1121.88 45.8395 1121.04 45 1120 45C1118.96 45 1118.12 45.8395 1118.12 46.875C1118.12 47.9105 1118.96 48.75 1120 48.75Z" fill="#FF6C6C"/>
<path d="M1192.5 52.5H1167.5C1166.84 52.5 1166.2 52.2366 1165.73 51.7678C1165.26 51.2989 1165 50.663 1165 50V32.5C1165 31.837 1165.26 31.2011 1165.73 30.7322C1166.2 30.2634 1166.84 30 1167.5 30H1172.5L1175 26.25H1185L1187.5 30H1192.5C1193.16 30 1193.8 30.2634 1194.27 30.7322C1194.74 31.2011 1195 31.837 1195 32.5V50C1195 50.663 1194.74 51.2989 1194.27 51.7678C1193.8 52.2366 1193.16 52.5 1192.5 52.5Z" stroke="#FF6C6C" stroke-width="3.33" stroke-linecap="round" stroke-linejoin="round"/>
<path d="M1180 46.25C1183.11 46.25 1185.62 43.7316 1185.62 40.625C1185.62 37.5184 1183.11 35 1180 35C1176.89 35 1174.38 37.5184 1174.38 40.625C1174.38 43.7316 1176.89 46.25 1180 46.25Z" stroke="#FF6C6C" stroke-width="3.33" stroke-linecap="round" stroke-linejoin="round"/>
<path d="M1253.75 27.5H1226.25C1225.56 27.5 1225 28.0596 1225 28.75V51.25C1225 51.9404 1225.56 52.5 1226.25 52.5H1253.75C1254.44 52.5 1255 51.9404 1255 51.25V28.75C1255 28.0596 1254.44 27.5 1253.75 27.5Z" stroke="#FF6C6C" stroke-width="3.33" stroke-linecap="round" stroke-linejoin="round"/>
<path d="M1244.38 37.5C1245.41 37.5 1246.25 36.6605 1246.25 35.625C1246.25 34.5895 1245.41 33.75 1244.38 33.75C1243.34 33.75 1242.5 34.5895 1242.5 35.625C1242.5 36.6605 1243.34 37.5 1244.38 37.5Z" fill="#FF6C6C"/>
<path d="M1243.02 45.6252L1247.03 41.6158C1247.27 41.3816 1247.58 41.25 1247.92 41.25C1248.25 41.25 1248.56 41.3816 1248.8 41.6158L1255 47.8221" stroke="#FF6C6C" stroke-width="3.33" stroke-linecap="round" stroke-linejoin="round"/>
<path d="M1225 46.3568L1233.49 37.8647C1233.61 37.7484 1233.74 37.6562 1233.9 37.5933C1234.05 37.5304 1234.21 37.498 1234.38 37.498C1234.54 37.498 1234.7 37.5304 1234.85 37.5933C1235.01 37.6562 1235.14 37.7484 1235.26 37.8647L1249.89 52.499" stroke="#FF6C6C" stroke-width="3.33" stroke-linecap="round" stroke-linejoin="round"/>
<path d="M1287.05 55.9547C1286.87 56.1078 1286.65 56.2059 1286.41 56.2372C1286.18 56.2686 1285.94 56.232 1285.72 56.1318C1285.51 56.0315 1285.32 55.8717 1285.2 55.6713C1285.07 55.4708 1285 55.2379 1285 55V30C1285 29.6685 1285.13 29.3505 1285.37 29.1161C1285.6 28.8817 1285.92 28.75 1286.25 28.75H1313.75C1314.08 28.75 1314.4 28.8817 1314.63 29.1161C1314.87 29.3505 1315 29.6685 1315 30V50C1315 50.3315 1314.87 50.6495 1314.63 50.8839C1314.4 51.1183 1314.08 51.25 1313.75 51.25H1292.5L1287.05 55.9547Z" stroke="#FF6C6C" stroke-width="3.33" stroke-linecap="round" stroke-linejoin="round"/>
<g clip-path="url(#clip2_62535_405)">
<path d="M1370 30H1345C1344.31 30 1343.75 30.5596 1343.75 31.25V48.75C1343.75 49.4404 1344.31 50 1345 50H1370C1370.69 50 1371.25 49.4404 1371.25 48.75V31.25C1371.25 30.5596 1370.69 30 1370 30Z" stroke="#FF6C6C" stroke-width="3.33" stroke-linecap="round" stroke-linejoin="round"/>
<path d="M1371.25 37.5L1378.75 32.5V47.5L1371.25 42.5" stroke="#FF6C6C" stroke-width="3.33" stroke-linecap="round" stroke-linejoin="round"/>
</g>
<g clip-path="url(#clip3_62535_405)">
<path d="M1426.25 30C1426.25 26.5482 1423.45 23.75 1420 23.75C1416.55 23.75 1413.75 26.5482 1413.75 30V40C1413.75 43.4518 1416.55 46.25 1420 46.25C1423.45 46.25 1426.25 43.4518 1426.25 40V30Z" stroke="#FF6C6C" stroke-width="3.33" stroke-linecap="round" stroke-linejoin="round"/>
<path d="M1420 51.25V57.5" stroke="#FF6C6C" stroke-width="3.33" stroke-linecap="round" stroke-linejoin="round"/>
<path d="M1431.25 40C1431.25 42.9837 1430.06 45.8452 1427.95 47.955C1425.85 50.0647 1422.98 51.25 1420 51.25C1417.02 51.25 1414.15 50.0647 1412.05 47.955C1409.94 45.8452 1408.75 42.9837 1408.75 40" stroke="#FF6C6C" stroke-width="3.33" stroke-linecap="round" stroke-linejoin="round"/>
</g>
<path d="M1475 35H1485" stroke="#FF6C6C" stroke-width="3.33" stroke-linecap="round" stroke-linejoin="round"/>
<path d="M1475 40H1485" stroke="#FF6C6C" stroke-width="3.33" stroke-linecap="round" stroke-linejoin="round"/>
<path d="M1475 45H1480" stroke="#FF6C6C" stroke-width="3.33" stroke-linecap="round" stroke-linejoin="round"/>
<path d="M1484.48 53.75H1467.5C1467.17 53.75 1466.85 53.6183 1466.62 53.3839C1466.38 53.1495 1466.25 52.8315 1466.25 52.5V27.5C1466.25 27.1685 1466.38 26.8505 1466.62 26.6161C1466.85 26.3817 1467.17 26.25 1467.5 26.25H1492.5C1492.83 26.25 1493.15 26.3817 1493.38 26.6161C1493.62 26.8505 1493.75 27.1685 1493.75 27.5V44.4828C1493.75 44.8139 1493.62 45.1314 1493.38 45.3656L1485.37 53.3844C1485.13 53.6184 1484.81 53.7498 1484.48 53.75Z" stroke="#FF6C6C" stroke-width="3.33" stroke-linecap="round" stroke-linejoin="round"/>
<path d="M1493.64 44.998H1485V53.6355" stroke="#FF6C6C" stroke-width="3.33" stroke-linecap="round" stroke-linejoin="round"/>
<path d="M1551.25 28.75L1528.75 51.25" stroke="#FF6C6C" stroke-width="4.17" stroke-linecap="round" stroke-linejoin="round"/>
<path d="M1551.25 51.25L1528.75 28.75" stroke="#FF6C6C" stroke-width="4.17" stroke-linecap="round" stroke-linejoin="round"/>
<path d="M1594.48 53.7502H1587.5C1587.17 53.7502 1586.85 53.6185 1586.62 53.3841C1586.38 53.1497 1586.25 52.8317 1586.25 52.5002V45.5174C1586.25 45.1863 1586.38 44.8688 1586.62 44.6346L1605.88 25.3658C1606.12 25.1316 1606.44 25 1606.77 25C1607.1 25 1607.42 25.1316 1607.65 25.3658L1614.63 32.344C1614.87 32.5783 1615 32.8962 1615 33.2275C1615 33.5589 1614.87 33.8767 1614.63 34.1111L1595.37 53.3846C1595.13 53.6186 1594.81 53.75 1594.48 53.7502Z" stroke="#FF6C6C" stroke-width="3.33" stroke-linecap="round" stroke-linejoin="round"/>
<path d="M1601.25 30L1610 38.75" stroke="#FF6C6C" stroke-width="3.33" stroke-linecap="round" stroke-linejoin="round"/>
<path d="M1652.49 52.9864C1655.64 54.81 1659.35 55.4254 1662.92 54.718C1666.49 54.0106 1669.68 52.0286 1671.9 49.1416C1674.12 46.2546 1675.21 42.6596 1674.97 39.0268C1674.73 35.3941 1673.18 31.9715 1670.61 29.3973C1668.03 26.8231 1664.61 25.2729 1660.98 25.0358C1657.35 24.7986 1653.75 25.8907 1650.86 28.1084C1647.98 30.3262 1646 33.5181 1645.29 37.0892C1644.58 40.6603 1645.2 44.3668 1647.02 47.5176L1645.07 53.3536C1644.99 53.5738 1644.98 53.8102 1645.03 54.0361C1645.09 54.2621 1645.2 54.4687 1645.37 54.6329C1645.53 54.7971 1645.74 54.9123 1645.96 54.9656C1646.19 55.0189 1646.43 55.0083 1646.65 54.9348L1652.49 52.9864Z" stroke="#FF6C6C" stroke-width="3.33" stroke-linecap="round" stroke-linejoin="round"/>
<path d="M1720 33.75C1720 32.4239 1720.53 31.1521 1721.46 30.2145C1722.4 29.2768 1723.67 28.75 1725 28.75H1736.25V51.25H1725C1723.67 51.25 1722.4 51.7768 1721.46 52.7145C1720.53 53.6521 1720 54.9239 1720 56.25" stroke="#FF6C6C" stroke-width="3.33" stroke-linecap="round" stroke-linejoin="round"/>
<path d="M1703.75 51.25H1715C1716.33 51.25 1717.6 51.7768 1718.54 52.7145C1719.47 53.6521 1720 54.9239 1720 56.25V33.75C1720 32.4239 1719.47 31.1521 1718.54 30.2145C1717.6 29.2768 1716.33 28.75 1715 28.75H1703.75V51.25Z" stroke="#FF6C6C" stroke-width="3.33" stroke-linecap="round" stroke-linejoin="round"/>
<g clip-path="url(#clip4_62535_405)">
<path d="M1776.88 43.125L1785 35" stroke="#FF6C6C" stroke-width="3.33" stroke-linecap="round" stroke-linejoin="round"/>
<path d="M1794.95 26.591C1795.01 26.3772 1795.01 26.1512 1794.96 25.9362C1794.9 25.7213 1794.79 25.5252 1794.63 25.3681C1794.48 25.211 1794.28 25.0986 1794.06 25.0425C1793.85 24.9864 1793.62 24.9886 1793.41 25.0488L1763.41 34.1457C1763.16 34.2148 1762.95 34.357 1762.78 34.5534C1762.62 34.7497 1762.52 34.9908 1762.5 35.2444C1762.48 35.498 1762.54 35.7521 1762.67 35.9726C1762.79 36.1931 1762.98 36.3696 1763.21 36.4785L1776.88 43.1254L1783.52 56.7848C1783.63 57.0148 1783.81 57.2061 1784.03 57.3331C1784.25 57.4601 1784.5 57.5168 1784.76 57.4956C1785.01 57.4743 1785.25 57.3762 1785.45 57.2143C1785.64 57.0524 1785.79 56.8344 1785.85 56.5894L1794.95 26.591Z" stroke="#FF6C6C" stroke-width="3.33" stroke-linecap="round" stroke-linejoin="round"/>
</g>
<path d="M1833.26 29.314C1834.92 29.314 1836.27 27.9683 1836.27 26.3084C1836.27 24.6484 1834.92 23.3027 1833.26 23.3027C1831.6 23.3027 1830.26 24.6484 1830.26 26.3084C1830.26 27.9683 1831.6 29.314 1833.26 29.314Z" fill="#FF6C6C"/>
<path d="M1846.62 29.314C1848.28 29.314 1849.63 27.9683 1849.63 26.3084C1849.63 24.6484 1848.28 23.3027 1846.62 23.3027C1844.96 23.3027 1843.61 24.6484 1843.61 26.3084C1843.61 27.9683 1844.96 29.314 1846.62 29.314Z" fill="#FF6C6C"/>
<path d="M1836.94 41.3061V33.4848L1837.38 33.5082C1837.8 33.5416 1838.22 33.5783 1838.64 33.6184C1838.78 33.4113 1838.92 33.2009 1839.06 32.9872C1839.49 32.3329 1839.98 31.7192 1840.52 31.1538C1840.64 31.0269 1840.77 30.9044 1840.9 30.7864C1839.84 30.5827 1838.79 30.4191 1837.72 30.2855C1836.54 30.1486 1835.39 30.0383 1834.2 30.0016C1833.91 29.9816 1833.61 29.9816 1833.32 29.9816C1833.17 29.9816 1833.02 29.9816 1832.87 29.9816H1832.39C1831.73 30.0084 1831.07 30.0854 1830.42 30.212C1829.03 30.4551 1827.71 31.048 1826.61 31.9352C1825.42 32.9131 1824.63 34.3017 1824.4 35.8292C1824.35 36.2471 1824.35 36.6702 1824.4 37.0882C1824.46 37.4872 1824.56 37.8783 1824.71 38.2537C1824.95 38.8758 1825.26 39.4702 1825.63 40.027C1826.31 41.0534 1827.07 42.0149 1827.93 42.8991C1828.33 43.3259 1828.97 43.4345 1829.5 43.1662L1828.92 55.2989C1828.88 56.0187 1829.43 56.6378 1830.14 56.6982H1830.26C1830.94 56.7029 1831.51 56.1952 1831.59 55.5193L1833.03 43.3399H1833.49L1834.93 55.5193C1835.01 56.1952 1835.59 56.7029 1836.27 56.6982H1836.38C1837.1 56.6396 1837.64 56.0199 1837.6 55.2989L1836.94 41.3061ZM1829.59 40.6883C1829.06 39.9973 1828.57 39.2709 1828.14 38.5142C1827.91 38.1068 1827.71 37.6785 1827.56 37.2351C1827.51 37.0773 1827.47 36.9136 1827.46 36.7476C1827.46 36.5994 1827.47 36.4516 1827.5 36.3067C1827.66 35.5677 1828.08 34.911 1828.69 34.4566C1828.96 34.2418 1829.27 34.0624 1829.59 33.9223V40.6883Z" fill="#FF6C6C"/>
<path d="M1855.64 41.1328C1855.4 38.8418 1855.05 36.434 1853.79 34.093C1853.14 32.8413 1852.16 31.7868 1850.96 31.0372C1850.33 30.6614 1849.65 30.3844 1848.94 30.2157C1848.25 30.052 1847.55 29.9735 1846.84 29.9819C1846.12 29.9854 1845.41 30.0887 1844.72 30.2892C1844 30.503 1843.32 30.8421 1842.72 31.291C1842.16 31.7176 1841.66 32.2124 1841.23 32.7638C1840.85 33.2446 1840.49 33.7451 1840.17 34.2633C1839.63 35.1496 1839.03 35.9907 1838.36 36.778L1838.28 36.8681V40.4348C1839.08 40.0321 1839.83 39.5147 1840.48 38.8986C1841.35 38.0339 1842.12 37.0853 1842.8 36.0666L1842.95 35.8529V41.3064L1842.29 55.2993C1842.25 56.0179 1842.79 56.6365 1843.5 56.6986H1843.62C1844.3 56.7032 1844.87 56.1955 1844.95 55.5197L1846.39 43.3402H1846.85L1848.29 55.5197C1848.37 56.1955 1848.95 56.7032 1849.63 56.6986H1849.74C1850.46 56.6382 1851 56.019 1850.96 55.2993L1850.29 41.3064V34.7175C1850.56 35.0143 1850.8 35.3376 1851.01 35.6826C1851.51 36.5431 1851.9 37.4602 1852.18 38.4144C1852.52 39.4162 1852.74 40.4615 1852.98 41.5369V41.5636C1853.12 42.2876 1853.83 42.7596 1854.55 42.6178C1855.24 42.4821 1855.71 41.8298 1855.62 41.1294L1855.64 41.1328Z" fill="#FF6C6C"/>
<path d="M1900 41.1709C1902.62 43.6887 1906.15 45.1572 1909.88 45.1572C1910.13 45.1572 1910.37 45.1496 1910.62 45.1367C1910.57 48.6417 1907.78 51.5246 1904.31 51.7109L1903.79 51.7393L1903.38 52.0547C1902.44 52.7805 1901.27 53.2109 1900 53.2109C1898.73 53.2109 1897.56 52.7805 1896.62 52.0547L1896.21 51.7393L1895.69 51.7109C1892.22 51.5244 1889.43 48.6421 1889.38 45.1377C1889.62 45.1503 1889.87 45.1572 1890.12 45.1572C1893.85 45.1572 1897.38 43.6884 1900 41.1709ZM1896.05 32.9326H1903.95C1907.52 32.9326 1910.47 35.7931 1910.62 39.3369C1910.37 39.3582 1910.12 39.3701 1909.88 39.3701C1906.94 39.3701 1904.19 37.8272 1902.66 35.3252L1902.51 35.0801L1902.41 34.9141C1901.91 34.1605 1901.09 33.6824 1900.19 33.6221L1900 33.6152C1899.02 33.6152 1898.12 34.1067 1897.58 34.9141L1897.48 35.0801C1895.98 37.7259 1893.15 39.3701 1890.12 39.3701C1889.87 39.3701 1889.63 39.3589 1889.38 39.3379C1889.53 35.7937 1892.48 32.9328 1896.05 32.9326ZM1898.06 26.7881H1901.94C1902.49 26.7881 1903.01 26.9173 1903.48 27.1445H1896.52C1896.99 26.9172 1897.51 26.7881 1898.06 26.7881Z" stroke="#FF6C6C" stroke-width="3.33"/>
<path d="M1961.5 26.7432C1964.63 26.7433 1967.39 28.3141 1969.05 30.707L1968.85 29.7266L1972.45 32.6475C1974.5 34.3189 1975.83 36.8733 1975.83 39.6992V40C1975.83 42.5952 1974.38 44.8502 1972.25 46L1969.59 47.4385C1967.87 50.8838 1964.32 53.2567 1960.21 53.2568H1959.79C1955.68 53.2568 1952.12 50.884 1950.41 47.4385L1947.75 46C1945.62 44.8502 1944.17 42.5952 1944.17 40V39.6992C1944.17 36.8733 1945.5 34.3189 1947.55 32.6475L1951.14 29.7266L1950.95 30.708C1952.61 28.3142 1955.37 26.7432 1958.5 26.7432H1961.5Z" stroke="#FF6C6C" stroke-width="3.33"/>
<path d="M2030.62 53.1523C2030.6 53.1856 2030.59 53.2159 2030.57 53.2432H2030.56C2030.58 53.2131 2030.6 53.1826 2030.61 53.1523H2030.62ZM2020 26.7568C2027.24 26.7569 2033.15 32.7357 2033.15 40C2033.15 42.7883 2032.83 45.2598 2032.41 47.3008C2032.43 47.0082 2032.44 46.7133 2032.44 46.416C2032.44 43.0953 2031.63 40.8063 2030.8 38.416L2030.8 38.4131L2030.72 38.208C2029.07 33.9765 2023.36 33.3121 2020.75 37.0088C2020.33 37.6114 2019.33 38.2458 2017.77 38.7549C2016.26 39.2433 2014.5 39.5315 2012.88 39.6406L2012.87 39.6416C2009.89 39.8463 2007.56 42.3438 2007.56 45.334V46.7354C2007.56 46.8918 2007.56 47.0478 2007.57 47.2031C2007.16 45.1812 2006.85 42.7438 2006.85 40C2006.85 32.7356 2012.76 26.7568 2020 26.7568Z" stroke="#FF6C6C" stroke-width="3.33"/>
<path d="M2025.3 40.9619C2025.98 42.9085 2026.42 44.3619 2026.42 46.416C2026.42 50.0988 2023.7 53.243 2020 53.2432C2016.49 53.2432 2013.58 50.2977 2013.58 46.7363V45.6279C2014.94 45.5227 2017.08 45.2639 2019.24 44.6074C2021.35 43.9662 2023.72 42.8755 2025.3 40.9619Z" stroke="#FF6C6C" stroke-width="3.33"/>
<path d="M2082.09 26.5605C2085.91 25.6724 2089.55 28.5 2089.68 32.3789C2089.59 32.373 2089.49 32.3678 2089.38 32.3672C2089.27 32.3665 2089.12 32.3394 2088.99 32.2881C2088.85 32.2331 2088.81 32.1839 2088.83 32.207L2088.82 32.1953L2084.62 27.791L2083.42 26.5244L2082.21 27.7939L2080.28 29.8271C2078.78 31.4076 2076.56 32.3622 2074.37 32.3623H2074.29C2074.26 32.3624 2074.22 32.3632 2074.16 32.3633C2074.05 32.3634 2073.9 32.3634 2073.73 32.3633C2073.38 32.363 2072.94 32.3617 2072.49 32.3613C2071.66 32.3607 2070.66 32.3593 2070.5 32.3711C2070.03 32.4052 2069.57 32.4781 2069.12 32.5869C2068.96 30.7243 2069.16 28.8326 2069.7 27.0605C2071.97 28.0165 2074.52 28.3096 2077.01 27.7432L2077.02 27.7422L2082.09 26.5605ZM2072.45 42.5381L2070.89 42.4414C2069.82 42.375 2068.97 41.4856 2068.97 40.4004C2068.97 39.3255 2069.8 38.4443 2070.86 38.3613L2074.35 38.3604C2077.65 38.3664 2080.85 37.1822 2083.35 35.1455L2084.48 36.3359V36.3369C2085.74 37.6543 2087.45 38.3077 2089.16 38.3604C2090.15 38.3906 2091.03 39.2674 2091.03 40.4004C2091.03 41.4858 2090.18 42.3757 2089.11 42.4414L2087.55 42.5371V45.4619C2087.55 50.0573 2084.07 53.6016 2080 53.6025C2075.8 53.5897 2072.45 49.9156 2072.45 45.4639V42.5381Z" stroke="#FF6C6C" stroke-width="3.33"/>
<g clip-path="url(#clip5_62535_405)">
<path d="M2151.25 43.75L2145 50L2135 47.5L2126.25 41.25" stroke="#FF6C6C" stroke-width="3.33" stroke-linecap="round" stroke-linejoin="round"/>
<path d="M2131.36 31.0359L2140 28.75L2148.64 31.0359" stroke="#FF6C6C" stroke-width="3.33" stroke-linecap="round" stroke-linejoin="round"/>
<path d="M2125.37 29.4404L2121.38 37.4186C2121.23 37.7149 2121.21 38.0579 2121.31 38.3723C2121.42 38.6867 2121.64 38.9467 2121.94 39.0951L2126.25 41.2498L2131.36 31.0358L2127.05 28.8826C2126.9 28.809 2126.74 28.765 2126.58 28.7532C2126.41 28.7414 2126.25 28.762 2126.09 28.8138C2125.94 28.8656 2125.79 28.9476 2125.67 29.0551C2125.55 29.1627 2125.44 29.2936 2125.37 29.4404Z" stroke="#FF6C6C" stroke-width="3.33" stroke-linecap="round" stroke-linejoin="round"/>
<path d="M2153.75 41.2498L2158.06 39.0951C2158.36 38.9467 2158.58 38.6867 2158.69 38.3723C2158.79 38.0579 2158.77 37.7149 2158.62 37.4186L2154.63 29.4404C2154.56 29.2936 2154.46 29.1627 2154.33 29.0551C2154.21 28.9476 2154.06 28.8656 2153.91 28.8138C2153.75 28.762 2153.59 28.7414 2153.42 28.7532C2153.26 28.765 2153.1 28.809 2152.95 28.8826L2148.64 31.0358L2153.75 41.2498Z" stroke="#FF6C6C" stroke-width="3.33" stroke-linecap="round" stroke-linejoin="round"/>
<path d="M2148.75 31.25H2142.5L2135.37 38.1703C2135.23 38.3029 2135.13 38.4636 2135.07 38.6405C2135.01 38.8174 2134.99 39.0061 2135.01 39.1925C2135.03 39.3788 2135.09 39.5582 2135.19 39.7171C2135.29 39.8761 2135.42 40.0107 2135.58 40.1109C2138.32 41.8594 2142.03 41.7391 2145 38.75L2151.25 43.75L2153.75 41.25" stroke="#FF6C6C" stroke-width="3.33" stroke-linecap="round" stroke-linejoin="round"/>
<path d="M2139.38 53.75L2132.87 52.1203L2128.75 49.1797" stroke="#FF6C6C" stroke-width="3.33" stroke-linecap="round" stroke-linejoin="round"/>
</g>
<path d="M2186.25 40H2213.75" stroke="#FF6C6C" stroke-width="3.33" stroke-linecap="round" stroke-linejoin="round"/>
<path d="M2200 26.25V53.75" stroke="#FF6C6C" stroke-width="3.33" stroke-linecap="round" stroke-linejoin="round"/>
<path d="M2260 55C2268.28 55 2275 48.2843 2275 40C2275 31.7157 2268.28 25 2260 25C2251.72 25 2245 31.7157 2245 40C2245 48.2843 2251.72 55 2260 55Z" stroke="#FF6C6C" stroke-width="3.33" stroke-linecap="round" stroke-linejoin="round"/>
<path d="M2260 31.25V40H2268.75" stroke="#FF6C6C" stroke-width="3.33" stroke-linecap="round" stroke-linejoin="round"/>
<path d="M2320 33.75C2321.04 33.75 2321.88 32.9105 2321.88 31.875C2321.88 30.8395 2321.04 30 2320 30C2318.96 30 2318.12 30.8395 2318.12 31.875C2318.12 32.9105 2318.96 33.75 2320 33.75Z" fill="#FF6C6C"/>
<path d="M2313.12 37.5C2314.16 37.5 2315 36.6605 2315 35.625C2315 34.5895 2314.16 33.75 2313.12 33.75C2312.09 33.75 2311.25 34.5895 2311.25 35.625C2311.25 36.6605 2312.09 37.5 2313.12 37.5Z" fill="#FF6C6C"/>
<path d="M2313.12 46.25C2314.16 46.25 2315 45.4105 2315 44.375C2315 43.3395 2314.16 42.5 2313.12 42.5C2312.09 42.5 2311.25 43.3395 2311.25 44.375C2311.25 45.4105 2312.09 46.25 2313.12 46.25Z" fill="#FF6C6C"/>
<path d="M2326.88 37.5C2327.91 37.5 2328.75 36.6605 2328.75 35.625C2328.75 34.5895 2327.91 33.75 2326.88 33.75C2325.84 33.75 2325 34.5895 2325 35.625C2325 36.6605 2325.84 37.5 2326.88 37.5Z" fill="#FF6C6C"/>
<path d="M2320 50.0008C2320 49.0062 2320.4 48.0524 2321.1 47.3491C2321.8 46.6458 2322.76 46.2508 2323.75 46.2508H2330.97C2331.82 46.2509 2332.64 45.9627 2333.31 45.4333C2333.97 44.9039 2334.44 44.1647 2334.63 43.3367C2334.88 42.1998 2335.01 41.0368 2335 39.8711C2334.93 31.6179 2328.1 24.9179 2319.84 25.0008C2315.89 25.0419 2312.12 26.6404 2309.34 29.449C2306.56 32.2576 2305 36.0494 2305 40.0008C2305 46.5336 2309.18 51.4758 2315 53.5336C2315.57 53.7335 2316.17 53.7949 2316.76 53.7126C2317.36 53.6303 2317.92 53.4067 2318.41 53.0607C2318.9 52.7146 2319.3 52.2562 2319.58 51.7237C2319.86 51.1913 2320 50.6005 2320 50.0008Z" stroke="#FF6C6C" stroke-width="3.33" stroke-linecap="round" stroke-linejoin="round"/>
<g clip-path="url(#clip6_62535_405)">
<path d="M2380 55C2388.28 55 2395 48.2843 2395 40C2395 31.7157 2388.28 25 2380 25C2371.72 25 2365 31.7157 2365 40C2365 48.2843 2371.72 55 2380 55Z" stroke="#FF6C6C" stroke-width="3.33" stroke-linecap="round" stroke-linejoin="round"/>
<path d="M2378.75 38.75C2379.08 38.75 2379.4 38.8817 2379.63 39.1161C2379.87 39.3505 2380 39.6685 2380 40V46.25C2380 46.5815 2380.13 46.8995 2380.37 47.1339C2380.6 47.3683 2380.92 47.5 2381.25 47.5" stroke="#FF6C6C" stroke-width="3.33" stroke-linecap="round" stroke-linejoin="round"/>
<path d="M2379.38 35C2380.41 35 2381.25 34.1605 2381.25 33.125C2381.25 32.0895 2380.41 31.25 2379.38 31.25C2378.34 31.25 2377.5 32.0895 2377.5 33.125C2377.5 34.1605 2378.34 35 2379.38 35Z" fill="#FF6C6C"/>
</g>
<path d="M2453.75 28.75H2426.25" stroke="#FF6C6C" stroke-width="2.5" stroke-linecap="round" stroke-linejoin="round"/>
<path d="M2436.25 36.25V46.25" stroke="#FF6C6C" stroke-width="3.33" stroke-linecap="round" stroke-linejoin="round"/>
<path d="M2443.75 36.25V46.25" stroke="#FF6C6C" stroke-width="3.33" stroke-linecap="round" stroke-linejoin="round"/>
<path d="M2451.25 28.75V52.5C2451.25 52.8315 2451.12 53.1495 2450.88 53.3839C2450.65 53.6183 2450.33 53.75 2450 53.75H2430C2429.67 53.75 2429.35 53.6183 2429.12 53.3839C2428.88 53.1495 2428.75 52.8315 2428.75 52.5V28.75" stroke="#FF6C6C" stroke-width="3.33" stroke-linecap="round" stroke-linejoin="round"/>
<path d="M2446.25 28.75V26.25C2446.25 25.587 2445.99 24.9511 2445.52 24.4822C2445.05 24.0134 2444.41 23.75 2443.75 23.75H2436.25C2435.59 23.75 2434.95 24.0134 2434.48 24.4822C2434.01 24.9511 2433.75 25.587 2433.75 26.25V28.75" stroke="#FF6C6C" stroke-width="3.33" stroke-linecap="round" stroke-linejoin="round"/>
<path d="M2500 50C2501.04 50 2501.88 49.1605 2501.88 48.125C2501.88 47.0895 2501.04 46.25 2500 46.25C2498.96 46.25 2498.12 47.0895 2498.12 48.125C2498.12 49.1605 2498.96 50 2500 50Z" fill="#FF6C6C"/>
<path d="M2500 42.5V41.25C2502.76 41.25 2505 39.2906 2505 36.875C2505 34.4594 2502.76 32.5 2500 32.5C2497.24 32.5 2495 34.4594 2495 36.875V37.5" stroke="#FF6C6C" stroke-width="3.33" stroke-linecap="round" stroke-linejoin="round"/>
<path d="M2500 55C2508.28 55 2515 48.2843 2515 40C2515 31.7157 2508.28 25 2500 25C2491.72 25 2485 31.7157 2485 40C2485 48.2843 2491.72 55 2500 55Z" stroke="#FF6C6C" stroke-width="3.33" stroke-linecap="round" stroke-linejoin="round"/>
<path d="M2551.25 26.2307V53.7682C2551.25 53.9879 2551.32 54.2027 2551.43 54.3909C2551.54 54.5791 2551.7 54.734 2551.9 54.84C2552.09 54.946 2552.31 54.9993 2552.53 54.9947C2552.75 54.9901 2552.96 54.9276 2553.15 54.8135L2575.66 41.0448C2575.84 40.9359 2575.99 40.7825 2576.09 40.5994C2576.2 40.4163 2576.25 40.2096 2576.25 39.9994C2576.25 39.7892 2576.2 39.5826 2576.09 39.3995C2575.99 39.2164 2575.84 39.063 2575.66 38.9541L2553.15 25.1854C2552.96 25.0713 2552.75 25.0088 2552.53 25.0042C2552.31 24.9995 2552.09 25.0529 2551.9 25.1589C2551.7 25.2649 2551.54 25.4198 2551.43 25.608C2551.32 25.7962 2551.25 26.0109 2551.25 26.2307Z" stroke="#FF6C6C" stroke-width="3.33" stroke-linecap="round" stroke-linejoin="round"/>
<path d="M2632.5 33.75H2607.5C2606.81 33.75 2606.25 34.3096 2606.25 35V52.5C2606.25 53.1904 2606.81 53.75 2607.5 53.75H2632.5C2633.19 53.75 2633.75 53.1904 2633.75 52.5V35C2633.75 34.3096 2633.19 33.75 2632.5 33.75Z" stroke="#FF6C6C" stroke-width="3.33" stroke-linecap="round" stroke-linejoin="round"/>
<path d="M2613.75 33.75V28.75C2613.75 27.0924 2614.41 25.5027 2615.58 24.3306C2616.75 23.1585 2618.34 22.5 2620 22.5C2623.02 22.5 2625.67 24.6469 2626.25 27.5" stroke="#FF6C6C" stroke-width="3.33" stroke-linecap="round" stroke-linejoin="round"/>
<path d="M2693.89 52.5H2666.15C2665.85 52.4992 2665.55 52.3774 2665.34 52.1613C2665.12 51.9453 2665 51.6524 2665 51.3469V32.5H2693.75C2694.08 32.5 2694.4 32.6317 2694.63 32.8661C2694.87 33.1005 2695 33.4185 2695 33.75V51.3891C2695 51.6837 2694.88 51.9663 2694.67 52.1746C2694.47 52.383 2694.18 52.5 2693.89 52.5Z" stroke="#FF6C6C" stroke-width="3.33" stroke-linecap="round" stroke-linejoin="round"/>
<path d="M2665 32.5V28.75C2665 28.4185 2665.13 28.1005 2665.37 27.8661C2665.6 27.6317 2665.92 27.5 2666.25 27.5H2674.48C2674.81 27.5002 2675.13 27.6316 2675.37 27.8656L2680 32.5" stroke="#FF6C6C" stroke-width="3.33" stroke-linecap="round" stroke-linejoin="round"/>
<path d="M2725.25 42.7344C2724.6 39.2213 2725.22 35.5913 2727.01 32.4977C2728.8 29.4041 2731.63 27.0501 2735 25.8594V37.1094L2725.25 42.7344Z" stroke="#FF6C6C" stroke-width="3.33" stroke-linecap="round" stroke-linejoin="round"/>
<path d="M2740 40.0656V25C2742.63 25.0004 2745.21 25.6912 2747.49 27.0034C2749.76 28.3155 2751.66 30.2028 2752.97 32.4764C2754.29 34.75 2754.99 37.33 2755 39.958C2755 42.586 2754.32 45.1699 2753.02 47.4508C2751.71 49.7317 2749.83 51.6296 2747.56 52.9545C2745.29 54.2793 2742.71 54.9846 2740.08 54.9998C2737.46 55.0149 2734.87 54.3393 2732.59 53.0406C2730.3 51.7419 2728.4 49.8658 2727.07 47.6L2740 40.0656Z" stroke="#FF6C6C" stroke-width="2.5" stroke-linecap="round" stroke-linejoin="round"/>
<path d="M2800 46.25C2803.45 46.25 2806.25 43.4518 2806.25 40C2806.25 36.5482 2803.45 33.75 2800 33.75C2796.55 33.75 2793.75 36.5482 2793.75 40C2793.75 43.4518 2796.55 46.25 2800 46.25Z" stroke="#FF6C6C" stroke-width="3.33" stroke-linecap="round" stroke-linejoin="round"/>
<path d="M2786.47 47.827C2785.78 46.6373 2785.25 45.361 2784.9 44.0316L2787.52 40.7504C2787.49 40.2487 2787.49 39.7458 2787.52 39.2441L2784.9 35.9629C2785.25 34.6333 2785.78 33.3565 2786.47 32.166L2790.65 31.6973C2790.98 31.3218 2791.33 30.9665 2791.71 30.6332L2792.18 26.4613C2793.37 25.7754 2794.64 25.2505 2795.97 24.9004L2799.25 27.5223C2799.75 27.4926 2800.25 27.4926 2800.76 27.5223L2804.04 24.902C2805.37 25.255 2806.64 25.783 2807.83 26.4723L2808.3 30.6457C2808.68 30.979 2809.03 31.3343 2809.37 31.7098L2813.54 32.1785C2814.23 33.3681 2814.76 34.6445 2815.11 35.9738L2812.49 39.2551C2812.52 39.7567 2812.52 40.2597 2812.49 40.7613L2815.11 44.0426C2814.76 45.3718 2814.24 46.6485 2813.55 47.8395L2809.38 48.3082C2809.04 48.6837 2808.69 49.039 2808.31 49.3723L2807.84 53.5441C2806.65 54.2348 2805.38 54.7639 2804.05 55.1176L2800.77 52.4957C2800.26 52.5254 2799.76 52.5254 2799.26 52.4957L2795.98 55.116C2794.65 54.7655 2793.37 54.24 2792.18 53.5535L2791.71 49.3801C2791.34 49.0468 2790.98 48.6915 2790.65 48.316L2786.47 47.827Z" stroke="#FF6C6C" stroke-width="3.33" stroke-linecap="round" stroke-linejoin="round"/>
<path d="M2870 53.75V26.25C2870 24.8693 2868.88 23.75 2867.5 23.75H2852.5C2851.12 23.75 2850 24.8693 2850 26.25V53.75C2850 55.1307 2851.12 56.25 2852.5 56.25H2867.5C2868.88 56.25 2870 55.1307 2870 53.75Z" stroke="#FF6C6C" stroke-width="3.33" stroke-linecap="round" stroke-linejoin="round"/>
<path d="M2860 31.25C2861.04 31.25 2861.88 30.4105 2861.88 29.375C2861.88 28.3395 2861.04 27.5 2860 27.5C2858.96 27.5 2858.12 28.3395 2858.12 29.375C2858.12 30.4105 2858.96 31.25 2860 31.25Z" fill="#FF6C6C"/>
<path d="M2906.25 28.75V51.25" stroke="#FF6C6C" stroke-width="3.33" stroke-linecap="round" stroke-linejoin="round"/>
<path d="M2917.5 35V40" stroke="#FF6C6C" stroke-width="3.33" stroke-linecap="round" stroke-linejoin="round"/>
<path d="M2912.75 38.4551L2917.5 40.0004" stroke="#FF6C6C" stroke-width="3.33" stroke-linecap="round" stroke-linejoin="round"/>
<path d="M2914.56 44.0453L2917.5 40" stroke="#FF6C6C" stroke-width="3.33" stroke-linecap="round" stroke-linejoin="round"/>
<path d="M2920.44 44.0453L2917.5 40" stroke="#FF6C6C" stroke-width="3.33" stroke-linecap="round" stroke-linejoin="round"/>
<path d="M2922.25 38.4551L2917.5 40.0004" stroke="#FF6C6C" stroke-width="3.33" stroke-linecap="round" stroke-linejoin="round"/>
<path d="M2932.5 35V40" stroke="#FF6C6C" stroke-width="3.33" stroke-linecap="round" stroke-linejoin="round"/>
<path d="M2927.75 38.4551L2932.5 40.0004" stroke="#FF6C6C" stroke-width="3.33" stroke-linecap="round" stroke-linejoin="round"/>
<path d="M2929.56 44.0453L2932.5 40" stroke="#FF6C6C" stroke-width="3.33" stroke-linecap="round" stroke-linejoin="round"/>
<path d="M2935.44 44.0453L2932.5 40" stroke="#FF6C6C" stroke-width="3.33" stroke-linecap="round" stroke-linejoin="round"/>
<path d="M2937.25 38.4551L2932.5 40.0004" stroke="#FF6C6C" stroke-width="3.33" stroke-linecap="round" stroke-linejoin="round"/>
<path d="M2980 41.25C2982.76 41.25 2985 39.0114 2985 36.25C2985 33.4886 2982.76 31.25 2980 31.25C2977.24 31.25 2975 33.4886 2975 36.25C2975 39.0114 2977.24 41.25 2980 41.25Z" stroke="#FF6C6C" stroke-width="3.33" stroke-linecap="round" stroke-linejoin="round"/>
<path d="M2992.5 36.25C2992.5 47.5 2980 56.25 2980 56.25C2980 56.25 2967.5 47.5 2967.5 36.25C2967.5 32.9348 2968.82 29.7554 2971.16 27.4112C2973.51 25.067 2976.68 23.75 2980 23.75C2983.32 23.75 2986.49 25.067 2988.84 27.4112C2991.18 29.7554 2992.5 32.9348 2992.5 36.25Z" stroke="#FF6C6C" stroke-width="3.33" stroke-linecap="round" stroke-linejoin="round"/>
<path d="M3053.75 37.5V28.75C3053.75 28.4185 3053.62 28.1005 3053.38 27.8661C3053.15 27.6317 3052.83 27.5 3052.5 27.5H3027.5C3027.17 27.5 3026.85 27.6317 3026.62 27.8661C3026.38 28.1005 3026.25 28.4185 3026.25 28.75V37.5C3026.25 52.5 3040 56.25 3040 56.25C3040 56.25 3053.75 52.5 3053.75 37.5Z" stroke="#FF6C6C" stroke-width="3.33" stroke-linecap="round" stroke-linejoin="round"/>
<path d="M3033.75 41.25L3037.5 45L3046.25 36.25" stroke="#FF6C6C" stroke-width="3.33" stroke-linecap="round" stroke-linejoin="round"/>
<path d="M3100 55C3107.59 55 3113.75 48.8439 3113.75 41.25C3113.75 33.6561 3107.59 27.5 3100 27.5C3092.41 27.5 3086.25 33.6561 3086.25 41.25C3086.25 48.8439 3092.41 55 3100 55Z" stroke="#FF6C6C" stroke-width="3.33" stroke-linecap="round" stroke-linejoin="round"/>
<path d="M3100 41.25L3106.25 35" stroke="#FF6C6C" stroke-width="3.33" stroke-linecap="round" stroke-linejoin="round"/>
<path d="M3096.25 22.5H3103.75" stroke="#FF6C6C" stroke-width="3.33" stroke-linecap="round" stroke-linejoin="round"/>
<path d="M3153.75 56.25H3166.25" stroke="#FF6C6C" stroke-width="3.33" stroke-linecap="round" stroke-linejoin="round"/>
<path d="M3152.3 46.0935C3150.81 44.9327 3149.61 43.4502 3148.78 41.7575C3147.95 40.0647 3147.51 38.2057 3147.5 36.3201C3147.46 29.5451 3152.93 23.906 3159.7 23.7498C3162.32 23.6862 3164.9 24.4509 3167.07 25.9353C3169.23 27.4197 3170.88 29.5485 3171.77 32.0197C3172.65 34.4908 3172.74 37.1788 3172.01 39.7022C3171.29 42.2256 3169.79 44.4564 3167.72 46.0779C3167.26 46.4311 3166.9 46.8834 3166.64 47.4005C3166.39 47.9175 3166.25 48.4858 3166.25 49.0623V49.9998C3166.25 50.3313 3166.12 50.6492 3165.88 50.8836C3165.65 51.1181 3165.33 51.2498 3165 51.2498H3155C3154.67 51.2498 3154.35 51.1181 3154.12 50.8836C3153.88 50.6492 3153.75 50.3313 3153.75 49.9998V49.0623C3153.75 48.4895 3153.62 47.9244 3153.37 47.41C3153.11 46.8956 3152.75 46.4453 3152.3 46.0935Z" stroke="#FF6C6C" stroke-width="3.33" stroke-linecap="round" stroke-linejoin="round"/>
<path d="M3161.25 28.75C3164.38 29.2766 3166.97 31.875 3167.5 35" stroke="#FF6C6C" stroke-width="3.33" stroke-linecap="round" stroke-linejoin="round"/>
<path d="M3206.67 23.334V56.6673L3210 55.0007L3213.33 56.6673L3216.67 55.0007L3220 56.6673L3223.33 55.0007L3226.67 56.6673L3230 55.0007L3233.33 56.6673V23.334L3230 25.0007L3226.67 23.334L3223.33 25.0007L3220 23.334L3216.67 25.0007L3213.33 23.334L3210 25.0007L3206.67 23.334Z" stroke="#FF6C6C" stroke-width="3.33" stroke-linecap="round" stroke-linejoin="round"/>
<path d="M3226.67 33.334H3216.67C3215.78 33.334 3214.93 33.6852 3214.31 34.3103C3213.68 34.9354 3213.33 35.7833 3213.33 36.6673C3213.33 37.5514 3213.68 38.3992 3214.31 39.0243C3214.93 39.6495 3215.78 40.0007 3216.67 40.0007H3223.33C3224.22 40.0007 3225.06 40.3518 3225.69 40.977C3226.32 41.6021 3226.67 42.4499 3226.67 43.334C3226.67 44.218 3226.32 45.0659 3225.69 45.691C3225.06 46.3161 3224.22 46.6673 3223.33 46.6673H3213.33" stroke="#FF6C6C" stroke-width="3.33" stroke-linecap="round" stroke-linejoin="round"/>
<path d="M3220 49.1673V30.834" stroke="#FF6C6C" stroke-width="3.33" stroke-linecap="round" stroke-linejoin="round"/>
<g clip-path="url(#clip7_62535_405)">
<path d="M3292.5 42.5H3267.5C3266.81 42.5 3266.25 43.0596 3266.25 43.75V51.25C3266.25 51.9404 3266.81 52.5 3267.5 52.5H3292.5C3293.19 52.5 3293.75 51.9404 3293.75 51.25V43.75C3293.75 43.0596 3293.19 42.5 3292.5 42.5Z" stroke="#FF6C6C" stroke-width="3.33" stroke-linecap="round" stroke-linejoin="round"/>
<path d="M3292.5 27.5H3267.5C3266.81 27.5 3266.25 28.0596 3266.25 28.75V36.25C3266.25 36.9404 3266.81 37.5 3267.5 37.5H3292.5C3293.19 37.5 3293.75 36.9404 3293.75 36.25V28.75C3293.75 28.0596 3293.19 27.5 3292.5 27.5Z" stroke="#FF6C6C" stroke-width="3.33" stroke-linecap="round" stroke-linejoin="round"/>
<path d="M3288.12 34.375C3289.16 34.375 3290 33.5355 3290 32.5C3290 31.4645 3289.16 30.625 3288.12 30.625C3287.09 30.625 3286.25 31.4645 3286.25 32.5C3286.25 33.5355 3287.09 34.375 3288.12 34.375Z" fill="#FF6C6C"/>
<path d="M3288.12 49.375C3289.16 49.375 3290 48.5355 3290 47.5C3290 46.4645 3289.16 45.625 3288.12 45.625C3287.09 45.625 3286.25 46.4645 3286.25 47.5C3286.25 48.5355 3287.09 49.375 3288.12 49.375Z" fill="#FF6C6C"/>
</g>
<g clip-path="url(#clip8_62535_405)">
<path d="M3332 52H3340" stroke="#FF6C6C" stroke-width="3.33" stroke-linecap="round" stroke-linejoin="round"/>
<path d="M3327 37C3327 34.6131 3327.95 32.3239 3329.64 30.636C3331.32 28.9482 3333.61 28 3336 28C3338.39 28 3340.68 28.9482 3342.36 30.636C3344.05 32.3239 3345 34.6131 3345 37C3345 41.4775 3346.04 45.075 3346.86 46.5C3346.95 46.6518 3347 46.8239 3347 46.9991C3347 47.1744 3346.95 47.3466 3346.86 47.4985C3346.78 47.6504 3346.65 47.7767 3346.5 47.8647C3346.35 47.9527 3346.18 47.9994 3346 48H3326C3325.82 47.9989 3325.65 47.952 3325.5 47.8638C3325.35 47.7756 3325.23 47.6492 3325.14 47.4974C3325.05 47.3456 3325.01 47.1735 3325.01 46.9985C3325.01 46.8235 3325.05 46.6516 3325.14 46.5C3325.96 45.075 3327 41.4763 3327 37Z" stroke="#FF6C6C" stroke-width="3.33" stroke-linecap="round" stroke-linejoin="round"/>
</g>
<g clip-path="url(#clip9_62535_405)">
<path d="M3392 31.25C3393.73 31.25 3395.12 29.8509 3395.12 28.125C3395.12 26.3991 3393.73 25 3392 25C3390.27 25 3388.88 26.3991 3388.88 28.125C3388.88 29.8509 3390.27 31.25 3392 31.25Z" stroke="#FF6C6C" stroke-width="3.33" stroke-linecap="round" stroke-linejoin="round"/>
<path d="M3406.38 35.625C3408.1 35.625 3409.5 34.2259 3409.5 32.5C3409.5 30.7741 3408.1 29.375 3406.38 29.375C3404.65 29.375 3403.25 30.7741 3403.25 32.5C3403.25 34.2259 3404.65 35.625 3406.38 35.625Z" stroke="#FF6C6C" stroke-width="3.33" stroke-linecap="round" stroke-linejoin="round"/>
<path d="M3377.62 35.625C3379.35 35.625 3380.75 34.2259 3380.75 32.5C3380.75 30.7741 3379.35 29.375 3377.62 29.375C3375.9 29.375 3374.5 30.7741 3374.5 32.5C3374.5 34.2259 3375.9 35.625 3377.62 35.625Z" stroke="#FF6C6C" stroke-width="3.33" stroke-linecap="round" stroke-linejoin="round"/>
<path d="M3390.75 30.9922L3385.75 42.5L3379.6 34.925" stroke="#FF6C6C" stroke-width="3.33" stroke-linecap="round" stroke-linejoin="round"/>
<path d="M3404.4 34.925L3398.25 42.5L3393.25 30.9922" stroke="#FF6C6C" stroke-width="3.33" stroke-linecap="round" stroke-linejoin="round"/>
<path d="M3378.14 35.582L3380.58 50.2055C3380.62 50.4972 3380.78 50.7621 3381 50.9532C3381.23 51.1443 3381.51 51.2492 3381.81 51.2492H3402.19C3402.49 51.2492 3402.77 51.1443 3403 50.9532C3403.22 50.7621 3403.37 50.4972 3403.42 50.2055L3405.86 35.582" stroke="#FF6C6C" stroke-width="3.33" stroke-linecap="round" stroke-linejoin="round"/>
</g>
<g clip-path="url(#clip10_62535_405)">
<path d="M3452 43.75C3454.07 43.75 3455.75 42.0711 3455.75 40C3455.75 37.9289 3454.07 36.25 3452 36.25C3449.93 36.25 3448.25 37.9289 3448.25 40C3448.25 42.0711 3449.93 43.75 3452 43.75Z" stroke="#FF6C6C" stroke-width="3.33" stroke-miterlimit="10"/>
<path d="M3439.5 43.75C3441.57 43.75 3443.25 42.0711 3443.25 40C3443.25 37.9289 3441.57 36.25 3439.5 36.25C3437.43 36.25 3435.75 37.9289 3435.75 40C3435.75 42.0711 3437.43 43.75 3439.5 43.75Z" stroke="#FF6C6C" stroke-width="3.33" stroke-miterlimit="10"/>
<path d="M3464.5 43.75C3466.57 43.75 3468.25 42.0711 3468.25 40C3468.25 37.9289 3466.57 36.25 3464.5 36.25C3462.43 36.25 3460.75 37.9289 3460.75 40C3460.75 42.0711 3462.43 43.75 3464.5 43.75Z" stroke="#FF6C6C" stroke-width="3.33" stroke-miterlimit="10"/>
</g>
<g clip-path="url(#clip11_62535_405)">
<path d="M3512 49.5454L3520.55 54.8032C3520.77 54.9379 3521.03 55.0038 3521.29 54.9925C3521.55 54.9813 3521.8 54.8935 3522.01 54.7401C3522.22 54.5868 3522.38 54.3748 3522.46 54.131C3522.55 53.8872 3522.57 53.6225 3522.51 53.3704L3520.18 43.5595L3527.79 36.997C3527.99 36.8266 3528.12 36.6032 3528.19 36.3542C3528.26 36.1053 3528.26 35.8417 3528.18 35.5961C3528.1 35.3505 3527.95 35.1336 3527.75 34.9721C3527.54 34.8107 3527.3 34.7118 3527.04 34.6876L3517.06 33.8751L3513.21 24.5626C3513.11 24.3223 3512.94 24.1167 3512.73 23.972C3512.51 23.8273 3512.26 23.75 3512 23.75C3511.74 23.75 3511.49 23.8273 3511.27 23.972C3511.06 24.1167 3510.89 24.3223 3510.79 24.5626L3506.94 33.8751L3496.96 34.6876C3496.7 34.7103 3496.45 34.8088 3496.25 34.9707C3496.05 35.1327 3495.9 35.3509 3495.82 35.5981C3495.74 35.8453 3495.73 36.1106 3495.8 36.3608C3495.87 36.611 3496.01 36.835 3496.21 37.0048L3503.82 43.5673L3501.49 53.3704C3501.43 53.6225 3501.45 53.8872 3501.54 54.131C3501.63 54.3748 3501.78 54.5868 3501.99 54.7401C3502.2 54.8935 3502.45 54.9813 3502.71 54.9925C3502.97 55.0038 3503.23 54.9379 3503.45 54.8032L3512 49.5454Z" stroke="#FF6C6C" stroke-width="3.33" stroke-linecap="round" stroke-linejoin="round"/>
</g>
<g clip-path="url(#clip12_62535_405)">
<path d="M3578.25 46.25H3585.75V26.25H3565.75V33.75" stroke="#FF6C6C" stroke-width="3.33" stroke-linecap="round" stroke-linejoin="round"/>
<path d="M3578.25 33.75H3558.25V53.75H3578.25V33.75Z" stroke="#FF6C6C" stroke-width="3.33" stroke-linecap="round" stroke-linejoin="round"/>
</g>
<g clip-path="url(#clip13_62535_405)">
<path d="M3642 55L3632 48.75L3622 55V27.5C3622 27.1685 3622.13 26.8505 3622.37 26.6161C3622.6 26.3817 3622.92 26.25 3623.25 26.25H3640.75C3641.08 26.25 3641.4 26.3817 3641.63 26.6161C3641.87 26.8505 3642 27.1685 3642 27.5V55Z" stroke="#FF6C6C" stroke-width="3.33333" stroke-linecap="round" stroke-linejoin="round"/>
</g>
<g clip-path="url(#clip14_62535_405)">
<path d="M3687 50C3687 51.3261 3687.53 52.5979 3688.46 53.5355C3689.4 54.4732 3690.67 55 3692 55C3693.33 55 3694.6 54.4732 3695.54 53.5355C3696.47 52.5979 3697 51.3261 3697 50" stroke="#FF6C6C" stroke-width="3.33" stroke-linecap="round" stroke-linejoin="round"/>
<path d="M3680.75 36.25C3680.75 33.2663 3681.94 30.4048 3684.05 28.295C3686.16 26.1853 3689.02 25 3692 25C3694.98 25 3697.85 26.1853 3699.96 28.295C3702.07 30.4048 3703.25 33.2663 3703.25 36.25C3703.25 41.8469 3704.55 46.3438 3705.58 48.125C3705.69 48.3147 3705.75 48.5299 3705.75 48.7489C3705.75 48.9679 3705.69 49.1832 3705.58 49.3731C3705.47 49.563 3705.31 49.7209 3705.12 49.8309C3704.93 49.9409 3704.72 49.9992 3704.5 50H3679.5C3679.28 49.9987 3679.07 49.94 3678.88 49.8297C3678.69 49.7195 3678.53 49.5616 3678.42 49.3718C3678.31 49.1819 3678.26 48.9669 3678.26 48.7481C3678.26 48.5293 3678.32 48.3145 3678.43 48.125C3679.45 46.3438 3680.75 41.8453 3680.75 36.25Z" stroke="#FF6C6C" stroke-width="3.33" stroke-linecap="round" stroke-linejoin="round"/>
</g>
<g clip-path="url(#clip15_62535_405)">
<path d="M3757 22.5L3754.5 35L3764.5 38.75L3747 57.5L3749.5 45L3739.5 41.25L3757 22.5Z" stroke="#FF6C6C" stroke-width="3.33" stroke-linecap="round" stroke-linejoin="round"/>
</g>
<g clip-path="url(#clip16_62535_405)">
<path d="M3802 45C3804.76 45 3807 42.7614 3807 40C3807 37.2386 3804.76 35 3802 35C3799.24 35 3797 37.2386 3797 40C3797 42.7614 3799.24 45 3802 45Z" stroke="#FF6C6C" stroke-width="3.33" stroke-linecap="round" stroke-linejoin="round"/>
<path d="M3819.5 56.25C3822.26 56.25 3824.5 54.0114 3824.5 51.25C3824.5 48.4886 3822.26 46.25 3819.5 46.25C3816.74 46.25 3814.5 48.4886 3814.5 51.25C3814.5 54.0114 3816.74 56.25 3819.5 56.25Z" stroke="#FF6C6C" stroke-width="3.33" stroke-linecap="round" stroke-linejoin="round"/>
<path d="M3819.5 33.75C3822.26 33.75 3824.5 31.5114 3824.5 28.75C3824.5 25.9886 3822.26 23.75 3819.5 23.75C3816.74 23.75 3814.5 25.9886 3814.5 28.75C3814.5 31.5114 3816.74 33.75 3819.5 33.75Z" stroke="#FF6C6C" stroke-width="3.33" stroke-linecap="round" stroke-linejoin="round"/>
<path d="M3815.3 31.4531L3806.21 37.2969" stroke="#FF6C6C" stroke-width="3.33" stroke-linecap="round" stroke-linejoin="round"/>
<path d="M3806.21 42.7031L3815.3 48.5469" stroke="#FF6C6C" stroke-width="3.33" stroke-linecap="round" stroke-linejoin="round"/>
</g>
<g clip-path="url(#clip17_62535_405)">
<path d="M3872 47.5C3878.9 47.5 3884.5 41.9036 3884.5 35C3884.5 28.0964 3878.9 22.5 3872 22.5C3865.1 22.5 3859.5 28.0964 3859.5 35C3859.5 41.9036 3865.1 47.5 3872 47.5Z" stroke="#FF6C6C" stroke-width="2.5" stroke-linecap="round" stroke-linejoin="round"/>
<path d="M3872 42.5C3876.14 42.5 3879.5 39.1421 3879.5 35C3879.5 30.8579 3876.14 27.5 3872 27.5C3867.86 27.5 3864.5 30.8579 3864.5 35C3864.5 39.1421 3867.86 42.5 3872 42.5Z" stroke="#FF6C6C" stroke-width="2.5" stroke-linecap="round" stroke-linejoin="round"/>
<path d="M3879.5 45V57.5L3872 53.75L3864.5 57.5V45.0016" stroke="#FF6C6C" stroke-width="2.5" stroke-linecap="round" stroke-linejoin="round"/>
</g>
<g clip-path="url(#clip18_62535_405)">
<path d="M3927 55H3937" stroke="#FF6C6C" stroke-width="2.5" stroke-linecap="round" stroke-linejoin="round"/>
<path d="M3932 48.75V55" stroke="#FF6C6C" stroke-width="2.5" stroke-linecap="round" stroke-linejoin="round"/>
<path d="M3921.06 40H3919.5C3918.17 40 3916.9 39.4732 3915.96 38.5355C3915.03 37.5979 3914.5 36.3261 3914.5 35V32.5C3914.5 32.1685 3914.63 31.8505 3914.87 31.6161C3915.1 31.3817 3915.42 31.25 3915.75 31.25H3920.75" stroke="#FF6C6C" stroke-width="2.5" stroke-linecap="round" stroke-linejoin="round"/>
<path d="M3942.94 40H3944.5C3945.83 40 3947.1 39.4732 3948.04 38.5355C3948.97 37.5979 3949.5 36.3261 3949.5 35V32.5C3949.5 32.1685 3949.37 31.8505 3949.13 31.6161C3948.9 31.3817 3948.58 31.25 3948.25 31.25H3943.25" stroke="#FF6C6C" stroke-width="2.5" stroke-linecap="round" stroke-linejoin="round"/>
<path d="M3920.75 27.5H3943.25V37.3594C3943.25 43.5625 3938.29 48.7031 3932.09 48.75C3930.6 48.7613 3929.13 48.4787 3927.75 47.9184C3926.38 47.3582 3925.13 46.5313 3924.08 45.4855C3923.02 44.4397 3922.19 43.1957 3921.61 41.8251C3921.04 40.4546 3920.75 38.9846 3920.75 37.5V27.5Z" stroke="#FF6C6C" stroke-width="2.5" stroke-linecap="round" stroke-linejoin="round"/>
</g>
<g clip-path="url(#clip19_62535_405)">
<path d="M3992 49.5454L4000.55 54.8032C4000.77 54.9379 4001.03 55.0038 4001.29 54.9925C4001.55 54.9813 4001.8 54.8935 4002.01 54.7401C4002.22 54.5868 4002.38 54.3748 4002.46 54.131C4002.55 53.8872 4002.57 53.6225 4002.51 53.3704L4000.18 43.5595L4007.79 36.997C4007.99 36.8266 4008.12 36.6032 4008.19 36.3542C4008.26 36.1053 4008.26 35.8417 4008.18 35.5961C4008.1 35.3505 4007.95 35.1336 4007.75 34.9721C4007.54 34.8107 4007.3 34.7118 4007.04 34.6876L3997.06 33.8751L3993.21 24.5626C3993.11 24.3223 3992.94 24.1167 3992.73 23.972C3992.51 23.8273 3992.26 23.75 3992 23.75C3991.74 23.75 3991.49 23.8273 3991.27 23.972C3991.06 24.1167 3990.89 24.3223 3990.79 24.5626L3986.94 33.8751L3976.96 34.6876C3976.7 34.7103 3976.45 34.8088 3976.25 34.9707C3976.05 35.1327 3975.9 35.3509 3975.82 35.5981C3975.74 35.8453 3975.73 36.1106 3975.8 36.3608C3975.87 36.611 3976.01 36.835 3976.21 37.0048L3983.82 43.5673L3981.49 53.3704C3981.43 53.6225 3981.45 53.8872 3981.54 54.131C3981.63 54.3748 3981.78 54.5868 3981.99 54.7401C3982.2 54.8935 3982.45 54.9813 3982.71 54.9925C3982.97 55.0038 3983.23 54.9379 3983.45 54.8032L3992 49.5454Z" stroke="#FF6C6C" stroke-width="2.5" stroke-linecap="round" stroke-linejoin="round"/>
</g>
<g clip-path="url(#clip20_62535_405)">
<path d="M4052 55C4060.28 55 4067 48.2843 4067 40C4067 31.7157 4060.28 25 4052 25C4043.72 25 4037 31.7157 4037 40C4037 48.2843 4043.72 55 4052 55Z" stroke="#FF6C6C" stroke-width="2.5" stroke-linecap="round" stroke-linejoin="round"/>
<path d="M4046.38 38.75C4047.41 38.75 4048.25 37.9105 4048.25 36.875C4048.25 35.8395 4047.41 35 4046.38 35C4045.34 35 4044.5 35.8395 4044.5 36.875C4044.5 37.9105 4045.34 38.75 4046.38 38.75Z" fill="#FF6C6C"/>
<path d="M4057.62 38.75C4058.66 38.75 4059.5 37.9105 4059.5 36.875C4059.5 35.8395 4058.66 35 4057.62 35C4056.59 35 4055.75 35.8395 4055.75 36.875C4055.75 37.9105 4056.59 38.75 4057.62 38.75Z" fill="#FF6C6C"/>
<path d="M4060.9 43.75C4059.26 47.3169 4055.51 49.7156 4052 49.7156C4048.49 49.7156 4044.74 47.3169 4043.1 43.75" stroke="#FF6C6C" stroke-width="2.5" stroke-linecap="round" stroke-linejoin="round"/>
</g>
<g clip-path="url(#clip21_62535_405)">
<path d="M4109.5 50C4116.4 50 4122 44.4036 4122 37.5C4122 30.5964 4116.4 25 4109.5 25C4102.6 25 4097 30.5964 4097 37.5C4097 44.4036 4102.6 50 4109.5 50Z" stroke="#FF6C6C" stroke-width="2.5" stroke-linecap="round" stroke-linejoin="round"/>
<path d="M4118.34 46.3398L4127 55.0008" stroke="#FF6C6C" stroke-width="2.5" stroke-linecap="round" stroke-linejoin="round"/>
</g>
<defs>
<clipPath id="clip0_62535_405">
<rect width="40" height="40" fill="white" transform="translate(380 20)"/>
</clipPath>
<clipPath id="clip1_62535_405">
<rect width="40" height="40" fill="white" transform="translate(980 20)"/>
</clipPath>
<clipPath id="clip2_62535_405">
<rect width="40" height="40" fill="white" transform="translate(1340 20)"/>
</clipPath>
<clipPath id="clip3_62535_405">
<rect width="40" height="40" fill="white" transform="translate(1400 20)"/>
</clipPath>
<clipPath id="clip4_62535_405">
<rect width="40" height="40" fill="white" transform="translate(1760 20)"/>
</clipPath>
<clipPath id="clip5_62535_405">
<rect width="40" height="40" fill="white" transform="translate(2120 20)"/>
</clipPath>
<clipPath id="clip6_62535_405">
<rect width="40" height="40" fill="white" transform="translate(2360 20)"/>
</clipPath>
<clipPath id="clip7_62535_405">
<rect width="40" height="40" fill="white" transform="translate(3260 20)"/>
</clipPath>
<clipPath id="clip8_62535_405">
<rect width="32" height="32" fill="white" transform="translate(3320 24)"/>
</clipPath>
<clipPath id="clip9_62535_405">
<rect width="40" height="40" fill="white" transform="translate(3372 20)"/>
</clipPath>
<clipPath id="clip10_62535_405">
<rect width="40" height="40" fill="white" transform="translate(3432 20)"/>
</clipPath>
<clipPath id="clip11_62535_405">
<rect width="40" height="40" fill="white" transform="translate(3492 20)"/>
</clipPath>
<clipPath id="clip12_62535_405">
<rect width="40" height="40" fill="white" transform="translate(3552 20)"/>
</clipPath>
<clipPath id="clip13_62535_405">
<rect width="40" height="40" fill="white" transform="translate(3612 20)"/>
</clipPath>
<clipPath id="clip14_62535_405">
<rect width="40" height="40" fill="white" transform="translate(3672 20)"/>
</clipPath>
<clipPath id="clip15_62535_405">
<rect width="40" height="40" fill="white" transform="translate(3732 20)"/>
</clipPath>
<clipPath id="clip16_62535_405">
<rect width="40" height="40" fill="white" transform="translate(3792 20)"/>
</clipPath>
<clipPath id="clip17_62535_405">
<rect width="40" height="40" fill="white" transform="translate(3852 20)"/>
</clipPath>
<clipPath id="clip18_62535_405">
<rect width="40" height="40" fill="white" transform="translate(3912 20)"/>
</clipPath>
<clipPath id="clip19_62535_405">
<rect width="40" height="40" fill="white" transform="translate(3972 20)"/>
</clipPath>
<clipPath id="clip20_62535_405">
<rect width="40" height="40" fill="white" transform="translate(4032 20)"/>
</clipPath>
<clipPath id="clip21_62535_405">
<rect width="40" height="40" fill="white" transform="translate(4092 20)"/>
</clipPath>
</defs>
</svg>
