<svg width="40" height="40" viewBox="0 0 40 40" fill="none" xmlns="http://www.w3.org/2000/svg">
<g clip-path="url(#clip0_62647_13451)">
<path d="M10.0183 23.0935C10.0225 23.1782 10.0095 23.2628 9.97998 23.3423C9.95048 23.4218 9.90511 23.4944 9.84665 23.5558C9.78818 23.6172 9.71784 23.666 9.6399 23.6994C9.56196 23.7327 9.47805 23.7499 9.39328 23.7498H2.49953C2.2174 23.7502 1.94342 23.6551 1.72214 23.4801C1.50087 23.3051 1.34532 23.0603 1.28078 22.7857C1.24059 22.5977 1.24245 22.4032 1.2862 22.216C1.32996 22.0288 1.41455 21.8536 1.5339 21.7029C2.63673 20.2403 4.09998 19.0888 5.78078 18.3607C5.04285 17.6879 4.47688 16.848 4.13027 15.9115C3.78366 14.975 3.66651 13.9691 3.78861 12.978C3.91072 11.9868 4.26853 11.0394 4.83209 10.215C5.39565 9.39065 6.14853 8.7133 7.0277 8.23972C7.90686 7.76614 8.88671 7.51012 9.88517 7.4931C10.8836 7.47607 11.8716 7.69854 12.7664 8.14188C13.6612 8.58521 14.4368 9.2365 15.0281 10.0412C15.6194 10.8459 16.0093 11.7806 16.1652 12.7669C16.1853 12.8996 16.1615 13.0352 16.0975 13.1531C16.0335 13.271 15.9327 13.3647 15.8105 13.4201C14.0767 14.2216 12.6084 15.5023 11.5788 17.1111C10.5491 18.7199 10.0012 20.5897 9.99953 22.4998C9.99953 22.6997 9.99953 22.8966 10.0183 23.0935ZM38.4558 21.7013C37.3555 20.2405 35.8956 19.0896 34.2183 18.3607C34.9562 17.6879 35.5222 16.848 35.8688 15.9115C36.2154 14.975 36.3326 13.9691 36.2104 12.978C36.0883 11.9868 35.7305 11.0394 35.167 10.215C34.6034 9.39065 33.8505 8.7133 32.9714 8.23972C32.0922 7.76614 31.1123 7.51012 30.1139 7.4931C29.1154 7.47607 28.1274 7.69854 27.2326 8.14188C26.3378 8.58521 25.5623 9.2365 24.971 10.0412C24.3796 10.8459 23.9897 11.7806 23.8339 12.7669C23.8138 12.8996 23.8375 13.0352 23.9016 13.1531C23.9656 13.271 24.0664 13.3647 24.1886 13.4201C25.9224 14.2216 27.3907 15.5023 28.4203 17.1111C29.4499 18.7199 29.9979 20.5897 29.9995 22.4998C29.9995 22.6997 29.9995 22.8966 29.9808 23.0935C29.9765 23.1782 29.9896 23.2628 30.0191 23.3423C30.0486 23.4218 30.0939 23.4944 30.1524 23.5558C30.2109 23.6172 30.2812 23.666 30.3592 23.6994C30.4371 23.7327 30.521 23.7499 30.6058 23.7498H37.4995C37.7817 23.7502 38.0556 23.6551 38.2769 23.4801C38.4982 23.3051 38.6537 23.0603 38.7183 22.7857C38.7587 22.5974 38.7568 22.4024 38.7128 22.2149C38.6688 22.0274 38.5836 21.852 38.4636 21.7013H38.4558ZM24.5495 28.4482C25.7941 27.495 26.7088 26.1758 27.1649 24.6759C27.621 23.1761 27.5957 21.571 27.0925 20.0863C26.5893 18.6016 25.6334 17.3119 24.3594 16.3984C23.0853 15.485 21.557 14.9938 19.9894 14.9938C18.4217 14.9938 16.8934 15.485 15.6194 16.3984C14.3453 17.3119 13.3895 18.6016 12.8863 20.0863C12.3831 21.571 12.3577 23.1761 12.8138 24.6759C13.27 26.1758 14.1846 27.495 15.4292 28.4482C13.2207 29.4051 11.3765 31.0439 10.1667 33.1248C10.057 33.3148 9.99924 33.5304 9.99925 33.7498C9.99926 33.9693 10.057 34.1848 10.1668 34.3749C10.2765 34.5649 10.4344 34.7227 10.6244 34.8324C10.8145 34.9421 11.0301 34.9998 11.2495 34.9998H28.7495C28.969 34.9998 29.1846 34.9421 29.3746 34.8324C29.5647 34.7227 29.7225 34.5649 29.8323 34.3749C29.942 34.1848 29.9998 33.9693 29.9998 33.7498C29.9998 33.5304 29.9421 33.3148 29.8323 33.1248C28.62 31.0426 26.7724 29.4036 24.5605 28.4482H24.5495Z" fill="#FF6C6C"/>
</g>
<defs>
<clipPath id="clip0_62647_13451">
<rect width="40" height="40" fill="white"/>
</clipPath>
</defs>
</svg>
