<svg width="40" height="40" viewBox="0 0 40 40" fill="none" xmlns="http://www.w3.org/2000/svg">
<path d="M33.7519 23.3105C33.7519 24.0141 33.6976 24.7051 33.5933 25.38C35.5057 24.346 36.8078 22.3222 36.8078 19.9999V19.6433C36.8078 16.9206 35.5246 14.4405 33.5193 12.8097C33.6715 13.5703 33.7519 14.3566 33.7519 15.1613V23.3105Z" fill="#FF6C6C"/>
<path d="M6.40695 25.38C6.30264 24.7051 6.24835 24.0141 6.24835 23.3105V15.1613C6.24835 14.3565 6.32872 13.5703 6.48091 12.8097C4.47558 14.4405 3.19238 16.9206 3.19238 19.6433V19.9999C3.19238 22.3222 4.49453 24.346 6.40695 25.38Z" fill="#FF6C6C"/>
<path d="M19.7454 33.7517H20.2548C26.0121 33.7517 30.696 29.0679 30.696 23.3105V15.1613C30.696 10.2465 26.6976 6.24805 21.7827 6.24805H18.2175C13.3026 6.24805 9.30422 10.2465 9.30422 15.1613V23.3105C9.30422 29.0679 13.9881 33.7517 19.7454 33.7517ZM15.4162 21.5279H16.9441C17.7867 21.5279 18.4721 20.8424 18.4721 19.9999H21.5281C21.5281 20.8424 22.2134 21.5279 23.0561 21.5279H24.584V24.5838H23.0561C21.8829 24.5838 20.8118 24.1403 20.0001 23.4129C19.1884 24.1403 18.1173 24.5838 16.9441 24.5838H15.4162V21.5279Z" fill="#FF6C6C"/>
</svg>
