<svg width="40" height="40" viewBox="0 0 40 40" fill="none" xmlns="http://www.w3.org/2000/svg">
<g clip-path="url(#clip0_63219_11263)">
<path d="M33.1255 31.2491C33.1256 32.0701 32.946 32.8812 32.5992 33.6254C32.2525 34.3696 31.7471 35.0289 31.1184 35.557C30.4898 36.085 29.7532 36.4691 28.9603 36.6821C28.1674 36.8952 27.3375 36.9321 26.5288 36.7903C25.7202 36.6485 24.9523 36.3314 24.2793 35.8612C23.6062 35.3911 23.0442 34.7793 22.6328 34.0688C22.2214 33.3583 21.9704 32.5664 21.8976 31.7486C21.8248 30.9308 21.9319 30.1071 22.2114 29.3351L13.9302 24.0148C13.1392 24.7906 12.1368 25.3156 11.0487 25.5238C9.96054 25.7321 8.83511 25.6144 7.8136 25.1855C6.79208 24.7566 5.91998 24.0356 5.30668 23.1129C4.69338 22.1903 4.36621 21.107 4.36621 19.9991C4.36621 18.8912 4.69338 17.808 5.30668 16.8853C5.91998 15.9627 6.79208 15.2417 7.8136 14.8128C8.83511 14.3838 9.96054 14.2662 11.0487 14.4744C12.1368 14.6827 13.1392 15.2077 13.9302 15.9835L22.2114 10.671C21.7372 9.36796 21.7597 7.93587 22.2747 6.64838C22.7897 5.36089 23.761 4.30828 25.003 3.69169C26.245 3.07509 27.6707 2.93774 29.0076 3.30589C30.3445 3.67403 31.4989 4.52185 32.2502 5.68734C33.0015 6.85284 33.297 8.25429 33.0803 9.62391C32.8635 10.9935 32.1498 12.2353 31.0754 13.1119C30.0009 13.9885 28.6412 14.4385 27.256 14.3759C25.8707 14.3133 24.5571 13.7425 23.5661 12.7726L15.2849 18.0929C15.7324 19.3297 15.7324 20.6842 15.2849 21.921L23.5661 27.2413C24.3568 26.4675 25.3581 25.944 26.4447 25.7364C27.5314 25.5287 28.6551 25.6461 29.6754 26.0739C30.6957 26.5017 31.5671 27.2208 32.1808 28.1413C32.7945 29.0618 33.1231 30.1428 33.1255 31.2491Z" fill="#FF6C6C"/>
</g>
<defs>
<clipPath id="clip0_63219_11263">
<rect width="40" height="40" fill="white"/>
</clipPath>
</defs>
</svg>
