<svg width="40" height="40" viewBox="0 0 40 40" fill="none" xmlns="http://www.w3.org/2000/svg">
<g clip-path="url(#clip0_63211_9687)">
<path d="M33.4142 19.6035L15.9142 38.3535C15.7288 38.5514 15.484 38.6836 15.2168 38.7302C14.9496 38.7768 14.6745 38.7352 14.433 38.6118C14.1915 38.4883 13.9967 38.2896 13.8781 38.0457C13.7594 37.8018 13.7233 37.526 13.7751 37.2598L16.0658 25.8019L7.06109 22.4207C6.8677 22.3484 6.69524 22.2292 6.55912 22.074C6.423 21.9187 6.32746 21.7322 6.28103 21.531C6.23461 21.3298 6.23874 21.1202 6.29306 20.921C6.34738 20.7218 6.4502 20.5392 6.59234 20.3894L24.0923 1.63944C24.2778 1.44153 24.5226 1.3093 24.7898 1.26272C25.057 1.21613 25.3321 1.25772 25.5735 1.38119C25.815 1.50467 26.0098 1.70334 26.1285 1.94723C26.2471 2.19111 26.2833 2.46697 26.2314 2.73319L23.9345 14.2035L32.9392 17.5801C33.1312 17.6529 33.3022 17.7719 33.4373 17.9265C33.5724 18.0812 33.6673 18.2667 33.7136 18.4667C33.7599 18.6667 33.7563 18.8751 33.703 19.0733C33.6497 19.2716 33.5483 19.4537 33.408 19.6035H33.4142Z" fill="#FF6C6C"/>
</g>
<defs>
<clipPath id="clip0_63211_9687">
<rect width="40" height="40" fill="white"/>
</clipPath>
</defs>
</svg>
