<svg width="40" height="40" viewBox="0 0 40 40" fill="none" xmlns="http://www.w3.org/2000/svg">
<g clip-path="url(#clip0_62790_3582)">
<path d="M33.7496 20.3381C33.7558 20.1131 33.7558 19.8881 33.7496 19.6631L36.0808 16.7506C36.2031 16.5976 36.2877 16.4181 36.3278 16.2265C36.368 16.0349 36.3626 15.8366 36.3121 15.6474C35.9292 14.2111 35.3576 12.8319 34.6121 11.5459C34.5144 11.3776 34.3788 11.2345 34.216 11.1279C34.0533 11.0213 33.8679 10.9541 33.6746 10.9318L29.9683 10.5193C29.8142 10.3568 29.6579 10.2006 29.4996 10.0506L29.0621 6.33493C29.0396 6.14152 28.9722 5.95603 28.8653 5.79326C28.7584 5.6305 28.615 5.49495 28.4465 5.39743C27.1605 4.65251 25.7813 4.08189 24.3449 3.70056C24.1558 3.65003 23.9574 3.64463 23.7658 3.6848C23.5742 3.72496 23.3947 3.80957 23.2418 3.93181L20.3371 6.25056C20.1121 6.25056 19.8871 6.25056 19.6621 6.25056L16.7496 3.924C16.5967 3.80176 16.4172 3.71715 16.2256 3.67698C16.034 3.63682 15.8356 3.64222 15.6465 3.69275C14.2101 4.0756 12.8309 4.64725 11.5449 5.39275C11.3766 5.49044 11.2335 5.62607 11.1269 5.78882C11.0203 5.95158 10.9532 6.13697 10.9308 6.33025L10.5183 10.0427C10.3558 10.198 10.1996 10.3542 10.0496 10.5115L6.33396 10.9381C6.14054 10.9606 5.95505 11.0279 5.79229 11.1348C5.62952 11.2417 5.49398 11.3851 5.39646 11.5537C4.65169 12.8399 4.08057 14.2191 3.69802 15.6552C3.6477 15.8445 3.64256 16.0429 3.683 16.2345C3.72344 16.4262 3.80833 16.6056 3.93083 16.7584L6.24958 19.6631C6.24958 19.8881 6.24958 20.1131 6.24958 20.3381L3.92302 23.2506C3.80078 23.4035 3.71617 23.583 3.67601 23.7746C3.63584 23.9662 3.64124 24.1645 3.69177 24.3537C4.07463 25.79 4.64628 27.1692 5.39177 28.4552C5.48947 28.6235 5.62509 28.7666 5.78785 28.8732C5.9506 28.9798 6.136 29.047 6.32927 29.0693L10.0355 29.4818C10.1907 29.6443 10.347 29.8006 10.5043 29.9506L10.9371 33.6662C10.9596 33.8596 11.027 34.0451 11.1338 34.2079C11.2407 34.3706 11.3842 34.5062 11.5527 34.6037C12.8389 35.3485 14.2181 35.9196 15.6543 36.3021C15.8435 36.3524 16.042 36.3576 16.2336 36.3171C16.4252 36.2767 16.6046 36.1918 16.7574 36.0693L19.6621 33.7506C19.8871 33.7568 20.1121 33.7568 20.3371 33.7506L23.2496 36.0818C23.4025 36.204 23.582 36.2887 23.7736 36.3288C23.9652 36.369 24.1636 36.3636 24.3527 36.3131C25.7893 35.9309 27.1686 35.3592 28.4543 34.6131C28.6225 34.5154 28.7656 34.3797 28.8723 34.217C28.9789 34.0542 29.046 33.8688 29.0683 33.6756L29.4808 29.9693C29.6433 29.8151 29.7996 29.6589 29.9496 29.5006L33.6652 29.0631C33.8586 29.0406 34.0441 28.9732 34.2069 28.8663C34.3696 28.7594 34.5052 28.616 34.6027 28.4474C35.3475 27.1612 35.9186 25.7821 36.3011 24.3459C36.3515 24.1566 36.3566 23.9582 36.3162 23.7666C36.2757 23.575 36.1908 23.3955 36.0683 23.2427L33.7496 20.3381ZM19.9996 26.2506C18.7634 26.2506 17.5551 25.884 16.5273 25.1972C15.4995 24.5105 14.6984 23.5344 14.2253 22.3923C13.7523 21.2503 13.6285 19.9936 13.8697 18.7812C14.1108 17.5689 14.7061 16.4552 15.5802 15.5811C16.4542 14.7071 17.5679 14.1118 18.7803 13.8707C19.9927 13.6295 21.2493 13.7533 22.3914 14.2263C23.5334 14.6994 24.5095 15.5004 25.1963 16.5282C25.883 17.5561 26.2496 18.7644 26.2496 20.0006C26.2496 21.6582 25.5911 23.2479 24.419 24.42C23.2469 25.5921 21.6572 26.2506 19.9996 26.2506Z" fill="#FF6C6C"/>
</g>
<defs>
<clipPath id="clip0_62790_3582">
<rect width="40" height="40" fill="white"/>
</clipPath>
</defs>
</svg>
