<svg width="40" height="40" viewBox="0 0 40 40" fill="none" xmlns="http://www.w3.org/2000/svg">
<g clip-path="url(#clip0_62967_3184)">
<path d="M35 7.5H5C4.33696 7.5 3.70107 7.76339 3.23223 8.23223C2.76339 8.70107 2.5 9.33696 2.5 10V30C2.5 30.663 2.76339 31.2989 3.23223 31.7678C3.70107 32.2366 4.33696 32.5 5 32.5H35C35.663 32.5 36.2989 32.2366 36.7678 31.7678C37.2366 31.2989 37.5 30.663 37.5 30V10C37.5 9.33696 37.2366 8.70107 36.7678 8.23223C36.2989 7.76339 35.663 7.5 35 7.5ZM31.9656 22.2984C32.0622 22.4318 32.1315 22.5829 32.1696 22.7431C32.2078 22.9032 32.214 23.0693 32.188 23.2319C32.1619 23.3945 32.1041 23.5503 32.0179 23.6906C31.9316 23.8308 31.8185 23.9527 31.6852 24.0492C31.5518 24.1458 31.4007 24.2151 31.2405 24.2532C31.0804 24.2914 30.9143 24.2976 30.7517 24.2716C30.5891 24.2455 30.4333 24.1877 30.293 24.1015C30.1528 24.0152 30.0309 23.9021 29.9344 23.7687L28.75 22.1266L27.5578 23.7687C27.3628 24.0381 27.0688 24.219 26.7405 24.2716C26.4122 24.3242 26.0764 24.2442 25.807 24.0492C25.5377 23.8542 25.3568 23.5602 25.3042 23.2319C25.2516 22.9036 25.3316 22.5678 25.5266 22.2984L26.7203 20.6578L24.7891 20.0328C24.633 19.9815 24.4886 19.9 24.3641 19.7929C24.2395 19.6858 24.1373 19.5552 24.0632 19.4086C23.9136 19.1125 23.8878 18.7691 23.9914 18.4539C24.0427 18.2979 24.1242 18.1534 24.2313 18.0289C24.3385 17.9044 24.469 17.8021 24.6157 17.7281C24.9118 17.5785 25.2552 17.5526 25.5703 17.6562L27.5 18.2812V16.25C27.5 15.9185 27.6317 15.6005 27.8661 15.3661C28.1005 15.1317 28.4185 15 28.75 15C29.0815 15 29.3995 15.1317 29.6339 15.3661C29.8683 15.6005 30 15.9185 30 16.25V18.2812L31.9297 17.6562C32.0857 17.605 32.2504 17.5849 32.4142 17.5972C32.578 17.6095 32.7377 17.654 32.8843 17.7281C33.031 17.8021 33.1615 17.9044 33.2687 18.0289C33.3758 18.1534 33.4573 18.2979 33.5086 18.4539C33.5599 18.61 33.58 18.7746 33.5676 18.9384C33.5553 19.1022 33.5108 19.2619 33.4368 19.4086C33.3627 19.5552 33.2605 19.6858 33.1359 19.7929C33.0114 19.9 32.867 19.9815 32.7109 20.0328L30.7797 20.6578L31.9656 22.2984ZM20.7156 22.2984C20.8122 22.4318 20.8815 22.5829 20.9196 22.7431C20.9578 22.9032 20.964 23.0693 20.938 23.2319C20.9119 23.3945 20.8541 23.5503 20.7679 23.6906C20.6816 23.8308 20.5685 23.9527 20.4352 24.0492C20.3018 24.1458 20.1507 24.2151 19.9905 24.2532C19.8304 24.2914 19.6643 24.2976 19.5017 24.2716C19.3391 24.2455 19.1833 24.1877 19.043 24.1015C18.9028 24.0152 18.7809 23.9021 18.6844 23.7687L17.5 22.1266L16.3078 23.7687C16.1128 24.0381 15.8188 24.219 15.4905 24.2716C15.1622 24.3242 14.8264 24.2442 14.557 24.0492C14.2877 23.8542 14.1068 23.5602 14.0542 23.2319C14.0016 22.9036 14.0816 22.5678 14.2766 22.2984L15.4703 20.6578L13.5391 20.0328C13.383 19.9815 13.2386 19.9 13.1141 19.7929C12.9895 19.6858 12.8873 19.5552 12.8132 19.4086C12.6636 19.1125 12.6378 18.7691 12.7414 18.4539C12.7927 18.2979 12.8742 18.1534 12.9813 18.0289C13.0885 17.9044 13.219 17.8021 13.3657 17.7281C13.6618 17.5785 14.0052 17.5526 14.3203 17.6562L16.25 18.2812V16.25C16.25 15.9185 16.3817 15.6005 16.6161 15.3661C16.8505 15.1317 17.1685 15 17.5 15C17.8315 15 18.1495 15.1317 18.3839 15.3661C18.6183 15.6005 18.75 15.9185 18.75 16.25V18.2812L20.6797 17.6562C20.8357 17.605 21.0004 17.5849 21.1642 17.5972C21.328 17.6095 21.4877 17.654 21.6343 17.7281C21.781 17.8021 21.9115 17.9044 22.0187 18.0289C22.1258 18.1534 22.2073 18.2979 22.2586 18.4539C22.3099 18.61 22.33 18.7746 22.3176 18.9384C22.3053 19.1022 22.2608 19.2619 22.1868 19.4086C22.1127 19.5552 22.0105 19.6858 21.8859 19.7929C21.7614 19.9 21.617 19.9815 21.4609 20.0328L19.5297 20.6578L20.7156 22.2984ZM10 13.75V26.25C10 26.5815 9.8683 26.8995 9.63388 27.1339C9.39946 27.3683 9.08152 27.5 8.75 27.5C8.41848 27.5 8.10054 27.3683 7.86612 27.1339C7.6317 26.8995 7.5 26.5815 7.5 26.25V13.75C7.5 13.4185 7.6317 13.1005 7.86612 12.8661C8.10054 12.6317 8.41848 12.5 8.75 12.5C9.08152 12.5 9.39946 12.6317 9.63388 12.8661C9.8683 13.1005 10 13.4185 10 13.75Z" fill="#FF6C6C"/>
</g>
<defs>
<clipPath id="clip0_62967_3184">
<rect width="40" height="40" fill="white"/>
</clipPath>
</defs>
</svg>
