<svg width="40" height="40" viewBox="0 0 40 40" fill="none" xmlns="http://www.w3.org/2000/svg">
<path d="M33.333 36.666L30 34.999L26.667 36.666L23.333 34.999L20 36.666L16.667 34.999L13.333 36.666L10 34.999L6.66602 36.666V3.33203L10 4.99902L13.333 3.33203L16.667 4.99902L20 3.33203L23.333 4.99902L26.667 3.33203L30 4.99902L33.333 3.33203V36.666ZM20.001 9.16699C19.0815 9.16699 18.3361 9.91262 18.3359 10.832V11.667H16.667C15.3417 11.6671 14.0701 12.1938 13.1328 13.1309C12.1956 14.0681 11.6691 15.3396 11.6689 16.665C11.6689 17.9907 12.1954 19.2628 13.1328 20.2002C14.0701 21.1373 15.3416 21.664 16.667 21.6641H18.3359V25H13.334C12.4146 25 11.6693 25.7458 11.6689 26.665C11.6689 27.5846 12.4144 28.3301 13.334 28.3301H18.3359V29.165C18.3359 30.0846 19.0814 30.8301 20.001 30.8301C20.9201 30.8296 21.666 30.0843 21.666 29.165V28.3301H23.334C24.6595 28.3299 25.9309 27.8035 26.8682 26.8662C27.8053 25.9289 28.332 24.6575 28.332 23.332C28.332 22.0065 27.8054 20.7351 26.8682 19.7979C25.9309 18.8606 24.6595 18.3341 23.334 18.334H21.666V14.9971H26.667C27.5863 14.9968 28.332 14.2514 28.332 13.332C28.3319 12.4128 27.5862 11.6673 26.667 11.667H21.666V10.832C21.6659 9.91292 20.92 9.16749 20.001 9.16699ZM23.334 21.6641C23.7763 21.6642 24.2009 21.8396 24.5137 22.1523C24.8264 22.4651 25.0019 22.8897 25.002 23.332C25.002 23.7743 24.8263 24.1989 24.5137 24.5117C24.2009 24.8245 23.7763 24.9999 23.334 25H21.666V21.6641H23.334ZM18.3359 14.9971V18.334H16.667C16.2247 18.3339 15.8001 18.1575 15.4873 17.8447C15.1746 17.5319 14.999 17.1074 14.999 16.665C14.9992 16.2228 15.1746 15.7981 15.4873 15.4854C15.8001 15.1728 16.2248 14.9972 16.667 14.9971H18.3359Z" fill="#FF6C6C"/>
</svg>
