<svg width="40" height="40" viewBox="0 0 40 40" fill="none" xmlns="http://www.w3.org/2000/svg">
<path d="M20.0029 3.75C16.789 3.75 13.6472 4.70305 10.9749 6.48862C8.30262 8.27419 6.21982 10.8121 4.98989 13.7814C3.75997 16.7507 3.43817 20.018 4.06518 23.1702C4.69219 26.3224 6.23985 29.2179 8.51245 31.4905C10.7851 33.7631 13.6805 35.3107 16.8327 35.9378C19.9849 36.5648 23.2522 36.243 26.2215 35.013C29.1908 33.7831 31.7287 31.7003 33.5143 29.028C35.2999 26.3557 36.2529 23.2139 36.2529 20C36.2484 15.6916 34.5349 11.561 31.4884 8.51454C28.4419 5.46806 24.3113 3.75455 20.0029 3.75ZM14.3779 15C14.7488 15 15.1113 15.11 15.4196 15.316C15.728 15.522 15.9683 15.8149 16.1102 16.1575C16.2521 16.5001 16.2893 16.8771 16.2169 17.2408C16.1446 17.6045 15.966 17.9386 15.7038 18.2008C15.4415 18.463 15.1074 18.6416 14.7437 18.714C14.38 18.7863 14.003 18.7492 13.6604 18.6073C13.3178 18.4654 13.025 18.225 12.8189 17.9167C12.6129 17.6084 12.5029 17.2458 12.5029 16.875C12.5029 16.3777 12.7005 15.9008 13.0521 15.5492C13.4037 15.1975 13.8807 15 14.3779 15ZM27.3342 24.375C25.7264 27.1547 23.0545 28.75 20.0029 28.75C16.9514 28.75 14.2795 27.1562 12.6717 24.375C12.5812 24.2327 12.5205 24.0736 12.4932 23.9073C12.4658 23.7409 12.4724 23.5708 12.5125 23.407C12.5526 23.2433 12.6254 23.0893 12.7265 22.9545C12.8277 22.8196 12.9551 22.7066 13.101 22.6222C13.247 22.5378 13.4085 22.4839 13.5759 22.4635C13.7432 22.4432 13.9129 22.4569 14.0749 22.5039C14.2368 22.5509 14.3875 22.6301 14.518 22.7369C14.6485 22.8436 14.756 22.9756 14.8342 23.125C16.0014 25.1422 17.8357 26.25 20.0029 26.25C22.1701 26.25 24.0045 25.1406 25.1717 23.125C25.2498 22.9756 25.3574 22.8436 25.4879 22.7369C25.6184 22.6301 25.7691 22.5509 25.931 22.5039C26.0929 22.4569 26.2627 22.4432 26.43 22.4635C26.5974 22.4839 26.7589 22.5378 26.9048 22.6222C27.0508 22.7066 27.1782 22.8196 27.2793 22.9545C27.3805 23.0893 27.4533 23.2433 27.4934 23.407C27.5335 23.5708 27.5401 23.7409 27.5127 23.9073C27.4854 24.0736 27.4246 24.2327 27.3342 24.375ZM25.6279 18.75C25.2571 18.75 24.8946 18.64 24.5862 18.434C24.2779 18.228 24.0376 17.9351 23.8957 17.5925C23.7537 17.2499 23.7166 16.8729 23.789 16.5092C23.8613 16.1455 24.0399 15.8114 24.3021 15.5492C24.5643 15.287 24.8984 15.1084 25.2621 15.036C25.6259 14.9637 26.0029 15.0008 26.3455 15.1427C26.6881 15.2846 26.9809 15.525 27.1869 15.8333C27.393 16.1416 27.5029 16.5042 27.5029 16.875C27.5029 17.3723 27.3054 17.8492 26.9538 18.2008C26.6021 18.5525 26.1252 18.75 25.6279 18.75Z" fill="#FF6C6C"/>
</svg>
