<svg width="40" height="40" viewBox="0 0 40 40" fill="none" xmlns="http://www.w3.org/2000/svg">
<g clip-path="url(#clip0_62641_12560)">
<path d="M35 22.501V32.501C35 32.8325 34.8683 33.1504 34.6339 33.3849C34.3995 33.6193 34.0815 33.751 33.75 33.751H6.25C5.91848 33.751 5.60054 33.6193 5.36612 33.3849C5.1317 33.1504 5 32.8325 5 32.501V22.501C5 22.1695 5.1317 21.8515 5.36612 21.6171C5.60054 21.3827 5.91848 21.251 6.25 21.251C6.58152 21.251 6.89946 21.3827 7.13388 21.6171C7.3683 21.8515 7.5 22.1695 7.5 22.501V31.251H32.5V22.501C32.5 22.1695 32.6317 21.8515 32.8661 21.6171C33.1005 21.3827 33.4185 21.251 33.75 21.251C34.0815 21.251 34.3995 21.3827 34.6339 21.6171C34.8683 21.8515 35 22.1695 35 22.501ZM13.75 12.501H18.75V22.501C18.75 22.8325 18.8817 23.1504 19.1161 23.3849C19.3505 23.6193 19.6685 23.751 20 23.751C20.3315 23.751 20.6495 23.6193 20.8839 23.3849C21.1183 23.1504 21.25 22.8325 21.25 22.501V12.501H26.25C26.4974 12.5012 26.7392 12.428 26.945 12.2906C27.1507 12.1533 27.3111 11.958 27.4058 11.7295C27.5005 11.5009 27.5252 11.2495 27.4769 11.0069C27.4286 10.7642 27.3094 10.5414 27.1344 10.3666L20.8844 4.11661C20.7683 4.00039 20.6304 3.90819 20.4787 3.84528C20.3269 3.78238 20.1643 3.75 20 3.75C19.8357 3.75 19.6731 3.78238 19.5213 3.84528C19.3696 3.90819 19.2317 4.00039 19.1156 4.11661L12.8656 10.3666C12.6906 10.5414 12.5714 10.7642 12.5231 11.0069C12.4748 11.2495 12.4995 11.5009 12.5942 11.7295C12.6889 11.958 12.8493 12.1533 13.055 12.2906C13.2608 12.428 13.5026 12.5012 13.75 12.501Z" fill="#FF6C6C"/>
</g>
<defs>
<clipPath id="clip0_62641_12560">
<rect width="40" height="40" fill="white"/>
</clipPath>
</defs>
</svg>
